{
.appVersion = "1286";
copyright = "Copyright 2016 Google Inc. All Rights Reserved.";
customParameters = (
{
name = trademark;
value = "Space Mono is a trademark of Google.";
},
{
name = licenseURL;
value = "http://scripts.sil.org/OFL";
},
{
name = license;
value = "This Font Software is licensed under the SIL Open Font License, Version 1.1. This license is available with a FAQ at: http://scripts.sil.org/OFL";
},
{
name = vendorID;
value = Bird;
},
{
name = panose;
value = (
0,
0,
0,
0,
0,
0,
0,
0,
0,
0
);
},
{
name = unicodeRanges;
value = (
0
);
},
{
name = fsType;
value = (
);
},
{
name = glyphOrder;
value = (
.notdef,
.null,
CR,
space,
exclam,
quotedbl,
numbersign,
dollar,
percent,
ampersand,
quotesingle,
parenleft,
parenright,
asterisk,
plus,
comma,
hyphen,
period,
slash,
zero,
one,
two,
three,
four,
five,
six,
seven,
eight,
nine,
colon,
semicolon,
less,
equal,
greater,
question,
at,
A,
B,
C,
D,
E,
F,
G,
H,
I,
J,
K,
L,
M,
N,
O,
P,
Q,
R,
S,
T,
U,
V,
W,
X,
Y,
Z,
bracketleft,
backslash,
bracketright,
asciicircum,
underscore,
grave,
a,
b,
c,
d,
e,
f,
g,
h,
i,
j,
k,
l,
m,
n,
o,
p,
q,
r,
s,
t,
u,
v,
w,
x,
y,
z,
braceleft,
bar,
braceright,
asciitilde,
nonbreakingspace,
exclamdown,
cent,
sterling,
currency,
yen,
brokenbar,
section,
dieresis,
copyright,
ordfeminine,
guillemotleft,
logicalnot,
registered,
macron,
degree,
plusminus,
twosuperior,
threesuperior,
acute,
mu,
paragraph,
periodcentered,
cedilla,
onesuperior,
ordmasculine,
guillemotright,
onequarter,
onehalf,
threequarters,
questiondown,
Agrave,
Aacute,
Acircumflex,
Atilde,
Adieresis,
Aring,
AE,
Ccedilla,
Egrave,
Eacute,
Ecircumflex,
Edieresis,
Igrave,
Iacute,
Icircumflex,
Idieresis,
Eth,
Ntilde,
Ograve,
Oacute,
Ocircumflex,
Otilde,
Odieresis,
multiply,
Oslash,
Ugrave,
Uacute,
Ucircumflex,
Udieresis,
Yacute,
Thorn,
germandbls,
agrave,
aacute,
acircumflex,
atilde,
adieresis,
aring,
ae,
ccedilla,
egrave,
eacute,
ecircumflex,
edieresis,
igrave,
iacute,
icircumflex,
idieresis,
eth,
ntilde,
ograve,
oacute,

glyphs = (
{
glyphname = .notdef;
layers = (
{
layerId = "1B5A2E6A-EA81-427B-BCB4-5148866553EF";
paths = (
{
closed = 1;
nodes = (
"51 444 OFFCURVE",
"51 614 QCURVE",
"256 614 OFFCURVE",
"358 614 QCURVE",
"358 273 OFFCURVE",
"358 102 QCURVE",
"128 102 OFFCURVE",
"51 102 QCURVE",
"51 102 LINE"
);
},
{
closed = 1;
nodes = (
"0 256 OFFCURVE",
"0 51 QCURVE",
"273 51 OFFCURVE",
"410 51 QCURVE",
"410 461 OFFCURVE",
"410 666 QCURVE",
"102 666 OFFCURVE",
"0 666 QCURVE",
"0 666 LINE"
);
}
);
width = 543;
}
);
note = .notdef;
},
{
glyphname = exclam;
layers = (
{
layerId = "1B5A2E6A-EA81-427B-BCB4-5148866553EF";
paths = (
{
closed = 1;
nodes = (
"280 717 OFFCURVE",
"246 717 QCURVE",
"246 342 OFFCURVE",
"246 217 QCURVE",
"347 217 OFFCURVE",
"381 217 QCURVE",
"381 592 OFFCURVE",
"381 717 QCURVE",
"381 717 LINE"
);
},
{
closed = 1;
nodes = (
"411 103 OFFCURVE",
"403 121 QCURVE SMOOTH",
"395 139 OFFCURVE",
"382 152 QCURVE SMOOTH",
"369 165 OFFCURVE",
"351 173 QCURVE SMOOTH",
"333 180 OFFCURVE",
"313 180 QCURVE SMOOTH",
"293 180 OFFCURVE",
"275 173 QCURVE SMOOTH",
"258 165 OFFCURVE",
"245 152 QCURVE SMOOTH",
"231 139 OFFCURVE",
"224 121 QCURVE SMOOTH",
"216 103 OFFCURVE",
"216 83 QCURVE SMOOTH",
"216 62 OFFCURVE",
"224 45 QCURVE SMOOTH",
"231 27 OFFCURVE",
"245 13 QCURVE SMOOTH",
"258 1 OFFCURVE",
"275 -7 QCURVE SMOOTH",
"293 -14 OFFCURVE",
"313 -14 QCURVE SMOOTH",
"333 -14 OFFCURVE",
"351 -7 QCURVE SMOOTH",
"369 1 OFFCURVE",
"382 13 QCURVE SMOOTH",
"395 27 OFFCURVE",
"403 45 QCURVE SMOOTH",
"411 62 OFFCURVE",
"411 83 QCURVE",
"411 83 LINE"
);
}
);
width = 627;
}
);
note = exclam;
unicode = 0021;
},
{
glyphname = quotedbl;
layers = (
{
layerId = "1B5A2E6A-EA81-427B-BCB4-5148866553EF";
paths = (
{
closed = 1;
nodes = (
"470 503 OFFCURVE",
"470 546 QCURVE",
"495 557 OFFCURVE",
"510 581 QCURVE SMOOTH",
"526 605 OFFCURVE",
"526 635 QCURVE SMOOTH",
"526 654 OFFCURVE",
"519 672 QCURVE SMOOTH",
"511 690 OFFCURVE",
"498 702 QCURVE SMOOTH",
"484 716 OFFCURVE",
"466 723 QCURVE SMOOTH",
"449 731 OFFCURVE",
"429 731 QCURVE SMOOTH",
"409 731 OFFCURVE",
"391 723 QCURVE SMOOTH",
"374 716 OFFCURVE",
"360 702 QCURVE SMOOTH",
"347 690 OFFCURVE",
"339 672 QCURVE SMOOTH",
"332 654 OFFCURVE",
"332 635 QCURVE SMOOTH",
"332 605 OFFCURVE",
"348 581 QCURVE SMOOTH",
"364 557 OFFCURVE",
"388 546 QCURVE",
"388 450 OFFCURVE",
"388 418 QCURVE",
"450 418 OFFCURVE",
"470 418 QCURVE",
"470 418 LINE"
);
},
{
closed = 1;
nodes = (
"239 503 OFFCURVE",
"239 546 QCURVE",
"263 557 OFFCURVE",
"279 581 QCURVE SMOOTH",
"295 605 OFFCURVE",
"295 635 QCURVE SMOOTH",
"295 654 OFFCURVE",
"287 672 QCURVE SMOOTH",
"280 690 OFFCURVE",
"266 702 QCURVE SMOOTH",
"253 716 OFFCURVE",
"235 723 QCURVE SMOOTH",
"217 731 OFFCURVE",
"198 731 QCURVE SMOOTH",
"177 731 OFFCURVE",
"160 723 QCURVE SMOOTH",
"142 716 OFFCURVE",
"129 702 QCURVE SMOOTH",
"116 690 OFFCURVE",
"108 672 QCURVE SMOOTH",
"100 654 OFFCURVE",
"100 635 QCURVE SMOOTH",
"100 605 OFFCURVE",
"116 581 QCURVE SMOOTH",
"132 557 OFFCURVE",
"157 546 QCURVE",
"157 450 OFFCURVE",
"157 418 QCURVE",
"218 418 OFFCURVE",
"239 418 QCURVE",
"239 418 LINE"
);
}
);
width = 627;
}
);
note = quotedbl;
unicode = 0022;
},
{
glyphname = numbersign;
layers = (
{
layerId = "1B5A2E6A-EA81-427B-BCB4-5148866553EF";
paths = (
{
closed = 1;
nodes = (
"435 92 OFFCURVE",
"463 92 QCURVE",
"463 180 OFFCURVE",
"463 209 QCURVE",
"541 209 OFFCURVE",
"567 209 QCURVE",
"567 292 OFFCURVE",
"567 319 QCURVE",
"489 319 OFFCURVE",
"463 319 QCURVE",
"463 378 OFFCURVE",
"463 397 QCURVE",
"541 397 OFFCURVE",
"567 397 QCURVE",
"567 480 OFFCURVE",
"567 508 QCURVE",
"489 508 OFFCURVE",
"463 508 QCURVE",
"463 595 OFFCURVE",
"463 625 QCURVE",
"380 625 OFFCURVE",
"352 625 QCURVE",
"352 537 OFFCURVE",
"352 508 QCURVE",
"294 508 OFFCURVE",
"274 508 QCURVE",
"274 595 OFFCURVE",
"274 625 QCURVE",
"191 625 OFFCURVE",
"164 625 QCURVE",
"164 537 OFFCURVE",
"164 508 QCURVE",
"86 508 OFFCURVE",
"59 508 QCURVE",
"59 425 OFFCURVE",
"59 397 QCURVE",
"138 397 OFFCURVE",
"164 397 QCURVE",
"164 339 OFFCURVE",
"164 319 QCURVE",
"86 319 OFFCURVE",
"59 319 QCURVE",
"59 237 OFFCURVE",
"59 209 QCURVE",
"138 209 OFFCURVE",
"164 209 QCURVE",
"164 121 OFFCURVE",
"164 92 QCURVE",
"247 92 OFFCURVE",
"274 92 QCURVE",
"274 180 OFFCURVE",
"274 209 QCURVE",
"333 209 OFFCURVE",
"352 209 QCURVE",
"352 121 OFFCURVE",
"352 92 QCURVE",
"352 92 LINE"
);
},
{
closed = 1;
nodes = (
"352 339 OFFCURVE",
"352 319 QCURVE",
"294 319 OFFCURVE",
"274 319 QCURVE",
"274 378 OFFCURVE",
"274 397 QCURVE",
"333 397 OFFCURVE",
"352 397 QCURVE",
"352 397 LINE"
);
}
);
width = 627;
}
);
note = numbersign;
unicode = 0023;
},
{
glyphname = dollar;
layers = (
{
layerId = "1B5A2E6A-EA81-427B-BCB4-5148866553EF";
paths = (
{
closed = 1;
nodes = (
"362 671 OFFCURVE",
"362 688 QCURVE",
"289 688 OFFCURVE",
"264 688 QCURVE",
"264 645 OFFCURVE",
"264 624 QCURVE",
"233 618 OFFCURVE",
"206 607 QCURVE SMOOTH",
"178 596 OFFCURVE",
"158 577 QCURVE SMOOTH",
"137 558 OFFCURVE",
"125 532 QCURVE SMOOTH",
"113 506 OFFCURVE",
"113 471 QCURVE SMOOTH",
"113 467 OFFCURVE",
"113 465 QCURVE SMOOTH",
"113 400 OFFCURVE",
"153 367 QCURVE SMOOTH",
"194 333 OFFCURVE",
"264 321 QCURVE",
"264 247 OFFCURVE",
"264 210 QCURVE",
"242 220 OFFCURVE",
"232 238 QCURVE SMOOTH",
"223 255 OFFCURVE",
"223 279 QCURVE SMOOTH",
"223 289 OFFCURVE",
"223 293 QCURVE",
"136 293 OFFCURVE",
"106 293 QCURVE",
"106 279 OFFCURVE",
"106 272 QCURVE SMOOTH",
"106 242 OFFCURVE",
"116 212 QCURVE SMOOTH",
"125 183 OFFCURVE",
"143 160 QCURVE SMOOTH",
"163 136 OFFCURVE",
"193 119 QCURVE SMOOTH",
"222 102 OFFCURVE",
"264 95 QCURVE",
"264 45 OFFCURVE",
"264 29 QCURVE",
"338 29 OFFCURVE",
"362 29 QCURVE",
"362 71 OFFCURVE",
"362 92 QCURVE",
"437 101 OFFCURVE",
"479 144 QCURVE SMOOTH",
"520 187 OFFCURVE",
"520 256 QCURVE SMOOTH",
"520 260 OFFCURVE",
"520 262 QCURVE SMOOTH",
"520 391 OFFCURVE",
"362 413 QCURVE",
"362 474 OFFCURVE",
"362 505 QCURVE",
"378 497 OFFCURVE",
"385 485 QCURVE SMOOTH",
"391 473 OFFCURVE",
"391 461 QCURVE SMOOTH",
"391 450 OFFCURVE",
"391 446 QCURVE",
"479 446 OFFCURVE",
"508 446 QCURVE",
"508 456 OFFCURVE",
"508 461 QCURVE SMOOTH",
"508 520 OFFCURVE",
"470 563 QCURVE SMOOTH",
"432 606 OFFCURVE",
"362 621 QCURVE",
"362 621 LINE"
);
},
{
closed = 1;
nodes = (
"403 240 OFFCURVE",
"395 226 QCURVE SMOOTH",
"386 213 OFFCURVE",
"362 206 QCURVE",
"362 271 OFFCURVE",
"362 303 QCURVE",
"389 295 OFFCURVE",
"396 282 QCURVE SMOOTH",
"403 269 OFFCURVE",
"403 254 QCURVE",
"403 254 LINE"
);
},
{
closed = 1;
nodes = (
"229 482 OFFCURVE",
"238 493 QCURVE SMOOTH",
"246 504 OFFCURVE",
"264 510 QCURVE",
"264 456 OFFCURVE",
"264 429 QCURVE",
"242 437 OFFCURVE",
"236 447 QCURVE SMOOTH",
"229 457 OFFCURVE",
"229 471 QCURVE",
"229 471 LINE"
);
}
);
width = 627;
}
);
note = dollar;
unicode = 0024;
},
{
glyphname = percent;
layers = (
{
layerId = "1B5A2E6A-EA81-427B-BCB4-5148866553EF";
paths = (
{
closed = 1;
nodes = (
"346 612 OFFCURVE",
"333 641 QCURVE SMOOTH",
"319 669 OFFCURVE",
"297 688 QCURVE SMOOTH",
"275 709 OFFCURVE",
"247 719 QCURVE SMOOTH",
"219 729 OFFCURVE",
"189 729 QCURVE SMOOTH",
"160 729 OFFCURVE",
"132 719 QCURVE SMOOTH",
"103 709 OFFCURVE",
"81 688 QCURVE SMOOTH",
"59 669 OFFCURVE",
"46 641 QCURVE SMOOTH",
"33 612 OFFCURVE",
"33 575 QCURVE SMOOTH",
"33 539 OFFCURVE",
"46 510 QCURVE SMOOTH",
"59 482 OFFCURVE",
"81 462 QCURVE SMOOTH",
"103 442 OFFCURVE",
"132 432 QCURVE SMOOTH",
"160 422 OFFCURVE",
"189 422 QCURVE SMOOTH",
"219 422 OFFCURVE",
"247 432 QCURVE SMOOTH",
"275 442 OFFCURVE",
"297 462 QCURVE SMOOTH",
"319 482 OFFCURVE",
"333 510 QCURVE SMOOTH",
"346 539 OFFCURVE",
"346 575 QCURVE",
"346 575 LINE"
);
},
{
closed = 1;
nodes = (
"164 508 OFFCURVE",
"144 525 QCURVE SMOOTH",
"125 543 OFFCURVE",
"125 575 QCURVE SMOOTH",
"125 608 OFFCURVE",
"144 626 QCURVE SMOOTH",
"164 643 OFFCURVE",
"189 643 QCURVE SMOOTH",
"215 643 OFFCURVE",
"234 626 QCURVE SMOOTH",
"254 608 OFFCURVE",
"254 575 QCURVE SMOOTH",
"254 543 OFFCURVE",
"234 525 QCURVE SMOOTH",
"215 508 OFFCURVE",
"189 508 QCURVE",
"189 508 LINE"
);
},
{
closed = 1;
nodes = (
"594 178 OFFCURVE",
"581 206 QCURVE SMOOTH",
"567 234 OFFCURVE",
"545 254 QCURVE SMOOTH",
"523 274 OFFCURVE",
"495 285 QCURVE SMOOTH",
"467 295 OFFCURVE",
"437 295 QCURVE SMOOTH",
"408 295 OFFCURVE",
"379 285 QCURVE SMOOTH",
"351 274 OFFCURVE",
"329 254 QCURVE SMOOTH",
"307 234 OFFCURVE",
"294 206 QCURVE SMOOTH",
"281 178 OFFCURVE",
"281 141 QCURVE SMOOTH",
"281 104 OFFCURVE",
"294 76 QCURVE SMOOTH",
"307 48 OFFCURVE",
"329 28 QCURVE SMOOTH",
"351 8 OFFCURVE",
"379 -2 QCURVE SMOOTH",
"408 -12 OFFCURVE",
"437 -12 QCURVE SMOOTH",
"467 -12 OFFCURVE",
"495 -2 QCURVE SMOOTH",
"523 8 OFFCURVE",
"545 28 QCURVE SMOOTH",
"567 48 OFFCURVE",
"581 76 QCURVE SMOOTH",
"594 104 OFFCURVE",
"594 141 QCURVE",
"594 141 LINE"
);
},
{
closed = 1;
nodes = (
"412 74 OFFCURVE",
"392 91 QCURVE SMOOTH",
"373 109 OFFCURVE",
"373 141 QCURVE SMOOTH",
"373 174 OFFCURVE",
"392 191 QCURVE SMOOTH",
"412 209 OFFCURVE",
"437 209 QCURVE SMOOTH",
"463 209 OFFCURVE",
"482 191 QCURVE SMOOTH",
"502 174 OFFCURVE",
"502 141 QCURVE SMOOTH",
"502 109 OFFCURVE",
"482 91 QCURVE SMOOTH",
"463 74 OFFCURVE",
"437 74 QCURVE",
"437 74 LINE"
);
},
{
closed = 1;
nodes = (
"171 336 OFFCURVE",
"50 274 QCURVE",
"82 215 OFFCURVE",
"92 195 QCURVE",
"455 380 OFFCURVE",
"575 442 QCURVE",
"544 502 OFFCURVE",
"534 522 QCURVE",
"534 522 LINE"
);
}
);
width = 627;
}
);
note = percent;
unicode = 0025;
},
{
glyphname = ampersand;
layers = (
{
layerId = "1B5A2E6A-EA81-427B-BCB4-5148866553EF";
paths = (
{
closed = 1;
nodes = (
"382 167 OFFCURVE",
"382 123 QCURVE",
"306 123 OFFCURVE",
"268 123 QCURVE SMOOTH",
"225 123 OFFCURVE",
"199 144 QCURVE SMOOTH",
"172 166 OFFCURVE",
"172 209 QCURVE SMOOTH",
"172 213 OFFCURVE",
"172 215 QCURVE SMOOTH",
"172 258 OFFCURVE",
"199 280 QCURVE SMOOTH",
"225 301 OFFCURVE",
"268 301 QCURVE SMOOTH",
"354 301 OFFCURVE",
"382 301 QCURVE",
"382 301 LINE"
);
},
{
closed = 1;
nodes = (
"414 508 OFFCURVE",
"382 508 QCURVE",
"382 445 OFFCURVE",
"382 424 QCURVE",
"306 424 OFFCURVE",
"268 424 QCURVE SMOOTH",
"225 424 OFFCURVE",
"199 443 QCURVE SMOOTH",
"172 463 OFFCURVE",
"172 506 QCURVE SMOOTH",
"172 510 OFFCURVE",
"172 512 QCURVE SMOOTH",
"172 554 OFFCURVE",
"199 574 QCURVE SMOOTH",
"225 594 OFFCURVE",
"268 594 QCURVE SMOOTH",
"342 594 OFFCURVE",
"367 594 QCURVE",
"367 686 OFFCURVE",
"367 717 QCURVE",
"292 717 OFFCURVE",
"255 717 QCURVE SMOOTH",
"204 717 OFFCURVE",
"164 702 QCURVE SMOOTH",
"124 688 OFFCURVE",
"97 664 QCURVE SMOOTH",
"71 639 OFFCURVE",
"57 605 QCURVE SMOOTH",
"43 570 OFFCURVE",
"43 530 QCURVE SMOOTH",
"43 522 OFFCURVE",
"43 518 QCURVE SMOOTH",
"43 457 OFFCURVE",
"77 420 QCURVE SMOOTH",
"112 383 OFFCURVE",
"164 369 QCURVE",
"164 356 OFFCURVE",
"164 350 QCURVE",
"112 336 OFFCURVE",
"77 298 QCURVE SMOOTH",
"43 261 OFFCURVE",
"43 200 QCURVE SMOOTH",
"43 191 OFFCURVE",
"43 187 QCURVE SMOOTH",
"43 147 OFFCURVE",
"57 113 QCURVE SMOOTH",
"71 79 OFFCURVE",
"97 53 QCURVE SMOOTH",
"124 29 OFFCURVE",
"164 14 QCURVE SMOOTH",
"204 0 OFFCURVE",
"255 0 QCURVE SMOOTH",
"447 0 OFFCURVE",
"511 0 QCURVE",
"511 221 OFFCURVE",
"511 295 QCURVE",
"582 295 OFFCURVE",
"605 295 QCURVE",
"605 392 OFFCURVE",
"605 424 QCURVE",
"535 424 OFFCURVE",
"511 424 QCURVE",
"511 487 OFFCURVE",
"511 508 QCURVE",
"511 508 LINE"
);
}
);
width = 627;
}
);
note = ampersand;
unicode = 0026;
},
{
glyphname = quotesingle;
layers = (
{
layerId = "1B5A2E6A-EA81-427B-BCB4-5148866553EF";
paths = (
{
closed = 1;
nodes = (
"273 450 OFFCURVE",
"273 418 QCURVE",
"333 418 OFFCURVE",
"353 418 QCURVE",
"353 503 OFFCURVE",
"353 546 QCURVE",
"378 557 OFFCURVE",
"394 581 QCURVE SMOOTH",
"410 605 OFFCURVE",
"410 635 QCURVE SMOOTH",
"410 654 OFFCURVE",
"402 672 QCURVE SMOOTH",
"394 690 OFFCURVE",
"381 702 QCURVE",
"369 716 OFFCURVE",
"351 723 QCURVE SMOOTH",
"333 731 OFFCURVE",
"313 731 QCURVE SMOOTH",
"293 731 OFFCURVE",
"275 723 QCURVE SMOOTH",
"258 716 OFFCURVE",
"245 702 QCURVE SMOOTH",
"231 690 OFFCURVE",
"224 672 QCURVE SMOOTH",
"216 654 OFFCURVE",
"216 635 QCURVE SMOOTH",
"216 605 OFFCURVE",
"232 581 QCURVE SMOOTH",
"248 557 OFFCURVE",
"273 546 QCURVE",
"273 546 LINE"
);
}
);
width = 627;
}
);
note = quotesingle;
unicode = 0027;
},
{
glyphname = parenleft;
layers = (
{
layerId = "1B5A2E6A-EA81-427B-BCB4-5148866553EF";
paths = (
{
closed = 1;
nodes = (
"559 -31 OFFCURVE",
"547 -31 QCURVE SMOOTH",
"494 -31 OFFCURVE",
"449 -16 QCURVE SMOOTH",
"403 -2 OFFCURVE",
"370 30 QCURVE SMOOTH",
"337 61 OFFCURVE",
"318 111 QCURVE SMOOTH",
"299 161 OFFCURVE",
"299 231 QCURVE SMOOTH",
"299 401 OFFCURVE",
"299 485 QCURVE SMOOTH",
"299 556 OFFCURVE",
"318 606 QCURVE SMOOTH",
"337 655 OFFCURVE",
"370 687 QCURVE SMOOTH",
"403 719 OFFCURVE",
"449 733 QCURVE SMOOTH",
"494 748 OFFCURVE",
"547 748 QCURVE SMOOTH",
"574 748 OFFCURVE",
"584 748 QCURVE",
"584 844 OFFCURVE",
"584 877 QCURVE",
"555 877 OFFCURVE",
"541 877 QCURVE SMOOTH",
"465 877 OFFCURVE",
"397 855 QCURVE SMOOTH",
"329 833 OFFCURVE",
"278 785 QCURVE SMOOTH",
"226 739 OFFCURVE",
"196 667 QCURVE SMOOTH",
"166 594 OFFCURVE",
"166 494 QCURVE SMOOTH",
"166 313 OFFCURVE",
"166 223 QCURVE SMOOTH",
"166 123 OFFCURVE",
"196 50 QCURVE SMOOTH",
"226 -23 OFFCURVE",
"278 -69 QCURVE SMOOTH",
"329 -116 OFFCURVE",
"397 -138 QCURVE SMOOTH",
"465 -160 OFFCURVE",
"541 -160 QCURVE SMOOTH",
"573 -160 OFFCURVE",
"584 -160 QCURVE",
"584 -63 OFFCURVE",
"584 -31 QCURVE",
"584 -31 LINE"
);
}
);
width = 627;
}
);
note = parenleft;
unicode = 0028;
},
{
glyphname = parenright;
layers = (
{
layerId = "1B5A2E6A-EA81-427B-BCB4-5148866553EF";
paths = (
{
closed = 1;
nodes = (
"52 -31 OFFCURVE",
"43 -31 QCURVE",
"43 -127 OFFCURVE",
"43 -160 QCURVE",
"72 -160 OFFCURVE",
"86 -160 QCURVE SMOOTH",
"162 -160 OFFCURVE",
"230 -138 QCURVE SMOOTH",
"298 -116 OFFCURVE",
"349 -69 QCURVE SMOOTH",
"400 -23 OFFCURVE",
"431 50 QCURVE SMOOTH",
"461 123 OFFCURVE",
"461 223 QCURVE SMOOTH",
"461 403 OFFCURVE",
"461 494 QCURVE SMOOTH",
"461 594 OFFCURVE",
"431 667 QCURVE SMOOTH",
"400 739 OFFCURVE",
"349 785 QCURVE SMOOTH",
"298 833 OFFCURVE",
"230 855 QCURVE SMOOTH",
"162 877 OFFCURVE",
"86 877 QCURVE SMOOTH",
"54 877 OFFCURVE",
"43 877 QCURVE",
"43 780 OFFCURVE",
"43 748 QCURVE",
"68 748 OFFCURVE",
"80 748 QCURVE SMOOTH",
"133 748 OFFCURVE",
"178 733 QCURVE SMOOTH",
"223 719 OFFCURVE",
"256 687 QCURVE SMOOTH",
"290 655 OFFCURVE",
"309 606 QCURVE SMOOTH",
"328 556 OFFCURVE",
"328 485 QCURVE SMOOTH",
"328 316 OFFCURVE",
"328 231 QCURVE SMOOTH",
"328 161 OFFCURVE",
"309 111 QCURVE SMOOTH",
"290 61 OFFCURVE",
"256 30 QCURVE SMOOTH",
"223 -2 OFFCURVE",
"178 -16 QCURVE SMOOTH",
"133 -31 OFFCURVE",
"80 -31 QCURVE",
"80 -31 LINE"
);
}
);
width = 627;
}
);
note = parenright;
unicode = 0029;
},
{
glyphname = asterisk;
layers = (
{
layerId = "1B5A2E6A-EA81-427B-BCB4-5148866553EF";
paths = (
{
closed = 1;
nodes = (
"510 196 OFFCURVE",
"527 213 QCURVE",
"471 269 OFFCURVE",
"453 288 QCURVE",
"396 313 OFFCURVE",
"377 322 QCURVE",
"382 334 OFFCURVE",
"384 338 QCURVE",
"440 316 OFFCURVE",
"459 309 QCURVE",
"540 309 OFFCURVE",
"567 309 QCURVE",
"567 383 OFFCURVE",
"567 408 QCURVE",
"486 408 OFFCURVE",
"459 408 QCURVE",
"403 386 OFFCURVE",
"384 379 QCURVE",
"379 391 OFFCURVE",
"377 395 QCURVE",
"434 421 OFFCURVE",
"453 429 QCURVE",
"509 485 OFFCURVE",
"527 504 QCURVE",
"476 555 OFFCURVE",
"459 572 QCURVE",
"403 516 OFFCURVE",
"384 498 QCURVE",
"359 441 OFFCURVE",
"350 422 QCURVE",
"338 427 OFFCURVE",
"334 429 QCURVE",
"355 485 OFFCURVE",
"362 504 QCURVE",
"362 585 OFFCURVE",
"362 612 QCURVE",
"289 612 OFFCURVE",
"264 612 QCURVE",
"264 531 OFFCURVE",
"264 504 QCURVE",
"286 448 OFFCURVE",
"293 429 QCURVE",
"281 424 OFFCURVE",
"276 422 QCURVE",
"251 479 OFFCURVE",
"243 498 QCURVE",
"187 554 OFFCURVE",
"168 572 QCURVE",
"116 521 OFFCURVE",
"99 504 QCURVE",
"155 448 OFFCURVE",
"174 429 QCURVE",
"231 404 OFFCURVE",
"250 395 QCURVE",
"244 383 OFFCURVE",
"243 379 QCURVE",
"187 400 OFFCURVE",
"168 408 QCURVE",
"87 408 OFFCURVE",
"59 408 QCURVE",
"59 334 OFFCURVE",
"59 309 QCURVE",
"141 309 OFFCURVE",
"168 309 QCURVE",
"224 331 OFFCURVE",
"243 338 QCURVE",
"248 326 OFFCURVE",
"250 322 QCURVE",
"193 296 OFFCURVE",
"174 288 QCURVE",
"118 232 OFFCURVE",
"99 213 QCURVE",
"151 162 OFFCURVE",
"168 144 QCURVE",
"224 200 OFFCURVE",
"243 219 QCURVE",
"268 276 OFFCURVE",
"276 295 QCURVE",
"289 290 OFFCURVE",
"293 288 QCURVE",
"271 232 OFFCURVE",
"264 213 QCURVE",
"264 132 OFFCURVE",
"264 104 QCURVE",
"338 104 OFFCURVE",
"362 104 QCURVE",
"362 186 OFFCURVE",
"362 213 QCURVE",
"341 269 OFFCURVE",
"334 288 QCURVE",
"346 293 OFFCURVE",
"350 295 QCURVE",
"376 238 OFFCURVE",
"384 219 QCURVE",
"440 163 OFFCURVE",
"459 144 QCURVE",
"459 144 LINE"
);
}
);
width = 627;
}
);
note = asterisk;
unicode = 002A;
},
{
glyphname = plus;
layers = (
{
layerId = "1B5A2E6A-EA81-427B-BCB4-5148866553EF";
paths = (
{
closed = 1;
nodes = (
"99 329 OFFCURVE",
"99 300 QCURVE",
"216 300 OFFCURVE",
"255 300 QCURVE",
"255 183 OFFCURVE",
"255 144 QCURVE",
"343 144 OFFCURVE",
"372 144 QCURVE",
"372 261 OFFCURVE",
"372 300 QCURVE",
"488 300 OFFCURVE",
"527 300 QCURVE",
"527 388 OFFCURVE",
"527 417 QCURVE",
"411 417 OFFCURVE",
"372 417 QCURVE",
"372 534 OFFCURVE",
"372 572 QCURVE",
"284 572 OFFCURVE",
"255 572 QCURVE",
"255 456 OFFCURVE",
"255 417 QCURVE",
"138 417 OFFCURVE",
"99 417 QCURVE",
"99 417 LINE"
);
}
);
width = 627;
}
);
note = plus;
unicode = 002B;
},
{
glyphname = comma;
layers = (
{
layerId = "1B5A2E6A-EA81-427B-BCB4-5148866553EF";
paths = (
{
closed = 1;
nodes = (
"216 62 OFFCURVE",
"224 45 QCURVE SMOOTH",
"231 28 OFFCURVE",
"245 14 QCURVE SMOOTH",
"258 1 OFFCURVE",
"275 -7 QCURVE SMOOTH",
"293 -14 OFFCURVE",
"313 -14 QCURVE SMOOTH",
"323 -14 OFFCURVE",
"331 -11 QCURVE",
"331 -19 OFFCURVE",
"331 -24 QCURVE SMOOTH",
"331 -54 OFFCURVE",
"303 -54 QCURVE SMOOTH",
"266 -54 OFFCURVE",
"254 -54 QCURVE",
"254 -114 OFFCURVE",
"254 -134 QCURVE",
"298 -134 OFFCURVE",
"319 -134 QCURVE SMOOTH",
"358 -134 OFFCURVE",
"385 -108 QCURVE SMOOTH",
"411 -81 OFFCURVE",
"411 -42 QCURVE SMOOTH",
"411 41 OFFCURVE",
"411 83 QCURVE SMOOTH",
"411 102 OFFCURVE",
"403 120 QCURVE SMOOTH",
"395 138 OFFCURVE",
"382 151 QCURVE SMOOTH",
"369 164 OFFCURVE",
"351 172 QCURVE SMOOTH",
"333 179 OFFCURVE",
"313 179 QCURVE SMOOTH",
"293 179 OFFCURVE",
"275 172 QCURVE SMOOTH",
"258 164 OFFCURVE",
"245 151 QCURVE SMOOTH",
"231 138 OFFCURVE",
"224 120 QCURVE SMOOTH",
"216 102 OFFCURVE",
"216 83 QCURVE",
"216 83 LINE"
);
}
);
width = 627;
}
);
note = comma;
unicode = 002C;
},
{
glyphname = hyphen;
layers = (
{
layerId = "1B5A2E6A-EA81-427B-BCB4-5148866553EF";
paths = (
{
closed = 1;
nodes = (
"154 252 OFFCURVE",
"154 223 QCURVE",
"393 223 OFFCURVE",
"473 223 QCURVE",
"473 311 OFFCURVE",
"473 340 QCURVE",
"233 340 OFFCURVE",
"154 340 QCURVE",
"154 340 LINE"
);
}
);
width = 627;
}
);
note = hyphen;
unicode = 002D;
},
{
glyphname = period;
layers = (
{
layerId = "1B5A2E6A-EA81-427B-BCB4-5148866553EF";
paths = (
{
closed = 1;
nodes = (
"411 103 OFFCURVE",
"403 121 QCURVE SMOOTH",
"395 139 OFFCURVE",
"382 152 QCURVE SMOOTH",
"369 165 OFFCURVE",
"351 173 QCURVE SMOOTH",
"333 180 OFFCURVE",
"313 180 QCURVE SMOOTH",
"293 180 OFFCURVE",
"275 173 QCURVE SMOOTH",
"258 165 OFFCURVE",
"245 152 QCURVE SMOOTH",
"231 139 OFFCURVE",
"224 121 QCURVE SMOOTH",
"216 103 OFFCURVE",
"216 83 QCURVE SMOOTH",
"216 62 OFFCURVE",
"224 45 QCURVE SMOOTH",
"231 27 OFFCURVE",
"245 13 QCURVE SMOOTH",
"258 1 OFFCURVE",
"275 -7 QCURVE SMOOTH",
"293 -14 OFFCURVE",
"313 -14 QCURVE SMOOTH",
"333 -14 OFFCURVE",
"351 -7 QCURVE SMOOTH",
"369 1 OFFCURVE",
"382 13 QCURVE SMOOTH",
"395 27 OFFCURVE",
"403 45 QCURVE SMOOTH",
"411 62 OFFCURVE",
"411 83 QCURVE",
"411 83 LINE"
);
}
);
width = 627;
}
);
note = period;
unicode = 002E;
},
{
glyphname = slash;
layers = (
{
layerId = "1B5A2E6A-EA81-427B-BCB4-5148866553EF";
paths = (
{
closed = 1;
nodes = (
"178 143 OFFCURVE",
"101 -91 QCURVE",
"190 -119 OFFCURVE",
"219 -128 QCURVE",
"449 574 OFFCURVE",
"525 808 QCURVE",
"438 836 OFFCURVE",
"409 845 QCURVE",
"409 845 LINE"
);
}
);
width = 627;
}
);
note = slash;
unicode = 002F;
},
{
glyphname = zero;
lastChange = "2020-04-27 17:01:48 +0000";
layers = (
{
layerId = "1B5A2E6A-EA81-427B-BCB4-5148866553EF";
paths = (
{
closed = 1;
nodes = (
"49 332 OFFCURVE",
"49 279 QCURVE SMOOTH",
"49 135 OFFCURVE",
"119 60 QCURVE SMOOTH",
"189 -14 OFFCURVE",
"313 -14 QCURVE SMOOTH",
"437 -14 OFFCURVE",
"507 60 QCURVE SMOOTH",
"578 135 OFFCURVE",
"578 279 QCURVE SMOOTH",
"578 385 OFFCURVE",
"578 438 QCURVE SMOOTH",
"578 578 OFFCURVE",
"507 654 QCURVE SMOOTH",
"437 731 OFFCURVE",
"313 731 QCURVE SMOOTH",
"189 731 OFFCURVE",
"119 654 QCURVE SMOOTH",
"49 578 OFFCURVE",
"49 438 QCURVE",
"49 438 LINE"
);
},
{
closed = 1;
nodes = (
"276 109 OFFCURVE",
"252 120 QCURVE SMOOTH",
"227 132 OFFCURVE",
"212 154 QCURVE SMOOTH",
"197 175 OFFCURVE",
"190 205 QCURVE SMOOTH",
"184 234 OFFCURVE",
"184 270 QCURVE SMOOTH",
"184 388 OFFCURVE",
"184 446 QCURVE SMOOTH",
"184 480 OFFCURVE",
"191 510 QCURVE SMOOTH",
"199 540 OFFCURVE",
"214 561 QCURVE SMOOTH",
"229 583 OFFCURVE",
"254 595 QCURVE SMOOTH",
"279 608 OFFCURVE",
"313 608 QCURVE SMOOTH",
"348 608 OFFCURVE",
"373 595 QCURVE SMOOTH",
"397 583 OFFCURVE",
"413 561 QCURVE SMOOTH",
"428 540 OFFCURVE",
"435 510 QCURVE SMOOTH",
"442 480 OFFCURVE",
"442 446 QCURVE SMOOTH",
"442 329 OFFCURVE",
"442 270 QCURVE SMOOTH",
"442 234 OFFCURVE",
"436 205 QCURVE SMOOTH",
"430 175 OFFCURVE",
"415 154 QCURVE SMOOTH",
"399 132 OFFCURVE",
"375 120 QCURVE SMOOTH",
"350 109 OFFCURVE",
"313 109 QCURVE",
"313 109 LINE"
);
}
);
width = 627;
}
);
note = zero;
unicode = 0030;
},
{
glyphname = one;
layers = (
{
layerId = "1B5A2E6A-EA81-427B-BCB4-5148866553EF";
paths = (
{
closed = 1;
nodes = (
"118 129 OFFCURVE",
"68 129 QCURVE",
"68 32 OFFCURVE",
"68 0 QCURVE",
"455 0 OFFCURVE",
"584 0 QCURVE",
"584 97 OFFCURVE",
"584 129 QCURVE",
"450 129 OFFCURVE",
"406 129 QCURVE",
"406 570 OFFCURVE",
"406 717 QCURVE",
"207 717 OFFCURVE",
"141 717 QCURVE",
"77 491 OFFCURVE",
"55 416 QCURVE",
"55 407 OFFCURVE",
"55 403 QCURVE",
"152 403 OFFCURVE",
"184 403 QCURVE",
"235 588 OFFCURVE",
"252 649 QCURVE",
"266 649 OFFCURVE",
"270 649 QCURVE",
"270 259 OFFCURVE",
"270 129 QCURVE",
"270 129 LINE"
);
}
);
width = 627;
}
);
note = one;
unicode = 0031;
},
{
glyphname = two;
layers = (
{
layerId = "1B5A2E6A-EA81-427B-BCB4-5148866553EF";
paths = (
{
closed = 1;
nodes = (
"294 129 OFFCURVE",
"202 129 QCURVE",
"202 137 OFFCURVE",
"202 141 QCURVE SMOOTH",
"202 163 OFFCURVE",
"208 180 QCURVE SMOOTH",
"215 197 OFFCURVE",
"232 211 QCURVE SMOOTH",
"250 225 OFFCURVE",
"281 237 QCURVE SMOOTH",
"312 249 OFFCURVE",
"360 260 QCURVE SMOOTH",
"475 287 OFFCURVE",
"526 346 QCURVE SMOOTH",
"577 406 OFFCURVE",
"577 496 QCURVE SMOOTH",
"577 504 OFFCURVE",
"577 508 QCURVE SMOOTH",
"577 551 OFFCURVE",
"561 591 QCURVE SMOOTH",
"545 632 OFFCURVE",
"512 663 QCURVE SMOOTH",
"480 693 OFFCURVE",
"432 712 QCURVE SMOOTH",
"384 731 OFFCURVE",
"319 731 QCURVE SMOOTH",
"259 731 OFFCURVE",
"211 711 QCURVE SMOOTH",
"163 691 OFFCURVE",
"129 656 QCURVE SMOOTH",
"96 623 OFFCURVE",
"78 577 QCURVE SMOOTH",
"60 531 OFFCURVE",
"60 481 QCURVE SMOOTH",
"60 438 OFFCURVE",
"60 424 QCURVE",
"162 424 OFFCURVE",
"196 424 QCURVE",
"196 454 OFFCURVE",
"196 469 QCURVE SMOOTH",
"196 531 OFFCURVE",
"230 567 QCURVE SMOOTH",
"265 602 OFFCURVE",
"324 602 QCURVE SMOOTH",
"379 602 OFFCURVE",
"410 573 QCURVE SMOOTH",
"441 545 OFFCURVE",
"441 502 QCURVE SMOOTH",
"441 479 OFFCURVE",
"436 461 QCURVE SMOOTH",
"430 443 OFFCURVE",
"415 428 QCURVE SMOOTH",
"399 414 OFFCURVE",
"373 402 QCURVE SMOOTH",
"347 390 OFFCURVE",
"306 381 QCURVE SMOOTH",
"251 369 OFFCURVE",
"207 351 QCURVE SMOOTH",
"163 333 OFFCURVE",
"131 305 QCURVE SMOOTH",
"100 278 OFFCURVE",
"83 238 QCURVE SMOOTH",
"67 198 OFFCURVE",
"67 141 QCURVE SMOOTH",
"67 35 OFFCURVE",
"67 0 QCURVE",
"444 0 OFFCURVE",
"570 0 QCURVE",
"570 97 OFFCURVE",
"570 129 QCURVE",
"570 129 LINE"
);
}
);
width = 627;
}
);
note = two;
unicode = 0032;
},
{
glyphname = three;
layers = (
{
layerId = "1B5A2E6A-EA81-427B-BCB4-5148866553EF";
paths = (
{
closed = 1;
nodes = (
"297 307 OFFCURVE",
"324 307 QCURVE SMOOTH",
"372 307 OFFCURVE",
"403 285 QCURVE SMOOTH",
"434 263 OFFCURVE",
"434 215 QCURVE SMOOTH",
"434 170 OFFCURVE",
"405 142 QCURVE SMOOTH",
"376 115 OFFCURVE",
"322 115 QCURVE SMOOTH",
"258 115 OFFCURVE",
"226 151 QCURVE SMOOTH",
"195 186 OFFCURVE",
"195 236 QCURVE SMOOTH",
"195 263 OFFCURVE",
"195 272 QCURVE",
"93 272 OFFCURVE",
"59 272 QCURVE",
"59 244 OFFCURVE",
"59 229 QCURVE SMOOTH",
"59 180 OFFCURVE",
"78 136 QCURVE SMOOTH",
"96 92 OFFCURVE",
"130 58 QCURVE SMOOTH",
"165 25 OFFCURVE",
"214 5 QCURVE SMOOTH",
"263 -14 OFFCURVE",
"324 -14 QCURVE SMOOTH",
"383 -14 OFFCURVE",
"429 3 QCURVE SMOOTH",
"475 20 OFFCURVE",
"506 50 QCURVE SMOOTH",
"538 81 OFFCURVE",
"553 122 QCURVE SMOOTH",
"569 163 OFFCURVE",
"569 211 QCURVE SMOOTH",
"569 219 OFFCURVE",
"569 223 QCURVE SMOOTH",
"569 272 OFFCURVE",
"552 309 QCURVE SMOOTH",
"535 345 OFFCURVE",
"506 370 QCURVE SMOOTH",
"478 394 OFFCURVE",
"441 406 QCURVE SMOOTH",
"404 418 OFFCURVE",
"367 418 QCURVE SMOOTH",
"348 418 OFFCURVE",
"342 418 QCURVE",
"342 432 OFFCURVE",
"342 436 QCURVE",
"485 478 OFFCURVE",
"532 492 QCURVE",
"532 660 OFFCURVE",
"532 717 QCURVE",
"182 717 OFFCURVE",
"66 717 QCURVE",
"66 620 OFFCURVE",
"66 588 QCURVE",
"333 588 OFFCURVE",
"422 588 QCURVE",
"422 574 OFFCURVE",
"422 569 QCURVE",
"288 532 OFFCURVE",
"244 520 QCURVE",
"244 360 OFFCURVE",
"244 307 QCURVE",
"244 307 LINE"
);
}
);
width = 627;
}
);
note = three;
unicode = 0033;
},
{
glyphname = four;
layers = (
{
layerId = "1B5A2E6A-EA81-427B-BCB4-5148866553EF";
paths = (
{
closed = 1;
nodes = (
"89 420 OFFCURVE",
"39 322 QCURVE",
"39 182 OFFCURVE",
"39 135 QCURVE",
"279 135 OFFCURVE",
"358 135 QCURVE",
"358 34 OFFCURVE",
"358 0 QCURVE",
"460 0 OFFCURVE",
"494 0 QCURVE",
"494 101 OFFCURVE",
"494 135 QCURVE",
"572 135 OFFCURVE",
"598 135 QCURVE",
"598 232 OFFCURVE",
"598 264 QCURVE",
"520 264 OFFCURVE",
"494 264 QCURVE",
"494 604 OFFCURVE",
"494 717 QCURVE",
"302 717 OFFCURVE",
"238 717 QCURVE",
"238 717 LINE"
);
},
{
closed = 1;
nodes = (
"294 558 OFFCURVE",
"340 649 QCURVE",
"354 649 OFFCURVE",
"358 649 QCURVE",
"358 360 OFFCURVE",
"358 264 QCURVE",
"206 264 OFFCURVE",
"156 264 QCURVE",
"156 278 OFFCURVE",
"156 283 QCURVE",
"156 283 LINE"
);
}
);
width = 627;
}
);
note = four;
unicode = 0034;
},
{
glyphname = five;
layers = (
{
layerId = "1B5A2E6A-EA81-427B-BCB4-5148866553EF";
paths = (
{
closed = 1;
nodes = (
"215 319 OFFCURVE",
"289 319 QCURVE",
"294 337 OFFCURVE",
"312 350 QCURVE SMOOTH",
"331 362 OFFCURVE",
"360 362 QCURVE SMOOTH",
"406 362 OFFCURVE",
"433 333 QCURVE SMOOTH",
"461 304 OFFCURVE",
"461 246 QCURVE SMOOTH",
"461 184 OFFCURVE",
"423 150 QCURVE SMOOTH",
"386 115 OFFCURVE",
"322 115 QCURVE SMOOTH",
"257 115 OFFCURVE",
"224 150 QCURVE SMOOTH",
"190 185 OFFCURVE",
"190 240 QCURVE SMOOTH",
"190 249 OFFCURVE",
"190 252 QCURVE",
"89 252 OFFCURVE",
"55 252 QCURVE",
"55 236 OFFCURVE",
"55 227 QCURVE SMOOTH",
"55 175 OFFCURVE",
"73 131 QCURVE SMOOTH",
"91 86 OFFCURVE",
"125 53 QCURVE SMOOTH",
"160 22 OFFCURVE",
"210 4 QCURVE SMOOTH",
"260 -14 OFFCURVE",
"326 -14 QCURVE SMOOTH",
"391 -14 OFFCURVE",
"441 7 QCURVE SMOOTH",
"492 29 OFFCURVE",
"525 65 QCURVE SMOOTH",
"560 101 OFFCURVE",
"578 150 QCURVE SMOOTH",
"596 198 OFFCURVE",
"596 252 QCURVE SMOOTH",
"596 256 OFFCURVE",
"596 258 QCURVE SMOOTH",
"596 309 OFFCURVE",
"581 352 QCURVE SMOOTH",
"566 395 OFFCURVE",
"539 426 QCURVE SMOOTH",
"511 457 OFFCURVE",
"471 474 QCURVE SMOOTH",
"431 492 OFFCURVE",
"381 492 QCURVE SMOOTH",
"314 492 OFFCURVE",
"275 462 QCURVE SMOOTH",
"236 433 OFFCURVE",
"221 393 QCURVE",
"207 393 OFFCURVE",
"203 393 QCURVE",
"203 539 OFFCURVE",
"203 588 QCURVE",
"461 588 OFFCURVE",
"547 588 QCURVE",
"547 685 OFFCURVE",
"547 717 QCURVE",
"187 717 OFFCURVE",
"68 717 QCURVE",
"68 419 OFFCURVE",
"68 319 QCURVE",
"68 319 LINE"
);
}
);
width = 627;
}
);
note = five;
unicode = 0035;
},
{
glyphname = six;
layers = (
{
layerId = "1B5A2E6A-EA81-427B-BCB4-5148866553EF";
paths = (
{
closed = 1;
nodes = (
"511 514 OFFCURVE",
"556 514 QCURVE",
"556 564 OFFCURVE",
"537 605 QCURVE SMOOTH",
"518 645 OFFCURVE",
"484 673 QCURVE SMOOTH",
"452 701 OFFCURVE",
"407 716 QCURVE SMOOTH",
"362 731 OFFCURVE",
"311 731 QCURVE SMOOTH",
"260 731 OFFCURVE",
"215 714 QCURVE SMOOTH",
"169 696 OFFCURVE",
"134 664 QCURVE SMOOTH",
"99 632 OFFCURVE",
"79 586 QCURVE SMOOTH",
"58 540 OFFCURVE",
"58 483 QCURVE SMOOTH",
"58 309 OFFCURVE",
"58 222 QCURVE SMOOTH",
"58 170 OFFCURVE",
"78 126 QCURVE SMOOTH",
"98 83 OFFCURVE",
"132 51 QCURVE SMOOTH",
"167 20 OFFCURVE",
"214 3 QCURVE SMOOTH",
"260 -14 OFFCURVE",
"313 -14 QCURVE SMOOTH",
"372 -14 OFFCURVE",
"419 4 QCURVE SMOOTH",
"466 23 OFFCURVE",
"499 55 QCURVE SMOOTH",
"532 88 OFFCURVE",
"550 134 QCURVE SMOOTH",
"568 179 OFFCURVE",
"568 233 QCURVE SMOOTH",
"568 242 OFFCURVE",
"568 246 QCURVE SMOOTH",
"568 299 OFFCURVE",
"552 341 QCURVE SMOOTH",
"536 383 OFFCURVE",
"507 412 QCURVE SMOOTH",
"478 441 OFFCURVE",
"439 457 QCURVE SMOOTH",
"400 473 OFFCURVE",
"356 473 QCURVE SMOOTH",
"307 473 OFFCURVE",
"268 451 QCURVE SMOOTH",
"229 429 OFFCURVE",
"212 393 QCURVE",
"198 393 OFFCURVE",
"194 393 QCURVE",
"194 455 OFFCURVE",
"194 485 QCURVE SMOOTH",
"194 538 OFFCURVE",
"226 570 QCURVE SMOOTH",
"258 602 OFFCURVE",
"313 602 QCURVE SMOOTH",
"369 602 OFFCURVE",
"395 576 QCURVE SMOOTH",
"421 550 OFFCURVE",
"421 514 QCURVE",
"421 514 LINE"
);
},
{
closed = 1;
nodes = (
"261 115 OFFCURVE",
"227 146 QCURVE SMOOTH",
"194 177 OFFCURVE",
"194 229 QCURVE SMOOTH",
"194 282 OFFCURVE",
"227 313 QCURVE SMOOTH",
"261 344 OFFCURVE",
"313 344 QCURVE SMOOTH",
"366 344 OFFCURVE",
"399 313 QCURVE SMOOTH",
"433 282 OFFCURVE",
"433 229 QCURVE SMOOTH",
"433 177 OFFCURVE",
"399 146 QCURVE SMOOTH",
"366 115 OFFCURVE",
"313 115 QCURVE",
"313 115 LINE"
);
}
);
width = 627;
}
);
note = six;
unicode = 0036;
},
{
glyphname = seven;
layers = (
{
layerId = "1B5A2E6A-EA81-427B-BCB4-5148866553EF";
paths = (
{
closed = 1;
nodes = (
"61 620 OFFCURVE",
"61 588 QCURVE",
"347 588 OFFCURVE",
"442 588 QCURVE",
"442 574 OFFCURVE",
"442 569 QCURVE",
"264 309 OFFCURVE",
"175 178 QCURVE SMOOTH",
"159 154 OFFCURVE",
"147 135 QCURVE SMOOTH",
"136 117 OFFCURVE",
"129 100 QCURVE SMOOTH",
"123 84 OFFCURVE",
"120 68 QCURVE SMOOTH",
"117 51 OFFCURVE",
"117 31 QCURVE SMOOTH",
"117 8 OFFCURVE",
"117 0 QCURVE",
"226 0 OFFCURVE",
"262 0 QCURVE",
"262 16 OFFCURVE",
"262 25 QCURVE SMOOTH",
"262 52 OFFCURVE",
"274 74 QCURVE SMOOTH",
"286 96 OFFCURVE",
"306 127 QCURVE SMOOTH",
"500 411 OFFCURVE",
"565 506 QCURVE",
"565 664 OFFCURVE",
"565 717 QCURVE",
"187 717 OFFCURVE",
"61 717 QCURVE",
"61 717 LINE"
);
}
);
width = 627;
}
);
note = seven;
unicode = 0037;
},
{
glyphname = eight;
layers = (
{
layerId = "1B5A2E6A-EA81-427B-BCB4-5148866553EF";
paths = (
{
closed = 1;
nodes = (
"373 -14 OFFCURVE",
"421 1 QCURVE SMOOTH",
"470 15 OFFCURVE",
"504 41 QCURVE SMOOTH",
"538 68 OFFCURVE",
"556 104 QCURVE SMOOTH",
"574 141 OFFCURVE",
"574 186 QCURVE SMOOTH",
"574 190 OFFCURVE",
"574 193 QCURVE SMOOTH",
"574 230 OFFCURVE",
"564 259 QCURVE SMOOTH",
"553 288 OFFCURVE",
"535 308 QCURVE SMOOTH",
"517 329 OFFCURVE",
"495 342 QCURVE SMOOTH",
"472 355 OFFCURVE",
"447 362 QCURVE",
"447 375 OFFCURVE",
"447 381 QCURVE",
"469 389 OFFCURVE",
"489 402 QCURVE SMOOTH",
"509 416 OFFCURVE",
"523 434 QCURVE SMOOTH",
"539 454 OFFCURVE",
"547 480 QCURVE SMOOTH",
"556 506 OFFCURVE",
"556 539 QCURVE SMOOTH",
"556 543 OFFCURVE",
"556 545 QCURVE SMOOTH",
"556 589 OFFCURVE",
"536 624 QCURVE SMOOTH",
"515 658 OFFCURVE",
"481 682 QCURVE SMOOTH",
"447 707 OFFCURVE",
"404 719 QCURVE SMOOTH",
"360 731 OFFCURVE",
"313 731 QCURVE SMOOTH",
"266 731 OFFCURVE",
"223 719 QCURVE SMOOTH",
"179 707 OFFCURVE",
"145 682 QCURVE SMOOTH",
"112 658 OFFCURVE",
"91 624 QCURVE SMOOTH",
"71 589 OFFCURVE",
"71 545 QCURVE SMOOTH",
"71 541 OFFCURVE",
"71 539 QCURVE SMOOTH",
"71 506 OFFCURVE",
"79 480 QCURVE SMOOTH",
"88 454 OFFCURVE",
"102 434 QCURVE",
"118 416 OFFCURVE",
"138 402 QCURVE SMOOTH",
"158 389 OFFCURVE",
"179 381 QCURVE",
"179 369 OFFCURVE",
"179 362 QCURVE",
"155 355 OFFCURVE",
"132 342 QCURVE SMOOTH",
"110 329 OFFCURVE",
"91 308 QCURVE SMOOTH",
"74 288 OFFCURVE",
"63 259 QCURVE SMOOTH",
"52 230 OFFCURVE",
"52 193 QCURVE SMOOTH",
"52 188 OFFCURVE",
"52 186 QCURVE SMOOTH",
"52 141 OFFCURVE",
"71 105 QCURVE SMOOTH",
"89 69 OFFCURVE",
"123 42 QCURVE SMOOTH",
"157 15 OFFCURVE",
"205 1 QCURVE SMOOTH",
"253 -14 OFFCURVE",
"313 -14 QCURVE",
"313 -14 LINE"
);
},
{
closed = 1;
nodes = (
"253 115 OFFCURVE",
"220 142 QCURVE SMOOTH",
"187 169 OFFCURVE",
"187 211 QCURVE SMOOTH",
"187 253 OFFCURVE",
"220 280 QCURVE SMOOTH",
"253 307 OFFCURVE",
"313 307 QCURVE SMOOTH",
"374 307 OFFCURVE",
"407 280 QCURVE SMOOTH",
"439 253 OFFCURVE",
"439 211 QCURVE SMOOTH",
"439 169 OFFCURVE",
"407 142 QCURVE SMOOTH",
"374 115 OFFCURVE",
"313 115 QCURVE",
"313 115 LINE"
);
},
{
closed = 1;
nodes = (
"359 602 OFFCURVE",
"390 579 QCURVE SMOOTH",
"421 555 OFFCURVE",
"421 519 QCURVE SMOOTH",
"421 483 OFFCURVE",
"390 460 QCURVE SMOOTH",
"359 436 OFFCURVE",
"313 436 QCURVE SMOOTH",
"267 436 OFFCURVE",
"237 460 QCURVE SMOOTH",
"206 483 OFFCURVE",
"206 519 QCURVE SMOOTH",
"206 555 OFFCURVE",
"237 579 QCURVE SMOOTH",
"267 602 OFFCURVE",
"313 602 QCURVE",
"313 602 LINE"
);
}
);
width = 627;
}
);
note = eight;
unicode = 0038;
},
{
glyphname = nine;
layers = (
{
layerId = "1B5A2E6A-EA81-427B-BCB4-5148866553EF";
paths = (
{
closed = 1;
nodes = (
"116 203 OFFCURVE",
"71 203 QCURVE",
"71 152 OFFCURVE",
"90 112 QCURVE SMOOTH",
"109 72 OFFCURVE",
"141 43 QCURVE SMOOTH",
"175 15 OFFCURVE",
"220 1 QCURVE SMOOTH",
"265 -14 OFFCURVE",
"317 -14 QCURVE SMOOTH",
"371 -14 OFFCURVE",
"416 3 QCURVE SMOOTH",
"462 19 OFFCURVE",
"496 51 QCURVE SMOOTH",
"529 83 OFFCURVE",
"549 129 QCURVE SMOOTH",
"568 175 OFFCURVE",
"568 233 QCURVE SMOOTH",
"568 408 OFFCURVE",
"568 495 QCURVE SMOOTH",
"568 547 OFFCURVE",
"549 590 QCURVE SMOOTH",
"529 634 OFFCURVE",
"496 665 QCURVE SMOOTH",
"462 696 OFFCURVE",
"415 714 QCURVE SMOOTH",
"369 731 OFFCURVE",
"315 731 QCURVE SMOOTH",
"257 731 OFFCURVE",
"209 713 QCURVE SMOOTH",
"162 694 OFFCURVE",
"128 662 QCURVE SMOOTH",
"95 630 OFFCURVE",
"77 585 QCURVE SMOOTH",
"58 541 OFFCURVE",
"58 489 QCURVE SMOOTH",
"58 481 OFFCURVE",
"58 477 QCURVE SMOOTH",
"58 425 OFFCURVE",
"75 382 QCURVE SMOOTH",
"91 339 OFFCURVE",
"120 308 QCURVE SMOOTH",
"150 278 OFFCURVE",
"189 261 QCURVE SMOOTH",
"228 244 OFFCURVE",
"274 244 QCURVE SMOOTH",
"335 244 OFFCURVE",
"368 266 QCURVE SMOOTH",
"400 288 OFFCURVE",
"415 324 QCURVE",
"429 324 OFFCURVE",
"433 324 QCURVE",
"433 262 OFFCURVE",
"433 231 QCURVE SMOOTH",
"433 179 OFFCURVE",
"401 147 QCURVE SMOOTH",
"369 115 OFFCURVE",
"313 115 QCURVE SMOOTH",
"258 115 OFFCURVE",
"232 141 QCURVE SMOOTH",
"206 167 OFFCURVE",
"206 203 QCURVE",
"206 203 LINE"
);
},
{
closed = 1;
nodes = (
"366 602 OFFCURVE",
"399 571 QCURVE SMOOTH",
"433 540 OFFCURVE",
"433 487 QCURVE SMOOTH",
"433 435 OFFCURVE",
"399 404 QCURVE SMOOTH",
"366 373 OFFCURVE",
"313 373 QCURVE SMOOTH",
"261 373 OFFCURVE",
"227 404 QCURVE SMOOTH",
"194 435 OFFCURVE",
"194 487 QCURVE SMOOTH",
"194 540 OFFCURVE",
"227 571 QCURVE SMOOTH",
"261 602 OFFCURVE",
"313 602 QCURVE",
"313 602 LINE"
);
}
);
width = 627;
}
);
note = nine;
unicode = 0039;
},
{
glyphname = colon;
layers = (
{
layerId = "1B5A2E6A-EA81-427B-BCB4-5148866553EF";
paths = (
{
closed = 1;
nodes = (
"411 103 OFFCURVE",
"403 121 QCURVE SMOOTH",
"395 139 OFFCURVE",
"382 152 QCURVE SMOOTH",
"369 165 OFFCURVE",
"351 173 QCURVE SMOOTH",
"333 180 OFFCURVE",
"313 180 QCURVE SMOOTH",
"293 180 OFFCURVE",
"275 173 QCURVE SMOOTH",
"258 165 OFFCURVE",
"245 152 QCURVE SMOOTH",
"231 139 OFFCURVE",
"224 121 QCURVE SMOOTH",
"216 103 OFFCURVE",
"216 83 QCURVE SMOOTH",
"216 62 OFFCURVE",
"224 45 QCURVE SMOOTH",
"231 27 OFFCURVE",
"245 13 QCURVE SMOOTH",
"258 1 OFFCURVE",
"275 -7 QCURVE SMOOTH",
"293 -14 OFFCURVE",
"313 -14 QCURVE SMOOTH",
"333 -14 OFFCURVE",
"351 -7 QCURVE SMOOTH",
"369 1 OFFCURVE",
"382 13 QCURVE SMOOTH",
"395 27 OFFCURVE",
"403 45 QCURVE SMOOTH",
"411 62 OFFCURVE",
"411 83 QCURVE",
"411 83 LINE"
);
},
{
closed = 1;
nodes = (
"411 445 OFFCURVE",
"403 463 QCURVE SMOOTH",
"395 481 OFFCURVE",
"382 494 QCURVE SMOOTH",
"369 507 OFFCURVE",
"351 515 QCURVE SMOOTH",
"333 522 OFFCURVE",
"313 522 QCURVE SMOOTH",
"293 522 OFFCURVE",
"275 515 QCURVE SMOOTH",
"258 507 OFFCURVE",
"245 494 QCURVE SMOOTH",
"231 481 OFFCURVE",
"224 463 QCURVE SMOOTH",
"216 445 OFFCURVE",
"216 425 QCURVE SMOOTH",
"216 404 OFFCURVE",
"224 387 QCURVE SMOOTH",
"231 369 OFFCURVE",
"245 355 QCURVE SMOOTH",
"258 343 OFFCURVE",
"275 335 QCURVE SMOOTH",
"293 328 OFFCURVE",
"313 328 QCURVE SMOOTH",
"333 328 OFFCURVE",
"351 335 QCURVE SMOOTH",
"369 343 OFFCURVE",
"382 355 QCURVE SMOOTH",
"395 369 OFFCURVE",
"403 387 QCURVE SMOOTH",
"411 404 OFFCURVE",
"411 425 QCURVE",
"411 425 LINE"
);
}
);
width = 627;
}
);
note = colon;
unicode = 003A;
},
{
glyphname = semicolon;
layers = (
{
layerId = "1B5A2E6A-EA81-427B-BCB4-5148866553EF";
paths = (
{
closed = 1;
nodes = (
"216 62 OFFCURVE",
"224 45 QCURVE SMOOTH",
"231 27 OFFCURVE",
"245 13 QCURVE SMOOTH",
"258 1 OFFCURVE",
"275 -7 QCURVE SMOOTH",
"293 -14 OFFCURVE",
"313 -14 QCURVE SMOOTH",
"323 -14 OFFCURVE",
"331 -11 QCURVE",
"331 -19 OFFCURVE",
"331 -24 QCURVE SMOOTH",
"331 -54 OFFCURVE",
"303 -54 QCURVE SMOOTH",
"266 -54 OFFCURVE",
"254 -54 QCURVE",
"254 -114 OFFCURVE",
"254 -134 QCURVE",
"298 -134 OFFCURVE",
"319 -134 QCURVE SMOOTH",
"358 -134 OFFCURVE",
"385 -108 QCURVE SMOOTH",
"411 -81 OFFCURVE",
"411 -42 QCURVE SMOOTH",
"411 41 OFFCURVE",
"411 83 QCURVE SMOOTH",
"411 103 OFFCURVE",
"403 121 QCURVE SMOOTH",
"395 139 OFFCURVE",
"382 152 QCURVE SMOOTH",
"369 165 OFFCURVE",
"351 173 QCURVE SMOOTH",
"333 180 OFFCURVE",
"313 180 QCURVE SMOOTH",
"293 180 OFFCURVE",
"275 173 QCURVE SMOOTH",
"258 165 OFFCURVE",
"245 152 QCURVE SMOOTH",
"231 139 OFFCURVE",
"224 121 QCURVE SMOOTH",
"216 103 OFFCURVE",
"216 83 QCURVE",
"216 83 LINE"
);
},
{
closed = 1;
nodes = (
"411 445 OFFCURVE",
"403 463 QCURVE SMOOTH",
"395 481 OFFCURVE",
"382 494 QCURVE SMOOTH",
"369 507 OFFCURVE",
"351 515 QCURVE SMOOTH",
"333 522 OFFCURVE",
"313 522 QCURVE SMOOTH",
"293 522 OFFCURVE",
"275 515 QCURVE SMOOTH",
"258 507 OFFCURVE",
"245 494 QCURVE SMOOTH",
"231 481 OFFCURVE",
"224 463 QCURVE SMOOTH",
"216 445 OFFCURVE",
"216 425 QCURVE SMOOTH",
"216 404 OFFCURVE",
"224 387 QCURVE SMOOTH",
"231 369 OFFCURVE",
"245 355 QCURVE SMOOTH",
"258 343 OFFCURVE",
"275 335 QCURVE SMOOTH",
"293 328 OFFCURVE",
"313 328 QCURVE SMOOTH",
"333 328 OFFCURVE",
"351 335 QCURVE SMOOTH",
"369 343 OFFCURVE",
"382 355 QCURVE SMOOTH",
"395 369 OFFCURVE",
"403 387 QCURVE SMOOTH",
"411 404 OFFCURVE",
"411 425 QCURVE",
"411 425 LINE"
);
}
);
width = 627;
}
);
note = semicolon;
unicode = 003B;
},
{
glyphname = less;
layers = (
{
layerId = "1B5A2E6A-EA81-427B-BCB4-5148866553EF";
paths = (
{
closed = 1;
nodes = (
"420 163 OFFCURVE",
"527 133 QCURVE",
"527 225 OFFCURVE",
"527 256 QCURVE",
"266 326 OFFCURVE",
"179 349 QCURVE",
"179 363 OFFCURVE",
"179 368 QCURVE",
"440 438 OFFCURVE",
"527 461 QCURVE",
"527 553 OFFCURVE",
"527 584 QCURVE",
"206 495 OFFCURVE",
"99 465 QCURVE",
"99 305 OFFCURVE",
"99 252 QCURVE",
"99 252 LINE"
);
}
);
width = 627;
}
);
note = less;
unicode = 003C;
},
{
glyphname = equal;
layers = (
{
layerId = "1B5A2E6A-EA81-427B-BCB4-5148866553EF";
paths = (
{
closed = 1;
nodes = (
"99 418 OFFCURVE",
"99 389 QCURVE",
"420 389 OFFCURVE",
"527 389 QCURVE",
"527 477 OFFCURVE",
"527 506 QCURVE",
"206 506 OFFCURVE",
"99 506 QCURVE",
"99 506 LINE"
);
},
{
closed = 1;
nodes = (
"99 240 OFFCURVE",
"99 211 QCURVE",
"420 211 OFFCURVE",
"527 211 QCURVE",
"527 298 OFFCURVE",
"527 328 QCURVE",
"206 328 OFFCURVE",
"99 328 QCURVE",
"99 328 LINE"
);
}
);
width = 627;
}
);
note = equal;
unicode = 003D;
},
{
glyphname = greater;
layers = (
{
layerId = "1B5A2E6A-EA81-427B-BCB4-5148866553EF";
paths = (
{
closed = 1;
nodes = (
"420 222 OFFCURVE",
"527 252 QCURVE",
"527 412 OFFCURVE",
"527 465 QCURVE",
"206 554 OFFCURVE",
"99 584 QCURVE",
"99 492 OFFCURVE",
"99 461 QCURVE",
"360 391 OFFCURVE",
"447 368 QCURVE",
"447 354 OFFCURVE",
"447 349 QCURVE",
"186 279 OFFCURVE",
"99 256 QCURVE",
"99 164 OFFCURVE",
"99 133 QCURVE",
"99 133 LINE"
);
}
);
width = 627;
}
);
note = greater;
unicode = 003E;
},
{
glyphname = question;
layers = (
{
layerId = "1B5A2E6A-EA81-427B-BCB4-5148866553EF";
paths = (
{
closed = 1;
nodes = (
"323 399 OFFCURVE",
"316 399 QCURVE SMOOTH",
"276 399 OFFCURVE",
"249 372 QCURVE SMOOTH",
"222 345 OFFCURVE",
"222 305 QCURVE SMOOTH",
"222 239 OFFCURVE",
"222 217 QCURVE",
"319 217 OFFCURVE",
"351 217 QCURVE",
"351 240 OFFCURVE",
"351 251 QCURVE SMOOTH",
"351 265 OFFCURVE",
"358 273 QCURVE SMOOTH",
"366 282 OFFCURVE",
"380 282 QCURVE SMOOTH",
"423 282 OFFCURVE",
"458 299 QCURVE SMOOTH",
"493 316 OFFCURVE",
"516 345 QCURVE SMOOTH",
"540 374 OFFCURVE",
"552 412 QCURVE SMOOTH",
"565 450 OFFCURVE",
"565 492 QCURVE SMOOTH",
"565 496 OFFCURVE",
"565 498 QCURVE SMOOTH",
"565 547 OFFCURVE",
"548 589 QCURVE SMOOTH",
"530 632 OFFCURVE",
"498 664 QCURVE SMOOTH",
"466 695 OFFCURVE",
"421 713 QCURVE SMOOTH",
"376 731 OFFCURVE",
"322 731 QCURVE SMOOTH",
"261 731 OFFCURVE",
"214 711 QCURVE SMOOTH",
"166 691 OFFCURVE",
"133 658 QCURVE SMOOTH",
"101 626 OFFCURVE",
"84 583 QCURVE SMOOTH",
"68 540 OFFCURVE",
"68 494 QCURVE SMOOTH",
"68 452 OFFCURVE",
"68 438 QCURVE",
"169 438 OFFCURVE",
"203 438 QCURVE",
"203 467 OFFCURVE",
"203 481 QCURVE SMOOTH",
"203 505 OFFCURVE",
"210 527 QCURVE SMOOTH",
"218 549 OFFCURVE",
"233 565 QCURVE SMOOTH",
"249 583 OFFCURVE",
"270 592 QCURVE SMOOTH",
"292 602 OFFCURVE",
"319 602 QCURVE SMOOTH",
"371 602 OFFCURVE",
"400 572 QCURVE SMOOTH",
"430 543 OFFCURVE",
"430 500 QCURVE SMOOTH",
"430 455 OFFCURVE",
"405 427 QCURVE SMOOTH",
"380 399 OFFCURVE",
"336 399 QCURVE",
"336 399 LINE"
);
},
{
closed = 1;
nodes = (
"385 103 OFFCURVE",
"377 121 QCURVE SMOOTH",
"370 139 OFFCURVE",
"356 152 QCURVE SMOOTH",
"343 165 OFFCURVE",
"325 173 QCURVE SMOOTH",
"307 180 OFFCURVE",
"288 180 QCURVE SMOOTH",
"267 180 OFFCURVE",
"250 173 QCURVE SMOOTH",
"232 165 OFFCURVE",
"219 152 QCURVE SMOOTH",
"206 139 OFFCURVE",
"198 121 QCURVE SMOOTH",
"190 103 OFFCURVE",
"190 83 QCURVE SMOOTH",
"190 62 OFFCURVE",
"198 45 QCURVE SMOOTH",
"206 27 OFFCURVE",
"219 13 QCURVE SMOOTH",
"232 1 OFFCURVE",
"250 -7 QCURVE SMOOTH",
"267 -14 OFFCURVE",
"288 -14 QCURVE SMOOTH",
"307 -14 OFFCURVE",
"325 -7 QCURVE SMOOTH",
"343 1 OFFCURVE",
"356 13 QCURVE SMOOTH",
"370 27 OFFCURVE",
"377 45 QCURVE SMOOTH",
"385 62 OFFCURVE",
"385 83 QCURVE",
"385 83 LINE"
);
}
);
width = 627;
}
);
note = question;
unicode = 003F;
},
{
glyphname = at;
layers = (
{
layerId = "1B5A2E6A-EA81-427B-BCB4-5148866553EF";
paths = (
{
closed = 1;
nodes = (
"258 522 OFFCURVE",
"356 522 QCURVE SMOOTH",
"479 522 OFFCURVE",
"479 399 QCURVE SMOOTH",
"479 221 OFFCURVE",
"479 131 QCURVE SMOOTH",
"479 102 OFFCURVE",
"452 102 QCURVE SMOOTH",
"447 102 OFFCURVE",
"445 102 QCURVE SMOOTH",
"418 102 OFFCURVE",
"418 131 QCURVE SMOOTH",
"418 358 OFFCURVE",
"418 434 QCURVE",
"326 434 OFFCURVE",
"295 434 QCURVE",
"295 407 OFFCURVE",
"295 397 QCURVE",
"283 397 OFFCURVE",
"276 397 QCURVE",
"267 419 OFFCURVE",
"246 434 QCURVE SMOOTH",
"225 449 OFFCURVE",
"186 449 QCURVE SMOOTH",
"151 449 OFFCURVE",
"119 435 QCURVE SMOOTH",
"88 421 OFFCURVE",
"65 392 QCURVE SMOOTH",
"42 365 OFFCURVE",
"28 322 QCURVE SMOOTH",
"14 279 OFFCURVE",
"14 220 QCURVE SMOOTH",
"14 216 OFFCURVE",
"14 214 QCURVE SMOOTH",
"14 156 OFFCURVE",
"27 113 QCURVE SMOOTH",
"40 70 OFFCURVE",
"61 41 QCURVE SMOOTH",
"84 13 OFFCURVE",
"114 -1 QCURVE SMOOTH",
"144 -14 OFFCURVE",
"180 -14 QCURVE SMOOTH",
"225 -14 OFFCURVE",
"249 3 QCURVE SMOOTH",
"273 19 OFFCURVE",
"283 43 QCURVE",
"295 43 OFFCURVE",
"301 43 QCURVE",
"304 19 OFFCURVE",
"322 3 QCURVE SMOOTH",
"340 -14 OFFCURVE",
"379 -14 QCURVE SMOOTH",
"463 -14 OFFCURVE",
"505 -14 QCURVE SMOOTH",
"548 -14 OFFCURVE",
"575 13 QCURVE SMOOTH",
"602 41 OFFCURVE",
"602 84 QCURVE SMOOTH",
"602 316 OFFCURVE",
"602 432 QCURVE SMOOTH",
"602 539 OFFCURVE",
"543 592 QCURVE SMOOTH",
"483 645 OFFCURVE",
"383 645 QCURVE SMOOTH",
"142 645 OFFCURVE",
"61 645 QCURVE",
"61 553 OFFCURVE",
"61 522 QCURVE",
"61 522 LINE"
);
},
{
closed = 1;
nodes = (
"178 102 OFFCURVE",
"158 134 QCURVE SMOOTH",
"137 165 OFFCURVE",
"137 214 QCURVE SMOOTH",
"137 218 OFFCURVE",
"137 220 QCURVE SMOOTH",
"137 269 OFFCURVE",
"158 301 QCURVE SMOOTH",
"178 332 OFFCURVE",
"217 332 QCURVE SMOOTH",
"259 332 OFFCURVE",
"277 301 QCURVE SMOOTH",
"295 269 OFFCURVE",
"295 220 QCURVE SMOOTH",
"295 216 OFFCURVE",
"295 214 QCURVE SMOOTH",
"295 165 OFFCURVE",
"277 134 QCURVE SMOOTH",
"259 102 OFFCURVE",
"217 102 QCURVE",
"217 102 LINE"
);
}
);
width = 627;
}
);
note = at;
unicode = 0040;
},
{
glyphname = A;
lastChange = "2020-04-27 14:38:55 +0000";
layers = (
{
layerId = "1B5A2E6A-EA81-427B-BCB4-5148866553EF";
paths = (
{
closed = 1;
nodes = (
"424 94 OFFCURVE",
"424 93 QCURVE",
"423 93 OFFCURVE",
"422 93 QCURVE",
"422 86 OFFCURVE",
"422 79 QCURVE SMOOTH",
"422 72 OFFCURVE",
"422 64 QCURVE SMOOTH",
"425 20 OFFCURVE",
"456 -11 QCURVE SMOOTH",
"486 -43 OFFCURVE",
"531 -46 QCURVE",
"536 -47 OFFCURVE",
"541 -47 QCURVE SMOOTH",
"578 -47 OFFCURVE",
"608 -25 QCURVE SMOOTH",
"643 0 OFFCURVE",
"655 42 QCURVE SMOOTH",
"662 68 OFFCURVE",
"658 92 QCURVE SMOOTH",
"654 116 OFFCURVE",
"640 138 QCURVE SMOOTH",
"627 158 OFFCURVE",
"618 179 QCURVE SMOOTH",
"610 200 OFFCURVE",
"608 224 QCURVE SMOOTH",
"606 247 OFFCURVE",
"596 267 QCURVE SMOOTH",
"586 287 OFFCURVE",
"568 303 QCURVE SMOOTH",
"562 309 OFFCURVE",
"555 316 QCURVE SMOOTH",
"548 323 OFFCURVE",
"547 331 QCURVE SMOOTH",
"543 366 OFFCURVE",
"536 401 QCURVE SMOOTH",
"528 436 OFFCURVE",
"541 472 QCURVE SMOOTH",
"552 505 OFFCURVE",
"548 536 QCURVE SMOOTH",
"543 567 OFFCURVE",
"521 595 QCURVE SMOOTH",
"507 613 OFFCURVE",
"499 633 QCURVE SMOOTH",
"490 653 OFFCURVE",
"487 676 QCURVE SMOOTH",
"479 722 OFFCURVE",
"441 746 QCURVE SMOOTH",
"420 760 OFFCURVE",
"397 760 QCURVE SMOOTH",
"379 760 OFFCURVE",
"361 752 QCURVE SMOOTH",
"331 739 OFFCURVE",
"302 732 QCURVE SMOOTH",
"273 725 OFFCURVE",
"241 727 QCURVE SMOOTH",
"215 729 OFFCURVE",
"199 710 QCURVE SMOOTH",
"183 692 OFFCURVE",
"184 666 QCURVE SMOOTH",
"185 653 OFFCURVE",
"188 641 QCURVE SMOOTH",
"191 629 OFFCURVE",
"196 617 QCURVE SMOOTH",
"202 604 OFFCURVE",
"199 595 QCURVE SMOOTH",
"197 586 OFFCURVE",
"185 578 QCURVE SMOOTH",
"158 560 OFFCURVE",
"150 536 QCURVE SMOOTH",
"142 511 OFFCURVE",
"155 481 QCURVE SMOOTH",
"162 466 OFFCURVE",
"158 455 QCURVE SMOOTH",
"155 445 OFFCURVE",
"141 436 QCURVE SMOOTH",
"122 425 OFFCURVE",
"111 407 QCURVE SMOOTH",
"101 390 OFFCURVE",
"99 368 QCURVE SMOOTH",
"99 349 OFFCURVE",
"91 334 QCURVE SMOOTH",
"83 318 OFFCURVE",
"69 306 QCURVE SMOOTH",
"50 289 OFFCURVE",
"39 267 QCURVE SMOOTH",
"29 245 OFFCURVE",
"28 220 QCURVE SMOOTH",
"27 197 OFFCURVE",
"20 176 QCURVE SMOOTH",
"13 156 OFFCURVE",
"3 135 QCURVE SMOOTH",
"-4 120 OFFCURVE",
"-10 103 QCURVE SMOOTH",
"-15 88 OFFCURVE",
"-15 74 QCURVE SMOOTH",
"-15 72 OFFCURVE",
"-15 71 QCURVE SMOOTH",
"-13 31 OFFCURVE",
"11 -1 QCURVE SMOOTH",
"34 -32 OFFCURVE",
"83 -41 QCURVE SMOOTH",
"121 -48 OFFCURVE",
"157 -28 QCURVE SMOOTH",
"193 -7 OFFCURVE",
"206 31 QCURVE SMOOTH",
"211 46 OFFCURVE",
"212 62 QCURVE SMOOTH",
"213 78 OFFCURVE",
"215 94 QCURVE SMOOTH",
"216 106 OFFCURVE",
"217 118 QCURVE SMOOTH",
"218 129 OFFCURVE",
"222 140 QCURVE SMOOTH",
"228 157 OFFCURVE",
"239 162 QCURVE SMOOTH",
"250 166 OFFCURVE",
"267 158 QCURVE SMOOTH",
"295 145 OFFCURVE",
"322 145 QCURVE SMOOTH",
"349 145 OFFCURVE",
"376 161 QCURVE SMOOTH",
"393 171 OFFCURVE",
"402 167 QCURVE SMOOTH",
"412 164 OFFCURVE",
"418 146 QCURVE SMOOTH",
"422 134 OFFCURVE",
"423 120 QCURVE SMOOTH",
"423 107 OFFCURVE",
"425 94 QCURVE",
"425 94 LINE"
);
},
{
closed = 1;
nodes = (
"267 591 OFFCURVE",
"277 595 QCURVE SMOOTH",
"287 598 OFFCURVE",
"297 593 QCURVE SMOOTH",
"308 587 OFFCURVE",
"310 577 QCURVE SMOOTH",
"311 567 OFFCURVE",
"307 558 QCURVE SMOOTH",
"291 514 OFFCURVE",
"307 481 QCURVE SMOOTH",
"323 447 OFFCURVE",
"353 422 QCURVE SMOOTH",
"381 398 OFFCURVE",
"391 367 QCURVE SMOOTH",
"400 335 OFFCURVE",
"412 305 QCURVE SMOOTH",
"414 300 OFFCURVE",
"411 292 QCURVE SMOOTH",
"409 283 OFFCURVE",
"404 280 QCURVE SMOOTH",
"400 277 OFFCURVE",
"392 276 QCURVE SMOOTH",
"383 276 OFFCURVE",
"378 279 QCURVE SMOOTH",
"350 295 OFFCURVE",
"322 295 QCURVE SMOOTH",
"295 296 OFFCURVE",
"265 282 QCURVE SMOOTH",
"249 274 OFFCURVE",
"239 283 QCURVE SMOOTH",
"229 292 OFFCURVE",
"232 311 QCURVE SMOOTH",
"233 317 OFFCURVE",
"235 323 QCURVE SMOOTH",
"236 329 OFFCURVE",
"239 335 QCURVE",
"245 353 OFFCURVE",
"244 371 QCURVE SMOOTH",
"244 388 OFFCURVE",
"236 405 QCURVE SMOOTH",
"225 424 OFFCURVE",
"229 438 QCURVE SMOOTH",
"233 451 OFFCURVE",
"250 462 QCURVE SMOOTH",
"253 464 OFFCURVE",
"255 467 QCURVE SMOOTH",
"258 470 OFFCURVE",
"260 472 QCURVE SMOOTH",
"282 495 OFFCURVE",
"284 510 QCURVE SMOOTH",
"286 525 OFFCURVE",
"271 552 QCURVE SMOOTH",
"267 558 OFFCURVE",
"264 565 QCURVE SMOOTH",
"261 571 OFFCURVE",
"258 578 QCURVE",
"258 578 LINE"
);
}
);
width = 627;
}
);
note = A;
unicode = 0041;
},
{
glyphname = B;
lastChange = "2020-04-27 16:30:03 +0000";
layers = (
{
layerId = "1B5A2E6A-EA81-427B-BCB4-5148866553EF";
paths = (
{
closed = 1;
nodes = (
"610 497 OFFCURVE",
"610 499 QCURVE SMOOTH",
"610 538 OFFCURVE",
"584 566 QCURVE SMOOTH",
"557 596 OFFCURVE",
"515 602 QCURVE SMOOTH",
"488 606 OFFCURVE",
"477 609 QCURVE SMOOTH",
"467 613 OFFCURVE",
"466 647 QCURVE SMOOTH",
"466 652 OFFCURVE",
"463 658 QCURVE SMOOTH",
"461 663 OFFCURVE",
"459 668 QCURVE SMOOTH",
"448 694 OFFCURVE",
"426 702 QCURVE SMOOTH",
"404 711 OFFCURVE",
"371 700 QCURVE SMOOTH",
"355 695 OFFCURVE",
"342 698 QCURVE SMOOTH",
"329 702 OFFCURVE",
"316 710 QCURVE SMOOTH",
"284 730 OFFCURVE",
"254 730 QCURVE SMOOTH",
"251 730 OFFCURVE",
"248 729 QCURVE",
"215 727 OFFCURVE",
"191 693 QCURVE SMOOTH",
"172 667 OFFCURVE",
"177 637 QCURVE SMOOTH",
"182 607 OFFCURVE",
"205 586 QCURVE SMOOTH",
"231 565 OFFCURVE",
"257 565 QCURVE SMOOTH",
"284 565 OFFCURVE",
"309 583 QCURVE SMOOTH",
"332 600 OFFCURVE",
"354 597 QCURVE SMOOTH",
"376 595 OFFCURVE",
"398 585 QCURVE SMOOTH",
"407 581 OFFCURVE",
"412 574 QCURVE SMOOTH",
"417 568 OFFCURVE",
"416 557 QCURVE SMOOTH",
"414 539 OFFCURVE",
"411 520 QCURVE SMOOTH",
"409 501 OFFCURVE",
"407 482 QCURVE",
"407 482 OFFCURVE",
"408 482 QCURVE",
"408 482 OFFCURVE",
"409 482 QCURVE",
"409 478 OFFCURVE",
"409 474 QCURVE SMOOTH",
"408 470 OFFCURVE",
"409 466 QCURVE",
"410 452 OFFCURVE",
"405 444 QCURVE SMOOTH",
"399 435 OFFCURVE",
"387 430 QCURVE SMOOTH",
"369 422 OFFCURVE",
"351 422 QCURVE SMOOTH",
"334 421 OFFCURVE",
"315 429 QCURVE SMOOTH",
"301 435 OFFCURVE",
"285 440 QCURVE SMOOTH",
"270 444 OFFCURVE",
"253 444 QCURVE SMOOTH",
"211 442 OFFCURVE",
"186 407 QCURVE SMOOTH",
"160 371 OFFCURVE",
"171 331 QCURVE SMOOTH",
"182 288 OFFCURVE",
"221 271 QCURVE SMOOTH",
"261 254 OFFCURVE",
"299 272 QCURVE SMOOTH",
"319 281 OFFCURVE",
"339 284 QCURVE SMOOTH",
"360 286 OFFCURVE",
"382 283 QCURVE SMOOTH",
"402 280 OFFCURVE",
"424 281 QCURVE SMOOTH",
"446 281 OFFCURVE",
"460 303 QCURVE SMOOTH",
"467 315 OFFCURVE",
"472 330 QCURVE SMOOTH",
"477 344 OFFCURVE",
"480 358 QCURVE SMOOTH",
"483 374 OFFCURVE",
"491 383 QCURVE SMOOTH",
"499 393 OFFCURVE",
"515 397 QCURVE SMOOTH",
"520 398 OFFCURVE",
"526 400 QCURVE SMOOTH",
"532 402 OFFCURVE",
"538 404 QCURVE SMOOTH",
"568 415 OFFCURVE",
"589 441 QCURVE SMOOTH",
"609 467 OFFCURVE",
"610 495 QCURVE",
"610 495 LINE"
);
},
{
closed = 1;
nodes = (
"565 225 OFFCURVE",
"552 241 QCURVE SMOOTH",
"539 257 OFFCURVE",
"512 263 QCURVE SMOOTH",
"495 267 OFFCURVE",
"479 256 QCURVE SMOOTH",
"462 244 OFFCURVE",
"455 225 QCURVE SMOOTH",
"453 219 OFFCURVE",
"452 213 QCURVE SMOOTH",
"450 207 OFFCURVE",
"447 201 QCURVE SMOOTH",
"443 192 OFFCURVE",
"436 185 QCURVE SMOOTH",
"429 179 OFFCURVE",
"417 178 QCURVE SMOOTH",
"409 177 OFFCURVE",
"402 175 QCURVE SMOOTH",
"394 174 OFFCURVE",
"386 172 QCURVE SMOOTH",
"367 165 OFFCURVE",
"348 157 QCURVE SMOOTH",
"329 150 OFFCURVE",
"309 145 QCURVE SMOOTH",
"292 140 OFFCURVE",
"275 139 QCURVE SMOOTH",
"258 138 OFFCURVE",
"241 134 QCURVE SMOOTH",
"216 130 OFFCURVE",
"199 108 QCURVE SMOOTH",
"182 86 OFFCURVE",
"182 59 QCURVE SMOOTH",
"182 32 OFFCURVE",
"199 10 QCURVE SMOOTH",
"216 -13 OFFCURVE",
"241 -15 QCURVE SMOOTH",
"276 -20 OFFCURVE",
"309 -28 QCURVE SMOOTH",
"342 -37 OFFCURVE",
"374 -50 QCURVE SMOOTH",
"389 -56 OFFCURVE",
"405 -56 QCURVE SMOOTH",
"412 -56 OFFCURVE",
"420 -55 QCURVE SMOOTH",
"443 -51 OFFCURVE",
"464 -38 QCURVE SMOOTH",
"496 -18 OFFCURVE",
"511 17 QCURVE SMOOTH",
"526 53 OFFCURVE",
"515 95 QCURVE SMOOTH",
"510 115 OFFCURVE",
"514 130 QCURVE SMOOTH",
"519 144 OFFCURVE",
"536 155 QCURVE SMOOTH",
"551 164 OFFCURVE",
"556 178 QCURVE SMOOTH",
"562 191 OFFCURVE",
"564 207 QCURVE",
"564 207 LINE"
);
},
{
closed = 1;
nodes = (
"36 238 OFFCURVE",
"36 -2 QCURVE",
"122 -2 OFFCURVE",
"166 -2 QCURVE",
"166 479 OFFCURVE",
"166 719 QCURVE",
"79 719 OFFCURVE",
"36 719 QCURVE",
"36 719 LINE"
);
}
);
width = 627;
}
);
note = B;
unicode = 0042;
},
{
glyphname = C;
lastChange = "2020-04-27 16:31:34 +0000";
layers = (
{
layerId = "1B5A2E6A-EA81-427B-BCB4-5148866553EF";
paths = (
{
closed = 1;
nodes = (
"198 172 OFFCURVE",
"191 196 QCURVE SMOOTH",
"183 219 OFFCURVE",
"166 240 QCURVE SMOOTH",
"154 254 OFFCURVE",
"154 262 QCURVE SMOOTH",
"153 270 OFFCURVE",
"161 286 QCURVE SMOOTH",
"167 298 OFFCURVE",
"170 311 QCURVE SMOOTH",
"174 324 OFFCURVE",
"178 336 QCURVE SMOOTH",
"184 351 OFFCURVE",
"189 365 QCURVE SMOOTH",
"194 379 OFFCURVE",
"200 393 QCURVE SMOOTH",
"207 410 OFFCURVE",
"217 426 QCURVE SMOOTH",
"226 443 OFFCURVE",
"230 461 QCURVE SMOOTH",
"233 476 OFFCURVE",
"231 492 QCURVE SMOOTH",
"229 508 OFFCURVE",
"228 524 QCURVE SMOOTH",
"228 537 OFFCURVE",
"235 543 QCURVE SMOOTH",
"242 549 OFFCURVE",
"252 548 QCURVE SMOOTH",
"265 547 OFFCURVE",
"278 545 QCURVE SMOOTH",
"291 542 OFFCURVE",
"303 538 QCURVE SMOOTH",
"321 531 OFFCURVE",
"338 523 QCURVE SMOOTH",
"355 515 OFFCURVE",
"372 508 QCURVE SMOOTH",
"384 502 OFFCURVE",
"393 494 QCURVE SMOOTH",
"402 486 OFFCURVE",
"405 472 QCURVE SMOOTH",
"406 466 OFFCURVE",
"408 461 QCURVE SMOOTH",
"410 455 OFFCURVE",
"412 450 QCURVE SMOOTH",
"424 415 OFFCURVE",
"451 398 QCURVE SMOOTH",
"479 381 OFFCURVE",
"516 387 QCURVE SMOOTH",
"554 394 OFFCURVE",
"576 431 QCURVE SMOOTH",
"597 469 OFFCURVE",
"579 508 QCURVE SMOOTH",
"570 528 OFFCURVE",
"555 540 QCURVE SMOOTH",
"540 553 OFFCURVE",
"522 563 QCURVE SMOOTH",
"508 570 OFFCURVE",
"501 582 QCURVE SMOOTH",
"495 593 OFFCURVE",
"495 607 QCURVE SMOOTH",
"494 645 OFFCURVE",
"478 673 QCURVE SMOOTH",
"463 702 OFFCURVE",
"430 721 QCURVE SMOOTH",
"405 738 OFFCURVE",
"385 738 QCURVE SMOOTH",
"382 738 OFFCURVE",
"379 738 QCURVE SMOOTH",
"356 735 OFFCURVE",
"333 721 QCURVE SMOOTH",
"314 707 OFFCURVE",
"293 699 QCURVE SMOOTH",
"273 691 OFFCURVE",
"249 688 QCURVE SMOOTH",
"218 685 OFFCURVE",
"199 669 QCURVE SMOOTH",
"181 654 OFFCURVE",
"174 622 QCURVE SMOOTH",
"170 597 OFFCURVE",
"159 590 QCURVE SMOOTH",
"149 582 OFFCURVE",
"123 581 QCURVE SMOOTH",
"92 579 OFFCURVE",
"68 564 QCURVE SMOOTH",
"44 549 OFFCURVE",
"29 522 QCURVE SMOOTH",
"16 498 OFFCURVE",
"16 474 QCURVE SMOOTH",
"16 470 OFFCURVE",
"16 467 QCURVE SMOOTH",
"18 439 OFFCURVE",
"36 413 QCURVE SMOOTH",
"50 393 OFFCURVE",
"61 371 QCURVE SMOOTH",
"71 350 OFFCURVE",
"71 324 QCURVE SMOOTH",
"71 316 OFFCURVE",
"76 306 QCURVE SMOOTH",
"80 297 OFFCURVE",
"85 289 QCURVE SMOOTH",
"96 271 OFFCURVE",
"96 263 QCURVE SMOOTH",
"95 255 OFFCURVE",
"81 238 QCURVE SMOOTH",
"78 234 OFFCURVE",
"76 230 QCURVE SMOOTH",
"73 226 OFFCURVE",
"70 222 QCURVE SMOOTH",
"46 188 OFFCURVE",
"61 155 QCURVE SMOOTH",
"77 121 OFFCURVE",
"109 113 QCURVE SMOOTH",
"133 107 OFFCURVE",
"154 115 QCURVE SMOOTH",
"174 124 OFFCURVE",
"185 145 QCURVE",
"185 145 LINE"
);
},
{
closed = 1;
nodes = (
"558 77 OFFCURVE",
"585 113 QCURVE SMOOTH",
"607 143 OFFCURVE",
"607 177 QCURVE SMOOTH",
"607 185 OFFCURVE",
"606 193 QCURVE SMOOTH",
"599 239 OFFCURVE",
"568 264 QCURVE SMOOTH",
"538 289 OFFCURVE",
"498 289 QCURVE SMOOTH",
"464 289 OFFCURVE",
"436 271 QCURVE SMOOTH",
"408 253 OFFCURVE",
"394 213 QCURVE SMOOTH",
"386 190 OFFCURVE",
"389 168 QCURVE SMOOTH",
"392 145 OFFCURVE",
"398 124 QCURVE SMOOTH",
"403 106 OFFCURVE",
"399 98 QCURVE SMOOTH",
"395 89 OFFCURVE",
"378 83 QCURVE SMOOTH",
"370 80 OFFCURVE",
"362 77 QCURVE SMOOTH",
"354 73 OFFCURVE",
"346 69 QCURVE SMOOTH",
"327 57 OFFCURVE",
"321 57 QCURVE SMOOTH",
"314 58 OFFCURVE",
"298 72 QCURVE SMOOTH",
"285 83 OFFCURVE",
"270 91 QCURVE SMOOTH",
"256 99 OFFCURVE",
"238 96 QCURVE",
"207 99 OFFCURVE",
"193 84 QCURVE SMOOTH",
"179 69 OFFCURVE",
"175 48 QCURVE SMOOTH",
"171 23 OFFCURVE",
"180 2 QCURVE SMOOTH",
"189 -20 OFFCURVE",
"220 -30 QCURVE SMOOTH",
"232 -34 OFFCURVE",
"242 -34 QCURVE SMOOTH",
"253 -34 OFFCURVE",
"263 -30 QCURVE SMOOTH",
"282 -22 OFFCURVE",
"298 -7 QCURVE SMOOTH",
"309 2 OFFCURVE",
"319 5 QCURVE SMOOTH",
"329 8 OFFCURVE",
"342 -1 QCURVE SMOOTH",
"348 -5 OFFCURVE",
"355 -8 QCURVE SMOOTH",
"362 -11 OFFCURVE",
"369 -13 QCURVE SMOOTH",
"385 -18 OFFCURVE",
"401 -12 QCURVE SMOOTH",
"417 -5 OFFCURVE",
"424 11 QCURVE SMOOTH",
"428 20 OFFCURVE",
"431 31 QCURVE SMOOTH",
"434 42 OFFCURVE",
"436 52 QCURVE SMOOTH",
"438 61 OFFCURVE",
"443 65 QCURVE SMOOTH",
"447 68 OFFCURVE",
"456 68 QCURVE SMOOTH",
"470 68 OFFCURVE",
"485 69 QCURVE SMOOTH",
"500 70 OFFCURVE",
"514 72 QCURVE",
"514 72 LINE"
);
}
);
width = 627;
}
);
note = C;
unicode = 0043;
},
{
glyphname = D;
lastChange = "2020-04-27 16:32:53 +0000";
layers = (
{
layerId = "1B5A2E6A-EA81-427B-BCB4-5148866553EF";
paths = (
{
closed = 1;
nodes = (
"617 147 OFFCURVE",
"624 187 QCURVE SMOOTH",
"625 197 OFFCURVE",
"625 207 QCURVE SMOOTH",
"626 237 OFFCURVE",
"612 270 QCURVE SMOOTH",
"605 286 OFFCURVE",
"598 302 QCURVE SMOOTH",
"591 318 OFFCURVE",
"591 334 QCURVE SMOOTH",
"591 365 OFFCURVE",
"581 391 QCURVE SMOOTH",
"572 416 OFFCURVE",
"548 436 QCURVE SMOOTH",
"537 445 OFFCURVE",
"534 456 QCURVE SMOOTH",
"531 467 OFFCURVE",
"537 481 QCURVE SMOOTH",
"541 489 OFFCURVE",
"543 498 QCURVE SMOOTH",
"545 508 OFFCURVE",
"544 516 QCURVE",
"537 543 OFFCURVE",
"543 569 QCURVE SMOOTH",
"549 595 OFFCURVE",
"555 621 QCURVE SMOOTH",
"571 695 OFFCURVE",
"524 753 QCURVE SMOOTH",
"476 812 OFFCURVE",
"394 813 QCURVE SMOOTH",
"392 813 OFFCURVE",
"384 812 QCURVE SMOOTH",
"376 812 OFFCURVE",
"367 810 QCURVE SMOOTH",
"330 801 OFFCURVE",
"292 791 QCURVE SMOOTH",
"255 782 OFFCURVE",
"218 771 QCURVE SMOOTH",
"197 765 OFFCURVE",
"179 751 QCURVE SMOOTH",
"161 738 OFFCURVE",
"148 720 QCURVE",
"73 720 OFFCURVE",
"36 720 QCURVE",
"36 238 OFFCURVE",
"36 -2 QCURVE",
"122 -2 OFFCURVE",
"166 -2 QCURVE",
"166 377 OFFCURVE",
"166 567 QCURVE",
"177 556 OFFCURVE",
"191 549 QCURVE SMOOTH",
"205 541 OFFCURVE",
"221 537 QCURVE SMOOTH",
"256 529 OFFCURVE",
"291 521 QCURVE SMOOTH",
"326 513 OFFCURVE",
"360 500 QCURVE SMOOTH",
"367 498 OFFCURVE",
"376 497 QCURVE SMOOTH",
"384 496 OFFCURVE",
"392 495 QCURVE SMOOTH",
"403 494 OFFCURVE",
"413 494 QCURVE SMOOTH",
"424 493 OFFCURVE",
"435 491 QCURVE SMOOTH",
"465 484 OFFCURVE",
"470 468 QCURVE SMOOTH",
"475 452 OFFCURVE",
"454 429 QCURVE",
"452 428 OFFCURVE",
"451 426 QCURVE SMOOTH",
"450 425 OFFCURVE",
"449 424 QCURVE SMOOTH",
"432 409 OFFCURVE",
"425 390 QCURVE SMOOTH",
"417 371 OFFCURVE",
"417 350 QCURVE SMOOTH",
"418 330 OFFCURVE",
"413 311 QCURVE SMOOTH",
"408 292 OFFCURVE",
"399 274 QCURVE SMOOTH",
"389 253 OFFCURVE",
"384 231 QCURVE SMOOTH",
"378 209 OFFCURVE",
"385 184 QCURVE SMOOTH",
"391 161 OFFCURVE",
"380 146 QCURVE SMOOTH",
"369 131 OFFCURVE",
"352 118 QCURVE SMOOTH",
"336 106 OFFCURVE",
"322 104 QCURVE SMOOTH",
"307 102 OFFCURVE",
"290 113 QCURVE SMOOTH",
"286 116 OFFCURVE",
"281 118 QCURVE SMOOTH",
"276 121 OFFCURVE",
"270 122 QCURVE",
"251 128 OFFCURVE",
"233 122 QCURVE SMOOTH",
"214 116 OFFCURVE",
"202 101 QCURVE SMOOTH",
"190 85 OFFCURVE",
"190 68 QCURVE SMOOTH",
"189 50 OFFCURVE",
"197 33 QCURVE SMOOTH",
"205 16 OFFCURVE",
"223 7 QCURVE SMOOTH",
"240 -1 OFFCURVE",
"261 2 QCURVE SMOOTH",
"269 3 OFFCURVE",
"277 6 QCURVE SMOOTH",
"284 9 OFFCURVE",
"291 13 QCURVE SMOOTH",
"307 22 OFFCURVE",
"321 21 QCURVE SMOOTH",
"335 20 OFFCURVE",
"350 9 QCURVE SMOOTH",
"374 -10 OFFCURVE",
"399 -10 QCURVE SMOOTH",
"412 -10 OFFCURVE",
"425 -4 QCURVE SMOOTH",
"462 11 OFFCURVE",
"471 47 QCURVE SMOOTH",
"475 66 OFFCURVE",
"488 75 QCURVE SMOOTH",
"500 85 OFFCURVE",
"519 90 QCURVE SMOOTH",
"536 94 OFFCURVE",
"553 101 QCURVE SMOOTH",
"569 109 OFFCURVE",
"583 120 QCURVE",
"583 120 LINE"
);
}
);
width = 627;
}
);
note = D;
unicode = 0044;
},
{
glyphname = E;
layers = (
{
layerId = "1B5A2E6A-EA81-427B-BCB4-5148866553EF";
paths = (
{
closed = 1;
nodes = (
"84 179 OFFCURVE",
"84 0 QCURVE",
"433 0 OFFCURVE",
"549 0 QCURVE",
"549 97 OFFCURVE",
"549 129 QCURVE",
"302 129 OFFCURVE",
"219 129 QCURVE",
"219 253 OFFCURVE",
"219 295 QCURVE",
"448 295 OFFCURVE",
"524 295 QCURVE",
"524 392 OFFCURVE",
"524 424 QCURVE",
"295 424 OFFCURVE",
"219 424 QCURVE",
"219 547 OFFCURVE",
"219 588 QCURVE",
"457 588 OFFCURVE",
"537 588 QCURVE",
"537 685 OFFCURVE",
"537 717 QCURVE",
"197 717 OFFCURVE",
"84 717 QCURVE",
"84 717 LINE"
);
}
);
width = 627;
}
);
note = E;
unicode = 0045;
},
{
glyphname = F;
layers = (
{
layerId = "1B5A2E6A-EA81-427B-BCB4-5148866553EF";
paths = (
{
closed = 1;
nodes = (
"90 179 OFFCURVE",
"90 0 QCURVE",
"191 0 OFFCURVE",
"225 0 QCURVE",
"225 221 OFFCURVE",
"225 295 QCURVE",
"463 295 OFFCURVE",
"543 295 QCURVE",
"543 392 OFFCURVE",
"543 424 QCURVE",
"305 424 OFFCURVE",
"225 424 QCURVE",
"225 547 OFFCURVE",
"225 588 QCURVE",
"468 588 OFFCURVE",
"549 588 QCURVE",
"549 685 OFFCURVE",
"549 717 QCURVE",
"205 717 OFFCURVE",
"90 717 QCURVE",
"90 717 LINE"
);
}
);
width = 627;
}
);
note = F;
unicode = 0046;
},
{
glyphname = G;
lastChange = "2020-04-27 16:39:26 +0000";
layers = (
{
layerId = "1B5A2E6A-EA81-427B-BCB4-5148866553EF";
paths = (
{
closed = 1;
nodes = (
"395 470 OFFCURVE",
"429 433 QCURVE SMOOTH",
"464 397 OFFCURVE",
"514 402 QCURVE SMOOTH",
"560 406 OFFCURVE",
"585 436 QCURVE SMOOTH",
"609 466 OFFCURVE",
"609 505 QCURVE SMOOTH",
"609 546 OFFCURVE",
"583 575 QCURVE SMOOTH",
"556 604 OFFCURVE",
"514 608 QCURVE SMOOTH",
"503 609 OFFCURVE",
"492 609 QCURVE SMOOTH",
"481 609 OFFCURVE",
"471 609 QCURVE SMOOTH",
"458 609 OFFCURVE",
"452 615 QCURVE SMOOTH",
"446 621 OFFCURVE",
"447 634 QCURVE SMOOTH",
"447 638 OFFCURVE",
"447 643 QCURVE SMOOTH",
"447 647 OFFCURVE",
"447 652 QCURVE SMOOTH",
"446 679 OFFCURVE",
"430 695 QCURVE SMOOTH",
"415 711 OFFCURVE",
"388 710 QCURVE SMOOTH",
"362 708 OFFCURVE",
"340 716 QCURVE SMOOTH",
"318 723 OFFCURVE",
"297 736 QCURVE SMOOTH",
"270 752 OFFCURVE",
"244 752 QCURVE SMOOTH",
"226 752 OFFCURVE",
"209 744 QCURVE SMOOTH",
"165 727 OFFCURVE",
"150 678 QCURVE SMOOTH",
"148 673 OFFCURVE",
"147 669 QCURVE SMOOTH",
"146 665 OFFCURVE",
"145 660 QCURVE SMOOTH",
"142 645 OFFCURVE",
"133 636 QCURVE SMOOTH",
"124 627 OFFCURVE",
"110 623 QCURVE",
"104 620 OFFCURVE",
"97 618 QCURVE SMOOTH",
"90 616 OFFCURVE",
"83 613 QCURVE SMOOTH",
"42 594 OFFCURVE",
"22 553 QCURVE SMOOTH",
"12 531 OFFCURVE",
"12 509 QCURVE SMOOTH",
"12 490 OFFCURVE",
"20 470 QCURVE SMOOTH",
"36 433 OFFCURVE",
"47 396 QCURVE SMOOTH",
"59 359 OFFCURVE",
"68 321 QCURVE SMOOTH",
"73 304 OFFCURVE",
"72 289 QCURVE SMOOTH",
"72 275 OFFCURVE",
"63 260 QCURVE SMOOTH",
"51 242 OFFCURVE",
"48 221 QCURVE SMOOTH",
"44 201 OFFCURVE",
"50 181 QCURVE SMOOTH",
"57 155 OFFCURVE",
"57 130 QCURVE SMOOTH",
"57 105 OFFCURVE",
"54 80 QCURVE SMOOTH",
"50 32 OFFCURVE",
"67 -8 QCURVE SMOOTH",
"84 -47 OFFCURVE",
"125 -74 QCURVE SMOOTH",
"165 -101 OFFCURVE",
"207 -103 QCURVE SMOOTH",
"210 -103 OFFCURVE",
"212 -103 QCURVE SMOOTH",
"252 -103 OFFCURVE",
"293 -84 QCURVE SMOOTH",
"321 -72 OFFCURVE",
"348 -58 QCURVE SMOOTH",
"375 -44 OFFCURVE",
"402 -29 QCURVE SMOOTH",
"413 -23 OFFCURVE",
"422 -16 QCURVE SMOOTH",
"431 -9 OFFCURVE",
"438 0 QCURVE",
"438 -3 OFFCURVE",
"438 -4 QCURVE",
"525 -4 OFFCURVE",
"568 -4 QCURVE",
"568 150 OFFCURVE",
"568 227 QCURVE SMOOTH",
"568 314 OFFCURVE",
"568 357 QCURVE",
"482 357 OFFCURVE",
"438 357 QCURVE SMOOTH",
"352 357 OFFCURVE",
"308 357 QCURVE",
"308 271 OFFCURVE",
"308 227 QCURVE",
"395 227 OFFCURVE",
"438 227 QCURVE",
"438 158 OFFCURVE",
"438 123 QCURVE",
"432 131 OFFCURVE",
"423 138 QCURVE SMOOTH",
"415 145 OFFCURVE",
"404 150 QCURVE SMOOTH",
"366 170 OFFCURVE",
"327 189 QCURVE SMOOTH",
"288 207 OFFCURVE",
"249 225 QCURVE SMOOTH",
"232 232 OFFCURVE",
"218 243 QCURVE SMOOTH",
"204 254 OFFCURVE",
"194 270 QCURVE SMOOTH",
"188 279 OFFCURVE",
"186 289 QCURVE SMOOTH",
"185 299 OFFCURVE",
"188 311 QCURVE SMOOTH",
"192 327 OFFCURVE",
"195 344 QCURVE SMOOTH",
"198 360 OFFCURVE",
"202 377 QCURVE SMOOTH",
"206 390 OFFCURVE",
"211 402 QCURVE SMOOTH",
"216 414 OFFCURVE",
"221 427 QCURVE SMOOTH",
"226 440 OFFCURVE",
"235 453 QCURVE SMOOTH",
"243 466 OFFCURVE",
"243 479 QCURVE SMOOTH",
"241 522 OFFCURVE",
"265 544 QCURVE SMOOTH",
"288 567 OFFCURVE",
"320 583 QCURVE",
"321 584 OFFCURVE",
"323 585 QCURVE SMOOTH",
"324 586 OFFCURVE",
"326 587 QCURVE SMOOTH",
"349 597 OFFCURVE",
"371 595 QCURVE SMOOTH",
"394 592 OFFCURVE",
"417 582 QCURVE",
"413 565 OFFCURVE",
"409 550 QCURVE SMOOTH",
"405 535 OFFCURVE",
"403 520 QCURVE",
"403 520 LINE"
);
}
);
width = 627;
}
);
note = G;
unicode = 0047;
},
{
glyphname = H;
layers = (
{
layerId = "1B5A2E6A-EA81-427B-BCB4-5148866553EF";
paths = (
{
closed = 1;
nodes = (
"62 179 OFFCURVE",
"62 0 QCURVE",
"164 0 OFFCURVE",
"198 0 QCURVE",
"198 221 OFFCURVE",
"198 295 QCURVE",
"371 295 OFFCURVE",
"429 295 QCURVE",
"429 74 OFFCURVE",
"429 0 QCURVE",
"530 0 OFFCURVE",
"564 0 QCURVE",
"564 538 OFFCURVE",
"564 717 QCURVE",
"463 717 OFFCURVE",
"429 717 QCURVE",
"429 497 OFFCURVE",
"429 424 QCURVE",
"255 424 OFFCURVE",
"198 424 QCURVE",
"198 644 OFFCURVE",
"198 717 QCURVE",
"96 717 OFFCURVE",
"62 717 QCURVE",
"62 717 LINE"
);
}
);
width = 627;
}
);
note = H;
unicode = 0048;
},
{
glyphname = I;
layers = (
{
layerId = "1B5A2E6A-EA81-427B-BCB4-5148866553EF";
paths = (
{
closed = 1;
nodes = (
"74 620 OFFCURVE",
"74 588 QCURVE",
"203 588 OFFCURVE",
"246 588 QCURVE",
"246 244 OFFCURVE",
"246 129 QCURVE",
"117 129 OFFCURVE",
"74 129 QCURVE",
"74 32 OFFCURVE",
"74 0 QCURVE",
"433 0 OFFCURVE",
"553 0 QCURVE",
"553 97 OFFCURVE",
"553 129 QCURVE",
"424 129 OFFCURVE",
"381 129 QCURVE",
"381 473 OFFCURVE",
"381 588 QCURVE",
"510 588 OFFCURVE",
"553 588 QCURVE",
"553 685 OFFCURVE",
"553 717 QCURVE",
"194 717 OFFCURVE",
"74 717 QCURVE",
"74 717 LINE"
);
}
);
width = 627;
}
);
note = I;
unicode = 0049;
},
{
glyphname = J;
lastChange = "2020-04-27 16:40:34 +0000";
layers = (
{
layerId = "1B5A2E6A-EA81-427B-BCB4-5148866553EF";
paths = (
{
closed = 1;
nodes = (
"471 127 OFFCURVE",
"441 143 QCURVE SMOOTH",
"412 159 OFFCURVE",
"377 153 QCURVE SMOOTH",
"354 149 OFFCURVE",
"332 141 QCURVE SMOOTH",
"310 134 OFFCURVE",
"286 140 QCURVE SMOOTH",
"242 152 OFFCURVE",
"233 158 QCURVE SMOOTH",
"224 164 OFFCURVE",
"225 207 QCURVE",
"225 207 OFFCURVE",
"225 208 QCURVE",
"225 208 OFFCURVE",
"225 209 QCURVE SMOOTH",
"225 247 OFFCURVE",
"199 273 QCURVE SMOOTH",
"173 299 OFFCURVE",
"134 299 QCURVE SMOOTH",
"103 299 OFFCURVE",
"81 282 QCURVE SMOOTH",
"59 264 OFFCURVE",
"50 239 QCURVE SMOOTH",
"44 223 OFFCURVE",
"44 208 QCURVE SMOOTH",
"44 194 OFFCURVE",
"49 180 QCURVE SMOOTH",
"59 152 OFFCURVE",
"85 136 QCURVE SMOOTH",
"97 128 OFFCURVE",
"111 124 QCURVE SMOOTH",
"124 120 OFFCURVE",
"137 116 QCURVE SMOOTH",
"147 112 OFFCURVE",
"156 107 QCURVE SMOOTH",
"165 103 OFFCURVE",
"165 89 QCURVE SMOOTH",
"165 83 OFFCURVE",
"166 77 QCURVE SMOOTH",
"167 70 OFFCURVE",
"167 64 QCURVE SMOOTH",
"168 22 OFFCURVE",
"200 -3 QCURVE SMOOTH",
"232 -28 OFFCURVE",
"273 -18 QCURVE SMOOTH",
"291 -14 OFFCURVE",
"308 -14 QCURVE SMOOTH",
"326 -14 OFFCURVE",
"344 -20 QCURVE SMOOTH",
"355 -25 OFFCURVE",
"368 -28 QCURVE SMOOTH",
"380 -31 OFFCURVE",
"392 -31 QCURVE SMOOTH",
"441 -31 OFFCURVE",
"468 7 QCURVE SMOOTH",
"496 46 OFFCURVE",
"482 91 QCURVE",
"482 91 LINE"
);
},
{
closed = 1;
nodes = (
"541 222 OFFCURVE",
"531 231 QCURVE SMOOTH",
"522 241 OFFCURVE",
"510 241 QCURVE SMOOTH",
"496 242 OFFCURVE",
"486 232 QCURVE SMOOTH",
"476 222 OFFCURVE",
"476 208 QCURVE SMOOTH",
"476 193 OFFCURVE",
"484 185 QCURVE SMOOTH",
"492 177 OFFCURVE",
"506 177 QCURVE SMOOTH",
"521 177 OFFCURVE",
"531 186 QCURVE SMOOTH",
"541 195 OFFCURVE",
"541 209 QCURVE",
"541 209 LINE"
);
},
{
closed = 1;
nodes = (
"439 433 OFFCURVE",
"439 291 QCURVE",
"526 291 OFFCURVE",
"569 291 QCURVE",
"569 575 OFFCURVE",
"569 717 QCURVE",
"482 717 OFFCURVE",
"439 717 QCURVE",
"439 717 LINE"
);
}
);
width = 627;
}
);
note = J;
unicode = 004A;
},
{
glyphname = K;
lastChange = "2020-04-27 16:42:45 +0000";
layers = (
{
layerId = "1B5A2E6A-EA81-427B-BCB4-5148866553EF";
paths = (
{
closed = 1;
nodes = (
"489 535 OFFCURVE",
"503 550 QCURVE SMOOTH",
"517 565 OFFCURVE",
"546 574 QCURVE SMOOTH",
"588 585 OFFCURVE",
"601 625 QCURVE SMOOTH",
"606 640 OFFCURVE",
"606 655 QCURVE SMOOTH",
"606 679 OFFCURVE",
"593 702 QCURVE SMOOTH",
"578 727 OFFCURVE",
"552 739 QCURVE SMOOTH",
"535 746 OFFCURVE",
"518 746 QCURVE SMOOTH",
"508 746 OFFCURVE",
"497 743 QCURVE SMOOTH",
"463 735 OFFCURVE",
"445 713 QCURVE SMOOTH",
"428 691 OFFCURVE",
"426 656 QCURVE SMOOTH",
"425 623 OFFCURVE",
"420 617 QCURVE SMOOTH",
"414 610 OFFCURVE",
"383 601 QCURVE SMOOTH",
"355 593 OFFCURVE",
"336 575 QCURVE SMOOTH",
"316 558 OFFCURVE",
"310 529 QCURVE SMOOTH",
"305 505 OFFCURVE",
"292 491 QCURVE SMOOTH",
"280 478 OFFCURVE",
"256 470 QCURVE SMOOTH",
"239 465 OFFCURVE",
"226 457 QCURVE SMOOTH",
"213 448 OFFCURVE",
"203 437 QCURVE",
"203 625 OFFCURVE",
"203 719 QCURVE",
"116 719 OFFCURVE",
"73 719 QCURVE",
"73 238 OFFCURVE",
"73 -3 QCURVE",
"159 -3 OFFCURVE",
"203 -3 QCURVE",
"203 188 OFFCURVE",
"203 284 QCURVE",
"211 276 OFFCURVE",
"221 268 QCURVE SMOOTH",
"231 261 OFFCURVE",
"243 256 QCURVE SMOOTH",
"266 245 OFFCURVE",
"280 229 QCURVE SMOOTH",
"294 213 OFFCURVE",
"299 188 QCURVE SMOOTH",
"307 150 OFFCURVE",
"335 129 QCURVE SMOOTH",
"362 109 OFFCURVE",
"401 107 QCURVE SMOOTH",
"406 107 OFFCURVE",
"412 107 QCURVE SMOOTH",
"417 107 OFFCURVE",
"422 107 QCURVE SMOOTH",
"445 107 OFFCURVE",
"449 103 QCURVE SMOOTH",
"453 99 OFFCURVE",
"455 77 QCURVE SMOOTH",
"457 67 OFFCURVE",
"459 56 QCURVE SMOOTH",
"461 45 OFFCURVE",
"465 36 QCURVE SMOOTH",
"473 19 OFFCURVE",
"491 11 QCURVE SMOOTH",
"509 3 OFFCURVE",
"529 8 QCURVE SMOOTH",
"549 12 OFFCURVE",
"560 25 QCURVE SMOOTH",
"571 38 OFFCURVE",
"573 58 QCURVE SMOOTH",
"575 83 OFFCURVE",
"564 99 QCURVE SMOOTH",
"554 114 OFFCURVE",
"529 123 QCURVE SMOOTH",
"500 134 OFFCURVE",
"497 140 QCURVE SMOOTH",
"494 146 OFFCURVE",
"499 173 QCURVE SMOOTH",
"502 189 OFFCURVE",
"503 205 QCURVE SMOOTH",
"503 221 OFFCURVE",
"501 237 QCURVE SMOOTH",
"497 264 OFFCURVE",
"480 282 QCURVE SMOOTH",
"463 299 OFFCURVE",
"439 312 QCURVE SMOOTH",
"427 318 OFFCURVE",
"418 327 QCURVE SMOOTH",
"409 336 OFFCURVE",
"407 351 QCURVE SMOOTH",
"402 384 OFFCURVE",
"410 398 QCURVE SMOOTH",
"417 412 OFFCURVE",
"439 423 QCURVE SMOOTH",
"463 435 OFFCURVE",
"478 455 QCURVE SMOOTH",
"493 475 OFFCURVE",
"492 502 QCURVE",
"492 502 LINE"
);
}
);
width = 627;
}
);
note = K;
unicode = 004B;
},
{
glyphname = L;
layers = (
{
layerId = "1B5A2E6A-EA81-427B-BCB4-5148866553EF";
paths = (
{
closed = 1;
nodes = (
"84 179 OFFCURVE",
"84 0 QCURVE",
"430 0 OFFCURVE",
"545 0 QCURVE",
"545 97 OFFCURVE",
"545 129 QCURVE",
"301 129 OFFCURVE",
"219 129 QCURVE",
"219 570 OFFCURVE",
"219 717 QCURVE",
"118 717 OFFCURVE",
"84 717 QCURVE",
"84 717 LINE"
);
}
);
width = 627;
}
);
note = L;
unicode = 004C;
},
{
glyphname = M;
lastChange = "2020-04-27 16:45:05 +0000";
layers = (
{
layerId = "1B5A2E6A-EA81-427B-BCB4-5148866553EF";
paths = (
{
closed = 1;
nodes = (
"589 721 OFFCURVE",
"580 721 QCURVE",
"567 743 OFFCURVE",
"547 758 QCURVE SMOOTH",
"527 773 OFFCURVE",
"501 777 QCURVE SMOOTH",
"489 779 OFFCURVE",
"479 779 QCURVE SMOOTH",
"444 779 OFFCURVE",
"414 761 QCURVE SMOOTH",
"376 738 OFFCURVE",
"364 693 QCURVE SMOOTH",
"360 675 OFFCURVE",
"361 656 QCURVE SMOOTH",
"362 637 OFFCURVE",
"364 618 QCURVE SMOOTH",
"365 602 OFFCURVE",
"365 587 QCURVE SMOOTH",
"364 571 OFFCURVE",
"351 558 QCURVE SMOOTH",
"338 544 OFFCURVE",
"329 543 QCURVE SMOOTH",
"320 542 OFFCURVE",
"306 555 QCURVE SMOOTH",
"297 563 OFFCURVE",
"289 571 QCURVE SMOOTH",
"281 580 OFFCURVE",
"272 586 QCURVE SMOOTH",
"259 595 OFFCURVE",
"254 607 QCURVE SMOOTH",
"249 618 OFFCURVE",
"250 633 QCURVE SMOOTH",
"251 640 OFFCURVE",
"251 647 QCURVE SMOOTH",
"251 655 OFFCURVE",
"250 662 QCURVE",
"250 703 OFFCURVE",
"222 729 QCURVE SMOOTH",
"195 756 OFFCURVE",
"153 756 QCURVE SMOOTH",
"130 756 OFFCURVE",
"110 746 QCURVE SMOOTH",
"91 737 OFFCURVE",
"78 721 QCURVE",
"40 721 OFFCURVE",
"22 721 QCURVE",
"22 240 OFFCURVE",
"22 -1 QCURVE",
"108 -1 OFFCURVE",
"151 -1 QCURVE",
"151 329 OFFCURVE",
"151 494 QCURVE",
"152 491 OFFCURVE",
"154 488 QCURVE",
"155 484 OFFCURVE",
"156 481 QCURVE SMOOTH",
"164 458 OFFCURVE",
"181 446 QCURVE SMOOTH",
"198 434 OFFCURVE",
"219 427 QCURVE SMOOTH",
"243 419 OFFCURVE",
"246 413 QCURVE",
"250 408 OFFCURVE",
"249 385 QCURVE SMOOTH",
"249 377 OFFCURVE",
"248 369 QCURVE SMOOTH",
"248 361 OFFCURVE",
"249 353 QCURVE SMOOTH",
"251 333 OFFCURVE",
"262 319 QCURVE SMOOTH",
"273 306 OFFCURVE",
"291 299 QCURVE SMOOTH",
"310 291 OFFCURVE",
"328 294 QCURVE SMOOTH",
"346 297 OFFCURVE",
"361 311 QCURVE SMOOTH",
"392 339 OFFCURVE",
"383 379 QCURVE SMOOTH",
"375 420 OFFCURVE",
"334 437 QCURVE SMOOTH",
"317 445 OFFCURVE",
"316 450 QCURVE",
"314 454 OFFCURVE",
"324 477 QCURVE",
"331 472 OFFCURVE",
"337 469 QCURVE SMOOTH",
"342 466 OFFCURVE",
"347 463 QCURVE SMOOTH",
"378 440 OFFCURVE",
"410 446 QCURVE SMOOTH",
"442 453 OFFCURVE",
"457 488 QCURVE SMOOTH",
"461 497 OFFCURVE",
"466 505 QCURVE SMOOTH",
"471 512 OFFCURVE",
"476 518 QCURVE",
"476 172 OFFCURVE",
"476 -1 QCURVE",
"563 -1 OFFCURVE",
"606 -1 QCURVE",
"606 480 OFFCURVE",
"606 721 QCURVE",
"606 721 LINE"
);
}
);
width = 627;
}
);
note = M;
unicode = 004D;
},
{
glyphname = N;
lastChange = "2020-04-27 16:46:58 +0000";
layers = (
{
layerId = "1B5A2E6A-EA81-427B-BCB4-5148866553EF";
paths = (
{
closed = 1;
nodes = (
"394 193 OFFCURVE",
"393 207 QCURVE SMOOTH",
"392 220 OFFCURVE",
"389 234 QCURVE SMOOTH",
"384 249 OFFCURVE",
"385 264 QCURVE SMOOTH",
"386 278 OFFCURVE",
"394 293 QCURVE SMOOTH",
"401 309 OFFCURVE",
"407 325 QCURVE SMOOTH",
"412 341 OFFCURVE",
"417 356 QCURVE",
"413 371 OFFCURVE",
"411 384 QCURVE SMOOTH",
"409 397 OFFCURVE",
"404 408 QCURVE SMOOTH",
"392 433 OFFCURVE",
"387 459 QCURVE SMOOTH",
"381 485 OFFCURVE",
"380 513 QCURVE SMOOTH",
"379 540 OFFCURVE",
"368 562 QCURVE SMOOTH",
"356 585 OFFCURVE",
"333 602 QCURVE SMOOTH",
"315 616 OFFCURVE",
"295 629 QCURVE SMOOTH",
"276 643 OFFCURVE",
"269 668 QCURVE SMOOTH",
"267 674 OFFCURVE",
"264 680 QCURVE SMOOTH",
"262 686 OFFCURVE",
"259 691 QCURVE SMOOTH",
"239 726 OFFCURVE",
"206 735 QCURVE SMOOTH",
"195 738 OFFCURVE",
"184 738 QCURVE SMOOTH",
"163 738 OFFCURVE",
"143 727 QCURVE SMOOTH",
"141 726 OFFCURVE",
"139 724 QCURVE",
"137 723 OFFCURVE",
"134 721 QCURVE",
"86 721 OFFCURVE",
"62 721 QCURVE",
"62 240 OFFCURVE",
"62 -1 QCURVE",
"149 -1 OFFCURVE",
"192 -1 QCURVE",
"192 247 OFFCURVE",
"192 371 QCURVE",
"193 370 OFFCURVE",
"193 369 QCURVE SMOOTH",
"193 367 OFFCURVE",
"194 366 QCURVE",
"200 334 OFFCURVE",
"213 307 QCURVE SMOOTH",
"227 280 OFFCURVE",
"257 264 QCURVE SMOOTH",
"276 253 OFFCURVE",
"288 238 QCURVE SMOOTH",
"300 223 OFFCURVE",
"303 200 QCURVE SMOOTH",
"305 185 OFFCURVE",
"315 176 QCURVE SMOOTH",
"325 166 OFFCURVE",
"340 164 QCURVE SMOOTH",
"353 161 OFFCURVE",
"365 165 QCURVE SMOOTH",
"377 168 OFFCURVE",
"386 181 QCURVE",
"386 181 LINE"
);
},
{
closed = 1;
nodes = (
"481 721 OFFCURVE",
"438 721 QCURVE",
"438 307 OFFCURVE",
"438 100 QCURVE",
"435 101 OFFCURVE",
"432 102 QCURVE",
"430 102 OFFCURVE",
"427 102 QCURVE SMOOTH",
"415 103 OFFCURVE",
"403 91 QCURVE SMOOTH",
"392 79 OFFCURVE",
"392 66 QCURVE SMOOTH",
"392 54 OFFCURVE",
"403 42 QCURVE SMOOTH",
"414 31 OFFCURVE",
"427 31 QCURVE",
"430 30 OFFCURVE",
"432 31 QCURVE",
"435 31 OFFCURVE",
"438 32 QCURVE",
"438 10 OFFCURVE",
"438 -1 QCURVE",
"524 -1 OFFCURVE",
"568 -1 QCURVE",
"568 481 OFFCURVE",
"568 721 QCURVE",
"568 721 LINE"
);
}
);
width = 627;
}
);
note = N;
unicode = 004E;
},
{
glyphname = O;
lastChange = "2020-04-27 16:48:12 +0000";
layers = (
{
layerId = "1B5A2E6A-EA81-427B-BCB4-5148866553EF";
paths = (
{
closed = 1;
nodes = (
"604 495 OFFCURVE",
"604 523 QCURVE SMOOTH",
"604 544 OFFCURVE",
"594 563 QCURVE SMOOTH",
"569 609 OFFCURVE",
"521 617 QCURVE SMOOTH",
"493 622 OFFCURVE",
"488 629 QCURVE SMOOTH",
"482 637 OFFCURVE",
"482 666 QCURVE SMOOTH",
"483 713 OFFCURVE",
"443 743 QCURVE SMOOTH",
"420 761 OFFCURVE",
"395 761 QCURVE SMOOTH",
"375 761 OFFCURVE",
"355 751 QCURVE SMOOTH",
"332 740 OFFCURVE",
"310 738 QCURVE SMOOTH",
"289 735 OFFCURVE",
"264 740 QCURVE SMOOTH",
"232 746 OFFCURVE",
"208 732 QCURVE SMOOTH",
"184 719 OFFCURVE",
"179 688 QCURVE SMOOTH",
"174 658 OFFCURVE",
"159 645 QCURVE SMOOTH",
"143 633 OFFCURVE",
"115 632 QCURVE SMOOTH",
"113 632 OFFCURVE",
"110 631 QCURVE SMOOTH",
"108 630 OFFCURVE",
"105 630 QCURVE",
"62 618 OFFCURVE",
"39 581 QCURVE SMOOTH",
"22 554 OFFCURVE",
"22 523 QCURVE SMOOTH",
"22 512 OFFCURVE",
"24 500 QCURVE SMOOTH",
"29 475 OFFCURVE",
"31 450 QCURVE SMOOTH",
"33 426 OFFCURVE",
"27 400 QCURVE SMOOTH",
"21 373 OFFCURVE",
"27 348 QCURVE SMOOTH",
"34 324 OFFCURVE",
"51 302 QCURVE SMOOTH",
"66 285 OFFCURVE",
"74 266 QCURVE SMOOTH",
"83 248 OFFCURVE",
"84 224 QCURVE SMOOTH",
"85 203 OFFCURVE",
"99 190 QCURVE SMOOTH",
"114 177 OFFCURVE",
"133 177 QCURVE SMOOTH",
"152 176 OFFCURVE",
"167 189 QCURVE SMOOTH",
"182 203 OFFCURVE",
"182 224 QCURVE SMOOTH",
"183 249 OFFCURVE",
"193 268 QCURVE SMOOTH",
"203 287 OFFCURVE",
"216 305 QCURVE SMOOTH",
"232 326 OFFCURVE",
"238 350 QCURVE SMOOTH",
"243 373 OFFCURVE",
"239 400 QCURVE SMOOTH",
"236 422 OFFCURVE",
"237 444 QCURVE SMOOTH",
"239 467 OFFCURVE",
"240 489 QCURVE SMOOTH",
"241 502 OFFCURVE",
"242 514 QCURVE SMOOTH",
"244 527 OFFCURVE",
"245 539 QCURVE",
"241 575 OFFCURVE",
"256 591 QCURVE SMOOTH",
"270 606 OFFCURVE",
"307 604 QCURVE SMOOTH",
"314 604 OFFCURVE",
"322 601 QCURVE SMOOTH",
"330 598 OFFCURVE",
"338 596 QCURVE SMOOTH",
"348 592 OFFCURVE",
"358 588 QCURVE SMOOTH",
"368 584 OFFCURVE",
"378 580 QCURVE SMOOTH",
"402 572 OFFCURVE",
"408 564 QCURVE SMOOTH",
"415 557 OFFCURVE",
"414 532 QCURVE SMOOTH",
"414 513 OFFCURVE",
"417 496 QCURVE SMOOTH",
"420 478 OFFCURVE",
"431 463 QCURVE SMOOTH",
"443 447 OFFCURVE",
"444 430 QCURVE SMOOTH",
"446 413 OFFCURVE",
"443 395 QCURVE SMOOTH",
"442 384 OFFCURVE",
"441 371 QCURVE SMOOTH",
"441 358 OFFCURVE",
"446 350 QCURVE SMOOTH",
"463 323 OFFCURVE",
"461 299 QCURVE SMOOTH",
"460 275 OFFCURVE",
"442 251 QCURVE SMOOTH",
"440 248 OFFCURVE",
"439 245 QCURVE SMOOTH",
"438 241 OFFCURVE",
"436 238 QCURVE",
"431 224 OFFCURVE",
"421 216 QCURVE SMOOTH",
"411 209 OFFCURVE",
"396 207 QCURVE SMOOTH",
"381 204 OFFCURVE",
"366 201 QCURVE SMOOTH",
"351 198 OFFCURVE",
"337 192 QCURVE SMOOTH",
"312 181 OFFCURVE",
"286 170 QCURVE SMOOTH",
"261 160 OFFCURVE",
"232 155 QCURVE SMOOTH",
"202 150 OFFCURVE",
"186 129 QCURVE SMOOTH",
"170 109 OFFCURVE",
"169 79 QCURVE SMOOTH",
"169 52 OFFCURVE",
"184 30 QCURVE SMOOTH",
"199 8 OFFCURVE",
"228 3 QCURVE SMOOTH",
"259 -4 OFFCURVE",
"288 -16 QCURVE SMOOTH",
"317 -28 OFFCURVE",
"346 -39 QCURVE SMOOTH",
"371 -49 OFFCURVE",
"396 -49 QCURVE SMOOTH",
"408 -49 OFFCURVE",
"419 -47 QCURVE SMOOTH",
"454 -39 OFFCURVE",
"485 -9 QCURVE SMOOTH",
"509 16 OFFCURVE",
"515 46 QCURVE SMOOTH",
"521 76 OFFCURVE",
"517 108 QCURVE SMOOTH",
"515 125 OFFCURVE",
"520 138 QCURVE SMOOTH",
"525 150 OFFCURVE",
"539 161 QCURVE SMOOTH",
"571 186 OFFCURVE",
"577 213 QCURVE SMOOTH",
"582 239 OFFCURVE",
"562 274 QCURVE SMOOTH",
"553 289 OFFCURVE",
"553 303 QCURVE SMOOTH",
"553 316 OFFCURVE",
"562 331 QCURVE SMOOTH",
"571 346 OFFCURVE",
"575 362 QCURVE SMOOTH",
"578 379 OFFCURVE",
"573 396 QCURVE SMOOTH",
"568 415 OFFCURVE",
"571 432 QCURVE SMOOTH",
"575 448 OFFCURVE",
"585 464 QCURVE",
"585 464 LINE"
);
}
);
width = 627;
}
);
note = O;
unicode = 004F;
},
{
glyphname = P;
lastChange = "2020-04-27 16:52:05 +0000";
layers = (
{
layerId = "1B5A2E6A-EA81-427B-BCB4-5148866553EF";
paths = (
{
closed = 1;
nodes = (
"549 426 OFFCURVE",
"570 451 QCURVE SMOOTH",
"592 476 OFFCURVE",
"593 507 QCURVE SMOOTH",
"593 508 OFFCURVE",
"593 510 QCURVE SMOOTH",
"593 525 OFFCURVE",
"588 540 QCURVE SMOOTH",
"582 557 OFFCURVE",
"569 571 QCURVE SMOOTH",
"547 594 OFFCURVE",
"537 618 QCURVE SMOOTH",
"527 642 OFFCURVE",
"525 672 QCURVE SMOOTH",
"525 673 OFFCURVE",
"525 674 QCURVE",
"525 674 OFFCURVE",
"525 675 QCURVE SMOOTH",
"518 741 OFFCURVE",
"460 773 QCURVE SMOOTH",
"429 789 OFFCURVE",
"398 789 QCURVE SMOOTH",
"370 789 OFFCURVE",
"342 776 QCURVE SMOOTH",
"319 765 OFFCURVE",
"296 756 QCURVE SMOOTH",
"273 748 OFFCURVE",
"247 746 QCURVE SMOOTH",
"240 745 OFFCURVE",
"233 743 QCURVE SMOOTH",
"226 741 OFFCURVE",
"219 739 QCURVE SMOOTH",
"182 725 OFFCURVE",
"169 688 QCURVE SMOOTH",
"156 652 OFFCURVE",
"175 617 QCURVE SMOOTH",
"188 593 OFFCURVE",
"210 583 QCURVE SMOOTH",
"231 574 OFFCURVE",
"256 570 QCURVE SMOOTH",
"270 567 OFFCURVE",
"284 564 QCURVE SMOOTH",
"298 561 OFFCURVE",
"311 556 QCURVE SMOOTH",
"328 550 OFFCURVE",
"344 542 QCURVE SMOOTH",
"360 535 OFFCURVE",
"377 527 QCURVE SMOOTH",
"400 517 OFFCURVE",
"417 486 QCURVE SMOOTH",
"434 456 OFFCURVE",
"418 436 QCURVE",
"402 422 OFFCURVE",
"362 422 QCURVE SMOOTH",
"322 422 OFFCURVE",
"293 447 QCURVE SMOOTH",
"292 448 OFFCURVE",
"290 449 QCURVE",
"288 449 OFFCURVE",
"286 450 QCURVE SMOOTH",
"258 461 OFFCURVE",
"228 454 QCURVE SMOOTH",
"198 447 OFFCURVE",
"178 425 QCURVE SMOOTH",
"173 420 OFFCURVE",
"170 414 QCURVE SMOOTH",
"166 408 OFFCURVE",
"163 402 QCURVE",
"163 615 OFFCURVE",
"163 721 QCURVE",
"77 721 OFFCURVE",
"33 721 QCURVE",
"33 240 OFFCURVE",
"33 -1 QCURVE",
"120 -1 OFFCURVE",
"163 -1 QCURVE",
"163 216 OFFCURVE",
"163 324 QCURVE",
"164 322 OFFCURVE",
"165 321 QCURVE SMOOTH",
"166 319 OFFCURVE",
"167 317 QCURVE SMOOTH",
"186 282 OFFCURVE",
"224 272 QCURVE SMOOTH",
"263 262 OFFCURVE",
"301 284 QCURVE SMOOTH",
"321 295 OFFCURVE",
"341 300 QCURVE SMOOTH",
"361 305 OFFCURVE",
"386 300 QCURVE SMOOTH",
"416 293 OFFCURVE",
"437 312 QCURVE SMOOTH",
"459 331 OFFCURVE",
"460 362 QCURVE SMOOTH",
"460 374 OFFCURVE",
"457 389 QCURVE SMOOTH",
"455 403 OFFCURVE",
"460 415 QCURVE",
"466 425 OFFCURVE",
"484 422 QCURVE SMOOTH",
"501 419 OFFCURVE",
"514 421 QCURVE",
"514 421 LINE"
);
}
);
width = 627;
}
);
note = P;
unicode = 0050;
},
{
glyphname = Q;
lastChange = "2020-04-27 16:53:30 +0000";
layers = (
{
layerId = "1B5A2E6A-EA81-427B-BCB4-5148866553EF";
paths = (
{
closed = 1;
nodes = (
"303 139 OFFCURVE",
"291 147 QCURVE SMOOTH",
"280 154 OFFCURVE",
"267 159 QCURVE SMOOTH",
"246 167 OFFCURVE",
"237 180 QCURVE SMOOTH",
"227 193 OFFCURVE",
"224 214 QCURVE SMOOTH",
"221 232 OFFCURVE",
"214 250 QCURVE SMOOTH",
"207 267 OFFCURVE",
"200 285 QCURVE SMOOTH",
"194 298 OFFCURVE",
"191 311 QCURVE SMOOTH",
"187 324 OFFCURVE",
"190 340 QCURVE SMOOTH",
"192 352 OFFCURVE",
"190 367 QCURVE SMOOTH",
"189 382 OFFCURVE",
"182 391 QCURVE SMOOTH",
"163 417 OFFCURVE",
"162 440 QCURVE SMOOTH",
"161 463 OFFCURVE",
"175 492 QCURVE SMOOTH",
"188 519 OFFCURVE",
"168 544 QCURVE SMOOTH",
"149 568 OFFCURVE",
"119 568 QCURVE SMOOTH",
"92 568 OFFCURVE",
"75 550 QCURVE SMOOTH",
"58 532 OFFCURVE",
"60 505 QCURVE SMOOTH",
"61 496 OFFCURVE",
"63 487 QCURVE SMOOTH",
"65 478 OFFCURVE",
"70 471 QCURVE SMOOTH",
"81 455 OFFCURVE",
"81 441 QCURVE SMOOTH",
"81 428 OFFCURVE",
"68 413 QCURVE SMOOTH",
"54 398 OFFCURVE",
"50 380 QCURVE SMOOTH",
"45 362 OFFCURVE",
"48 343 QCURVE SMOOTH",
"50 324 OFFCURVE",
"46 307 QCURVE SMOOTH",
"41 291 OFFCURVE",
"31 274 QCURVE SMOOTH",
"17 249 OFFCURVE",
"14 223 QCURVE SMOOTH",
"13 217 OFFCURVE",
"13 212 QCURVE SMOOTH",
"13 191 OFFCURVE",
"24 168 QCURVE SMOOTH",
"34 145 OFFCURVE",
"52 131 QCURVE SMOOTH",
"70 117 OFFCURVE",
"93 110 QCURVE SMOOTH",
"113 104 OFFCURVE",
"123 92 QCURVE SMOOTH",
"133 79 OFFCURVE",
"134 58 QCURVE SMOOTH",
"135 50 OFFCURVE",
"137 42 QCURVE SMOOTH",
"139 34 OFFCURVE",
"142 27 QCURVE SMOOTH",
"157 -10 OFFCURVE",
"193 -26 QCURVE SMOOTH",
"213 -35 OFFCURVE",
"234 -35 QCURVE SMOOTH",
"250 -35 OFFCURVE",
"267 -30 QCURVE SMOOTH",
"278 -26 OFFCURVE",
"289 -19 QCURVE SMOOTH",
"300 -11 OFFCURVE",
"309 -1 QCURVE",
"472 -1 OFFCURVE",
"554 -1 QCURVE",
"554 86 OFFCURVE",
"554 129 QCURVE",
"392 129 OFFCURVE",
"311 129 QCURVE",
"311 129 LINE"
);
},
{
closed = 1;
nodes = (
"605 308 OFFCURVE",
"611 338 QCURVE SMOOTH",
"613 349 OFFCURVE",
"613 359 QCURVE SMOOTH",
"613 379 OFFCURVE",
"606 400 QCURVE SMOOTH",
"596 426 OFFCURVE",
"593 452 QCURVE SMOOTH",
"590 479 OFFCURVE",
"590 506 QCURVE SMOOTH",
"591 547 OFFCURVE",
"569 573 QCURVE SMOOTH",
"547 599 OFFCURVE",
"507 606 QCURVE",
"494 607 OFFCURVE",
"479 604 QCURVE SMOOTH",
"463 601 OFFCURVE",
"454 613 QCURVE SMOOTH",
"446 625 OFFCURVE",
"448 640 QCURVE SMOOTH",
"450 656 OFFCURVE",
"447 668 QCURVE SMOOTH",
"439 702 OFFCURVE",
"414 719 QCURVE SMOOTH",
"400 728 OFFCURVE",
"385 728 QCURVE SMOOTH",
"372 728 OFFCURVE",
"359 722 QCURVE SMOOTH",
"330 710 OFFCURVE",
"304 707 QCURVE SMOOTH",
"278 705 OFFCURVE",
"248 719 QCURVE SMOOTH",
"227 728 OFFCURVE",
"208 718 QCURVE SMOOTH",
"188 708 OFFCURVE",
"177 689 QCURVE SMOOTH",
"168 673 OFFCURVE",
"170 651 QCURVE SMOOTH",
"171 629 OFFCURVE",
"183 615 QCURVE SMOOTH",
"195 599 OFFCURVE",
"215 594 QCURVE SMOOTH",
"234 588 OFFCURVE",
"255 595 QCURVE SMOOTH",
"263 597 OFFCURVE",
"270 601 QCURVE SMOOTH",
"277 605 OFFCURVE",
"285 607 QCURVE SMOOTH",
"292 609 OFFCURVE",
"301 610 QCURVE SMOOTH",
"309 612 OFFCURVE",
"316 609 QCURVE SMOOTH",
"337 602 OFFCURVE",
"363 597 QCURVE SMOOTH",
"389 593 OFFCURVE",
"402 572 QCURVE SMOOTH",
"412 555 OFFCURVE",
"404 532 QCURVE SMOOTH",
"397 509 OFFCURVE",
"396 488 QCURVE SMOOTH",
"396 467 OFFCURVE",
"394 447 QCURVE SMOOTH",
"392 427 OFFCURVE",
"384 407 QCURVE SMOOTH",
"370 372 OFFCURVE",
"377 340 QCURVE SMOOTH",
"383 308 OFFCURVE",
"407 279 QCURVE SMOOTH",
"421 263 OFFCURVE",
"431 246 QCURVE SMOOTH",
"441 228 OFFCURVE",
"446 208 QCURVE SMOOTH",
"452 186 OFFCURVE",
"464 176 QCURVE SMOOTH",
"477 166 OFFCURVE",
"494 166 QCURVE SMOOTH",
"511 166 OFFCURVE",
"523 176 QCURVE SMOOTH",
"536 185 OFFCURVE",
"541 207 QCURVE SMOOTH",
"547 229 OFFCURVE",
"558 247 QCURVE SMOOTH",
"569 265 OFFCURVE",
"583 282 QCURVE",
"583 282 LINE"
);
}
);
width = 627;
}
);
note = Q;
unicode = 0051;
},
{
glyphname = R;
lastChange = "2020-04-27 16:55:09 +0000";
layers = (
{
layerId = "1B5A2E6A-EA81-427B-BCB4-5148866553EF";
paths = (
{
closed = 1;
nodes = (
"570 93 OFFCURVE",
"560 109 QCURVE SMOOTH",
"550 126 OFFCURVE",
"537 140 QCURVE SMOOTH",
"529 149 OFFCURVE",
"523 158 QCURVE SMOOTH",
"517 167 OFFCURVE",
"524 179 QCURVE SMOOTH",
"535 201 OFFCURVE",
"533 221 QCURVE SMOOTH",
"532 241 OFFCURVE",
"520 262 QCURVE SMOOTH",
"516 270 OFFCURVE",
"516 281 QCURVE SMOOTH",
"516 292 OFFCURVE",
"518 302 QCURVE SMOOTH",
"519 315 OFFCURVE",
"523 328 QCURVE SMOOTH",
"527 341 OFFCURVE",
"528 354 QCURVE SMOOTH",
"532 380 OFFCURVE",
"539 404 QCURVE SMOOTH",
"546 428 OFFCURVE",
"565 448 QCURVE SMOOTH",
"579 463 OFFCURVE",
"585 482 QCURVE SMOOTH",
"589 496 OFFCURVE",
"589 511 QCURVE SMOOTH",
"589 515 OFFCURVE",
"589 520 QCURVE SMOOTH",
"587 542 OFFCURVE",
"577 560 QCURVE SMOOTH",
"566 578 OFFCURVE",
"551 593 QCURVE SMOOTH",
"539 605 OFFCURVE",
"533 619 QCURVE SMOOTH",
"526 633 OFFCURVE",
"525 649 QCURVE SMOOTH",
"523 671 OFFCURVE",
"517 692 QCURVE SMOOTH",
"511 712 OFFCURVE",
"497 729 QCURVE SMOOTH",
"468 762 OFFCURVE",
"427 767 QCURVE SMOOTH",
"420 768 OFFCURVE",
"413 768 QCURVE SMOOTH",
"379 768 OFFCURVE",
"348 748 QCURVE SMOOTH",
"332 736 OFFCURVE",
"313 731 QCURVE SMOOTH",
"295 725 OFFCURVE",
"274 724 QCURVE SMOOTH",
"245 722 OFFCURVE",
"225 707 QCURVE SMOOTH",
"206 691 OFFCURVE",
"206 660 QCURVE SMOOTH",
"206 629 OFFCURVE",
"224 613 QCURVE SMOOTH",
"242 597 OFFCURVE",
"271 596 QCURVE SMOOTH",
"300 595 OFFCURVE",
"323 585 QCURVE SMOOTH",
"346 575 OFFCURVE",
"367 557 QCURVE SMOOTH",
"380 546 OFFCURVE",
"385 530 QCURVE SMOOTH",
"389 514 OFFCURVE",
"380 495 QCURVE SMOOTH",
"372 479 OFFCURVE",
"358 471 QCURVE SMOOTH",
"343 463 OFFCURVE",
"328 460 QCURVE SMOOTH",
"309 456 OFFCURVE",
"290 455 QCURVE SMOOTH",
"271 454 OFFCURVE",
"252 451 QCURVE SMOOTH",
"225 448 OFFCURVE",
"206 428 QCURVE SMOOTH",
"187 409 OFFCURVE",
"182 383 QCURVE",
"182 608 OFFCURVE",
"182 721 QCURVE",
"95 721 OFFCURVE",
"52 721 QCURVE",
"52 240 OFFCURVE",
"52 -1 QCURVE",
"138 -1 OFFCURVE",
"182 -1 QCURVE",
"182 231 OFFCURVE",
"182 348 QCURVE SMOOTH",
"182 346 OFFCURVE",
"183 343 QCURVE",
"183 341 OFFCURVE",
"184 339 QCURVE SMOOTH",
"195 306 OFFCURVE",
"219 293 QCURVE SMOOTH",
"242 279 OFFCURVE",
"276 276 QCURVE SMOOTH",
"288 275 OFFCURVE",
"299 275 QCURVE SMOOTH",
"311 275 OFFCURVE",
"322 272 QCURVE SMOOTH",
"339 268 OFFCURVE",
"356 262 QCURVE SMOOTH",
"373 255 OFFCURVE",
"390 251 QCURVE SMOOTH",
"415 246 OFFCURVE",
"430 232 QCURVE SMOOTH",
"445 219 OFFCURVE",
"454 196 QCURVE SMOOTH",
"464 172 OFFCURVE",
"463 164 QCURVE SMOOTH",
"463 156 OFFCURVE",
"445 137 QCURVE SMOOTH",
"428 118 OFFCURVE",
"420 97 QCURVE SMOOTH",
"413 75 OFFCURVE",
"419 50 QCURVE SMOOTH",
"427 20 OFFCURVE",
"452 5 QCURVE SMOOTH",
"469 -5 OFFCURVE",
"491 -5 QCURVE SMOOTH",
"499 -5 OFFCURVE",
"508 -4 QCURVE SMOOTH",
"534 1 OFFCURVE",
"552 21 QCURVE SMOOTH",
"570 41 OFFCURVE",
"568 72 QCURVE",
"568 72 LINE"
);
}
);
width = 627;
}
);
note = R;
unicode = 0052;
},
{
glyphname = S;
lastChange = "2020-04-27 16:56:41 +0000";
layers = (
{
layerId = "1B5A2E6A-EA81-427B-BCB4-5148866553EF";
paths = (
{
closed = 1;
nodes = (
"56 497 OFFCURVE",
"56 493 QCURVE SMOOTH",
"56 468 OFFCURVE",
"69 450 QCURVE SMOOTH",
"83 428 OFFCURVE",
"107 413 QCURVE SMOOTH",
"124 403 OFFCURVE",
"133 389 QCURVE SMOOTH",
"143 376 OFFCURVE",
"143 356 QCURVE SMOOTH",
"145 296 OFFCURVE",
"188 263 QCURVE SMOOTH",
"231 229 OFFCURVE",
"287 236 QCURVE SMOOTH",
"305 238 OFFCURVE",
"323 236 QCURVE SMOOTH",
"341 233 OFFCURVE",
"359 232 QCURVE SMOOTH",
"373 230 OFFCURVE",
"387 227 QCURVE SMOOTH",
"402 224 OFFCURVE",
"416 224 QCURVE SMOOTH",
"434 224 OFFCURVE",
"446 217 QCURVE SMOOTH",
"458 210 OFFCURVE",
"465 191 QCURVE SMOOTH",
"468 181 OFFCURVE",
"475 171 QCURVE SMOOTH",
"483 161 OFFCURVE",
"492 155 QCURVE SMOOTH",
"512 140 OFFCURVE",
"537 145 QCURVE SMOOTH",
"561 150 OFFCURVE",
"575 170 QCURVE SMOOTH",
"586 187 OFFCURVE",
"586 208 QCURVE SMOOTH",
"586 211 OFFCURVE",
"586 215 QCURVE SMOOTH",
"583 240 OFFCURVE",
"562 254 QCURVE SMOOTH",
"538 269 OFFCURVE",
"531 288 QCURVE SMOOTH",
"525 307 OFFCURVE",
"533 333 QCURVE",
"533 335 OFFCURVE",
"534 338 QCURVE",
"534 341 OFFCURVE",
"534 343 QCURVE SMOOTH",
"538 407 OFFCURVE",
"493 448 QCURVE SMOOTH",
"448 489 OFFCURVE",
"391 480 QCURVE SMOOTH",
"376 478 OFFCURVE",
"361 475 QCURVE SMOOTH",
"346 471 OFFCURVE",
"331 471 QCURVE SMOOTH",
"317 471 OFFCURVE",
"303 473 QCURVE SMOOTH",
"288 474 OFFCURVE",
"276 479 QCURVE SMOOTH",
"260 486 OFFCURVE",
"260 503 QCURVE SMOOTH",
"260 519 OFFCURVE",
"275 528 QCURVE SMOOTH",
"281 531 OFFCURVE",
"287 533 QCURVE SMOOTH",
"293 535 OFFCURVE",
"299 537 QCURVE SMOOTH",
"333 552 OFFCURVE",
"367 560 QCURVE SMOOTH",
"402 568 OFFCURVE",
"441 564 QCURVE SMOOTH",
"475 561 OFFCURVE",
"498 587 QCURVE SMOOTH",
"520 613 OFFCURVE",
"521 648 QCURVE SMOOTH",
"521 690 OFFCURVE",
"494 714 QCURVE SMOOTH",
"467 739 OFFCURVE",
"422 735 QCURVE SMOOTH",
"396 732 OFFCURVE",
"372 736 QCURVE SMOOTH",
"349 740 OFFCURVE",
"325 752 QCURVE SMOOTH",
"301 764 OFFCURVE",
"276 764 QCURVE SMOOTH",
"263 764 OFFCURVE",
"250 760 QCURVE SMOOTH",
"211 751 OFFCURVE",
"186 719 QCURVE SMOOTH",
"172 703 OFFCURVE",
"167 684 QCURVE SMOOTH",
"162 665 OFFCURVE",
"161 645 QCURVE SMOOTH",
"160 627 OFFCURVE",
"152 616 QCURVE SMOOTH",
"144 605 OFFCURVE",
"128 599 QCURVE SMOOTH",
"123 597 OFFCURVE",
"119 594 QCURVE",
"114 592 OFFCURVE",
"109 589 QCURVE SMOOTH",
"83 575 OFFCURVE",
"69 554 QCURVE SMOOTH",
"55 532 OFFCURVE",
"56 500 QCURVE",
"56 500 LINE"
);
},
{
closed = 1;
nodes = (
"151 14 OFFCURVE",
"184 -9 QCURVE SMOOTH",
"206 -25 OFFCURVE",
"231 -25 QCURVE SMOOTH",
"244 -25 OFFCURVE",
"258 -21 QCURVE SMOOTH",
"301 -8 OFFCURVE",
"315 -8 QCURVE SMOOTH",
"330 -7 OFFCURVE",
"374 -16 QCURVE SMOOTH",
"396 -21 OFFCURVE",
"415 -15 QCURVE SMOOTH",
"434 -9 OFFCURVE",
"448 9 QCURVE SMOOTH",
"463 26 OFFCURVE",
"466 45 QCURVE SMOOTH",
"470 64 OFFCURVE",
"462 86 QCURVE SMOOTH",
"449 117 OFFCURVE",
"422 129 QCURVE SMOOTH",
"395 141 OFFCURVE",
"362 127 QCURVE SMOOTH",
"338 116 OFFCURVE",
"317 116 QCURVE SMOOTH",
"297 116 OFFCURVE",
"272 130 QCURVE SMOOTH",
"229 154 OFFCURVE",
"190 129 QCURVE SMOOTH",
"150 104 OFFCURVE",
"150 56 QCURVE",
"150 56 LINE"
);
}
);
width = 627;
}
);
note = S;
unicode = 0053;
},
{
glyphname = T;
layers = (
{
layerId = "1B5A2E6A-EA81-427B-BCB4-5148866553EF";
paths = (
{
closed = 1;
nodes = (
"55 620 OFFCURVE",
"55 588 QCURVE",
"198 588 OFFCURVE",
"246 588 QCURVE",
"246 147 OFFCURVE",
"246 0 QCURVE",
"347 0 OFFCURVE",
"381 0 QCURVE",
"381 441 OFFCURVE",
"381 588 QCURVE",
"524 588 OFFCURVE",
"571 588 QCURVE",
"571 685 OFFCURVE",
"571 717 QCURVE",
"184 717 OFFCURVE",
"55 717 QCURVE",
"55 717 LINE"
);
}
);
width = 627;
}
);
note = T;
unicode = 0054;
},
{
glyphname = U;
lastChange = "2020-04-27 16:57:47 +0000";
layers = (
{
layerId = "1B5A2E6A-EA81-427B-BCB4-5148866553EF";
paths = (
{
closed = 1;
nodes = (
"644 253 OFFCURVE",
"623 288 QCURVE SMOOTH",
"601 322 OFFCURVE",
"566 340 QCURVE",
"566 595 OFFCURVE",
"566 723 QCURVE",
"479 723 OFFCURVE",
"436 723 QCURVE",
"436 465 OFFCURVE",
"436 336 QCURVE",
"428 331 OFFCURVE",
"420 326 QCURVE SMOOTH",
"413 320 OFFCURVE",
"406 314 QCURVE SMOOTH",
"388 296 OFFCURVE",
"378 274 QCURVE SMOOTH",
"369 252 OFFCURVE",
"363 228 QCURVE SMOOTH",
"359 207 OFFCURVE",
"346 193 QCURVE SMOOTH",
"334 179 OFFCURVE",
"313 174 QCURVE SMOOTH",
"302 171 OFFCURVE",
"291 171 QCURVE SMOOTH",
"280 171 OFFCURVE",
"270 172 QCURVE SMOOTH",
"241 174 OFFCURVE",
"232 183 QCURVE SMOOTH",
"222 192 OFFCURVE",
"222 212 QCURVE",
"221 219 OFFCURVE",
"220 225 QCURVE SMOOTH",
"219 231 OFFCURVE",
"217 237 QCURVE SMOOTH",
"211 258 OFFCURVE",
"199 273 QCURVE SMOOTH",
"186 289 OFFCURVE",
"167 297 QCURVE",
"183 297 OFFCURVE",
"190 297 QCURVE",
"190 581 OFFCURVE",
"190 723 QCURVE",
"104 723 OFFCURVE",
"60 723 QCURVE",
"60 439 OFFCURVE",
"60 297 QCURVE",
"80 297 OFFCURVE",
"90 297 QCURVE",
"83 293 OFFCURVE",
"76 288 QCURVE SMOOTH",
"69 283 OFFCURVE",
"62 276 QCURVE SMOOTH",
"37 249 OFFCURVE",
"37 216 QCURVE SMOOTH",
"38 206 OFFCURVE",
"40 194 QCURVE SMOOTH",
"51 148 OFFCURVE",
"99 129 QCURVE SMOOTH",
"120 120 OFFCURVE",
"130 108 QCURVE SMOOTH",
"140 96 OFFCURVE",
"140 72 QCURVE SMOOTH",
"141 21 OFFCURVE",
"172 -8 QCURVE SMOOTH",
"203 -37 OFFCURVE",
"253 -37 QCURVE SMOOTH",
"279 -37 OFFCURVE",
"303 -40 QCURVE SMOOTH",
"328 -43 OFFCURVE",
"353 -50 QCURVE SMOOTH",
"373 -56 OFFCURVE",
"392 -56 QCURVE SMOOTH",
"418 -56 OFFCURVE",
"441 -45 QCURVE SMOOTH",
"481 -27 OFFCURVE",
"501 19 QCURVE SMOOTH",
"512 44 OFFCURVE",
"529 62 QCURVE SMOOTH",
"546 79 OFFCURVE",
"571 92 QCURVE SMOOTH",
"607 111 OFFCURVE",
"625 142 QCURVE SMOOTH",
"643 173 OFFCURVE",
"644 210 QCURVE",
"644 210 LINE"
);
}
);
width = 627;
}
);
note = U;
unicode = 0055;
},
{
glyphname = V;
lastChange = "2020-04-27 16:58:36 +0000";
layers = (
{
layerId = "1B5A2E6A-EA81-427B-BCB4-5148866553EF";
paths = (
{
closed = 1;
nodes = (
"656 653 OFFCURVE",
"656 670 QCURVE SMOOTH",
"656 686 OFFCURVE",
"652 700 QCURVE SMOOTH",
"643 732 OFFCURVE",
"617 757 QCURVE SMOOTH",
"590 782 OFFCURVE",
"558 790 QCURVE SMOOTH",
"546 793 OFFCURVE",
"532 793 QCURVE SMOOTH",
"512 793 OFFCURVE",
"490 786 QCURVE SMOOTH",
"450 772 OFFCURVE",
"430 743 QCURVE SMOOTH",
"409 714 OFFCURVE",
"402 673 QCURVE SMOOTH",
"398 653 OFFCURVE",
"393 633 QCURVE SMOOTH",
"387 613 OFFCURVE",
"378 595 QCURVE SMOOTH",
"359 559 OFFCURVE",
"358 525 QCURVE SMOOTH",
"358 490 OFFCURVE",
"370 452 QCURVE SMOOTH",
"392 385 OFFCURVE",
"374 346 QCURVE SMOOTH",
"357 308 OFFCURVE",
"302 273 QCURVE",
"277 289 OFFCURVE",
"258 309 QCURVE SMOOTH",
"239 328 OFFCURVE",
"240 365 QCURVE SMOOTH",
"241 387 OFFCURVE",
"230 407 QCURVE SMOOTH",
"220 427 OFFCURVE",
"199 441 QCURVE SMOOTH",
"186 449 OFFCURVE",
"181 461 QCURVE SMOOTH",
"177 473 OFFCURVE",
"181 490 QCURVE SMOOTH",
"185 503 OFFCURVE",
"185 519 QCURVE SMOOTH",
"186 536 OFFCURVE",
"178 545 QCURVE SMOOTH",
"158 571 OFFCURVE",
"157 596 QCURVE SMOOTH",
"156 621 OFFCURVE",
"167 650 QCURVE SMOOTH",
"175 672 OFFCURVE",
"167 693 QCURVE SMOOTH",
"158 715 OFFCURVE",
"139 730 QCURVE SMOOTH",
"119 745 OFFCURVE",
"97 746 QCURVE SMOOTH",
"75 748 OFFCURVE",
"53 738 QCURVE SMOOTH",
"31 727 OFFCURVE",
"21 709 QCURVE SMOOTH",
"10 690 OFFCURVE",
"10 665 QCURVE SMOOTH",
"10 640 OFFCURVE",
"21 623 QCURVE SMOOTH",
"33 606 OFFCURVE",
"50 593 QCURVE SMOOTH",
"63 583 OFFCURVE",
"68 572 QCURVE SMOOTH",
"73 561 OFFCURVE",
"68 547 QCURVE SMOOTH",
"61 523 OFFCURVE",
"66 502 QCURVE SMOOTH",
"72 482 OFFCURVE",
"90 465 QCURVE SMOOTH",
"100 455 OFFCURVE",
"103 444 QCURVE SMOOTH",
"105 433 OFFCURVE",
"98 420 QCURVE SMOOTH",
"84 394 OFFCURVE",
"85 368 QCURVE SMOOTH",
"86 342 OFFCURVE",
"102 317 QCURVE SMOOTH",
"109 305 OFFCURVE",
"111 292 QCURVE SMOOTH",
"112 280 OFFCURVE",
"108 265 QCURVE SMOOTH",
"105 253 OFFCURVE",
"102 239 QCURVE SMOOTH",
"98 225 OFFCURVE",
"101 213 QCURVE SMOOTH",
"106 183 OFFCURVE",
"102 155 QCURVE SMOOTH",
"99 127 OFFCURVE",
"94 99 QCURVE SMOOTH",
"87 52 OFFCURVE",
"103 15 QCURVE SMOOTH",
"120 -22 OFFCURVE",
"159 -47 QCURVE SMOOTH",
"197 -72 OFFCURVE",
"237 -72 QCURVE SMOOTH",
"276 -71 OFFCURVE",
"315 -48 QCURVE SMOOTH",
"338 -34 OFFCURVE",
"360 -21 QCURVE SMOOTH",
"382 -7 OFFCURVE",
"404 7 QCURVE SMOOTH",
"424 19 OFFCURVE",
"436 35 QCURVE SMOOTH",
"449 52 OFFCURVE",
"451 75 QCURVE SMOOTH",
"453 91 OFFCURVE",
"460 104 QCURVE SMOOTH",
"467 117 OFFCURVE",
"480 128 QCURVE SMOOTH",
"515 157 OFFCURVE",
"524 193 QCURVE SMOOTH",
"534 230 OFFCURVE",
"519 273 QCURVE SMOOTH",
"514 287 OFFCURVE",
"516 301 QCURVE SMOOTH",
"519 315 OFFCURVE",
"523 329 QCURVE SMOOTH",
"533 356 OFFCURVE",
"549 378 QCURVE SMOOTH",
"566 400 OFFCURVE",
"587 419 QCURVE SMOOTH",
"608 437 OFFCURVE",
"619 461 QCURVE SMOOTH",
"630 485 OFFCURVE",
"630 511 QCURVE SMOOTH",
"631 543 OFFCURVE",
"636 574 QCURVE SMOOTH",
"642 604 OFFCURVE",
"651 634 QCURVE",
"651 634 LINE"
);
}
);
width = 627;
}
);
note = V;
unicode = 0056;
},
{
glyphname = W;
lastChange = "2020-04-27 16:59:48 +0000";
layers = (
{
layerId = "1B5A2E6A-EA81-427B-BCB4-5148866553EF";
paths = (
{
closed = 1;
nodes = (
"610 481 OFFCURVE",
"610 721 QCURVE",
"523 721 OFFCURVE",
"480 721 QCURVE",
"480 402 OFFCURVE",
"480 243 QCURVE",
"475 257 OFFCURVE",
"464 269 QCURVE SMOOTH",
"453 280 OFFCURVE",
"436 289 QCURVE SMOOTH",
"429 292 OFFCURVE",
"422 294 QCURVE SMOOTH",
"416 297 OFFCURVE",
"409 299 QCURVE SMOOTH",
"398 303 OFFCURVE",
"394 311 QCURVE SMOOTH",
"390 318 OFFCURVE",
"392 330 QCURVE SMOOTH",
"393 341 OFFCURVE",
"395 351 QCURVE SMOOTH",
"396 362 OFFCURVE",
"395 373 QCURVE SMOOTH",
"392 402 OFFCURVE",
"370 419 QCURVE SMOOTH",
"349 437 OFFCURVE",
"317 435 QCURVE SMOOTH",
"288 434 OFFCURVE",
"270 415 QCURVE SMOOTH",
"251 397 OFFCURVE",
"252 368 QCURVE SMOOTH",
"252 351 OFFCURVE",
"256 334 QCURVE SMOOTH",
"259 317 OFFCURVE",
"263 296 QCURVE",
"260 295 OFFCURVE",
"257 292 QCURVE SMOOTH",
"253 289 OFFCURVE",
"249 289 QCURVE",
"214 284 OFFCURVE",
"193 264 QCURVE SMOOTH",
"172 244 OFFCURVE",
"169 207 QCURVE SMOOTH",
"168 198 OFFCURVE",
"165 192 QCURVE SMOOTH",
"161 185 OFFCURVE",
"155 180 QCURVE",
"155 541 OFFCURVE",
"155 721 QCURVE",
"69 721 OFFCURVE",
"25 721 QCURVE",
"25 240 OFFCURVE",
"25 -1 QCURVE",
"64 -1 OFFCURVE",
"83 -1 QCURVE",
"102 -22 OFFCURVE",
"129 -31 QCURVE SMOOTH",
"144 -36 OFFCURVE",
"160 -36 QCURVE SMOOTH",
"172 -36 OFFCURVE",
"184 -33 QCURVE SMOOTH",
"226 -22 OFFCURVE",
"247 11 QCURVE SMOOTH",
"269 44 OFFCURVE",
"260 87 QCURVE SMOOTH",
"254 117 OFFCURVE",
"264 138 QCURVE SMOOTH",
"274 159 OFFCURVE",
"299 174 QCURVE SMOOTH",
"309 180 OFFCURVE",
"317 181 QCURVE SMOOTH",
"326 182 OFFCURVE",
"334 173 QCURVE SMOOTH",
"349 157 OFFCURVE",
"366 147 QCURVE SMOOTH",
"384 137 OFFCURVE",
"405 132 QCURVE SMOOTH",
"418 128 OFFCURVE",
"421 120 QCURVE SMOOTH",
"425 112 OFFCURVE",
"421 99 QCURVE SMOOTH",
"418 90 OFFCURVE",
"418 81 QCURVE SMOOTH",
"417 72 OFFCURVE",
"418 63 QCURVE SMOOTH",
"419 41 OFFCURVE",
"433 24 QCURVE SMOOTH",
"448 7 OFFCURVE",
"469 1 QCURVE SMOOTH",
"475 -1 OFFCURVE",
"480 -1 QCURVE SMOOTH",
"486 -1 OFFCURVE",
"491 -1 QCURVE SMOOTH",
"570 -1 OFFCURVE",
"610 -1 QCURVE",
"610 -1 LINE"
);
}
);
width = 627;
}
);
note = W;
unicode = 0057;
},
{
glyphname = X;
lastChange = "2020-04-27 17:00:50 +0000";
layers = (
{
layerId = "1B5A2E6A-EA81-427B-BCB4-5148866553EF";
paths = (
{
closed = 1;
nodes = (
"15 626 OFFCURVE",
"37 605 QCURVE SMOOTH",
"59 584 OFFCURVE",
"92 585 QCURVE SMOOTH",
"121 586 OFFCURVE",
"136 604 QCURVE SMOOTH",
"151 622 OFFCURVE",
"151 655 QCURVE SMOOTH",
"152 688 OFFCURVE",
"134 707 QCURVE SMOOTH",
"116 726 OFFCURVE",
"84 726 QCURVE SMOOTH",
"53 726 OFFCURVE",
"34 707 QCURVE SMOOTH",
"14 688 OFFCURVE",
"14 657 QCURVE",
"14 657 LINE"
);
},
{
closed = 1;
nodes = (
"671 50 OFFCURVE",
"671 67 QCURVE SMOOTH",
"671 101 OFFCURVE",
"656 133 QCURVE SMOOTH",
"632 182 OFFCURVE",
"583 203 QCURVE SMOOTH",
"547 218 OFFCURVE",
"515 232 QCURVE SMOOTH",
"482 246 OFFCURVE",
"459 279 QCURVE",
"454 284 OFFCURVE",
"450 288 QCURVE SMOOTH",
"445 292 OFFCURVE",
"441 295 QCURVE SMOOTH",
"430 304 OFFCURVE",
"423 315 QCURVE SMOOTH",
"417 326 OFFCURVE",
"418 341 QCURVE SMOOTH",
"419 349 OFFCURVE",
"419 356 QCURVE SMOOTH",
"419 363 OFFCURVE",
"418 370 QCURVE SMOOTH",
"416 391 OFFCURVE",
"424 407 QCURVE SMOOTH",
"432 422 OFFCURVE",
"450 433 QCURVE SMOOTH",
"474 448 OFFCURVE",
"485 471 QCURVE SMOOTH",
"496 493 OFFCURVE",
"496 522 QCURVE",
"495 530 OFFCURVE",
"496 538 QCURVE SMOOTH",
"497 546 OFFCURVE",
"497 555 QCURVE",
"513 561 OFFCURVE",
"528 566 QCURVE SMOOTH",
"544 571 OFFCURVE",
"558 578 QCURVE SMOOTH",
"589 593 OFFCURVE",
"601 626 QCURVE SMOOTH",
"613 659 OFFCURVE",
"600 691 QCURVE SMOOTH",
"587 724 OFFCURVE",
"556 739 QCURVE SMOOTH",
"538 748 OFFCURVE",
"518 748 QCURVE SMOOTH",
"505 748 OFFCURVE",
"491 744 QCURVE SMOOTH",
"458 734 OFFCURVE",
"442 709 QCURVE SMOOTH",
"426 685 OFFCURVE",
"426 644 QCURVE SMOOTH",
"425 616 OFFCURVE",
"421 610 QCURVE SMOOTH",
"417 604 OFFCURVE",
"393 596 QCURVE SMOOTH",
"366 587 OFFCURVE",
"348 570 QCURVE SMOOTH",
"330 552 OFFCURVE",
"322 525 QCURVE SMOOTH",
"320 519 OFFCURVE",
"318 513 QCURVE SMOOTH",
"315 507 OFFCURVE",
"311 502 QCURVE SMOOTH",
"303 492 OFFCURVE",
"293 492 QCURVE SMOOTH",
"283 493 OFFCURVE",
"276 504 QCURVE SMOOTH",
"273 510 OFFCURVE",
"271 516 QCURVE SMOOTH",
"270 522 OFFCURVE",
"267 528 QCURVE SMOOTH",
"260 538 OFFCURVE",
"254 549 QCURVE SMOOTH",
"247 560 OFFCURVE",
"238 568 QCURVE SMOOTH",
"220 585 OFFCURVE",
"186 586 QCURVE SMOOTH",
"152 586 OFFCURVE",
"138 571 QCURVE SMOOTH",
"116 548 OFFCURVE",
"115 512 QCURVE SMOOTH",
"114 476 OFFCURVE",
"140 458 QCURVE SMOOTH",
"171 436 OFFCURVE",
"178 410 QCURVE SMOOTH",
"185 384 OFFCURVE",
"181 350 QCURVE SMOOTH",
"179 331 OFFCURVE",
"174 317 QCURVE SMOOTH",
"169 303 OFFCURVE",
"152 293 QCURVE SMOOTH",
"137 285 OFFCURVE",
"125 273 QCURVE SMOOTH",
"113 262 OFFCURVE",
"111 245 QCURVE SMOOTH",
"107 209 OFFCURVE",
"87 192 QCURVE SMOOTH",
"66 174 OFFCURVE",
"35 163 QCURVE SMOOTH",
"4 151 OFFCURVE",
"-10 125 QCURVE SMOOTH",
"-25 99 OFFCURVE",
"-25 65 QCURVE SMOOTH",
"-24 31 OFFCURVE",
"-9 6 QCURVE SMOOTH",
"6 -19 OFFCURVE",
"36 -33 QCURVE SMOOTH",
"66 -46 OFFCURVE",
"95 -44 QCURVE SMOOTH",
"125 -41 OFFCURVE",
"152 -20 QCURVE SMOOTH",
"173 -3 OFFCURVE",
"183 19 QCURVE SMOOTH",
"193 41 OFFCURVE",
"192 68 QCURVE SMOOTH",
"191 90 OFFCURVE",
"199 107 QCURVE SMOOTH",
"206 124 OFFCURVE",
"229 134 QCURVE SMOOTH",
"248 142 OFFCURVE",
"260 158 QCURVE SMOOTH",
"272 173 OFFCURVE",
"280 192 QCURVE SMOOTH",
"283 201 OFFCURVE",
"288 209 QCURVE SMOOTH",
"293 216 OFFCURVE",
"298 224 QCURVE",
"300 230 OFFCURVE",
"302 230 QCURVE",
"303 229 OFFCURVE",
"307 224 QCURVE",
"320 192 OFFCURVE",
"339 164 QCURVE SMOOTH",
"358 135 OFFCURVE",
"364 100 QCURVE SMOOTH",
"364 98 OFFCURVE",
"364 96 QCURVE SMOOTH",
"364 93 OFFCURVE",
"365 92 QCURVE",
"365 77 OFFCURVE",
"365 62 QCURVE SMOOTH",
"364 47 OFFCURVE",
"367 32 QCURVE SMOOTH",
"376 -20 OFFCURVE",
"422 -55 QCURVE SMOOTH",
"465 -89 OFFCURVE",
"515 -89 QCURVE SMOOTH",
"518 -89 OFFCURVE",
"521 -89 QCURVE SMOOTH",
"573 -87 OFFCURVE",
"615 -52 QCURVE SMOOTH",
"656 -18 OFFCURVE",
"667 33 QCURVE",
"667 33 LINE"
);
}
);
width = 627;
}
);
note = X;
unicode = 0058;
},
{
glyphname = Y;
lastChange = "2020-04-27 17:03:24 +0000";
layers = (
{
layerId = "1B5A2E6A-EA81-427B-BCB4-5148866553EF";
paths = (
{
closed = 1;
nodes = (
"614 547 OFFCURVE",
"640 592 QCURVE SMOOTH",
"657 621 OFFCURVE",
"657 655 QCURVE SMOOTH",
"657 673 OFFCURVE",
"652 693 QCURVE SMOOTH",
"639 747 OFFCURVE",
"592 775 QCURVE SMOOTH",
"555 797 OFFCURVE",
"517 797 QCURVE SMOOTH",
"507 797 OFFCURVE",
"497 795 QCURVE SMOOTH",
"436 785 OFFCURVE",
"405 738 QCURVE SMOOTH",
"374 691 OFFCURVE",
"378 643 QCURVE SMOOTH",
"380 627 OFFCURVE",
"380 611 QCURVE SMOOTH",
"380 594 OFFCURVE",
"376 579 QCURVE SMOOTH",
"368 556 OFFCURVE",
"357 533 QCURVE SMOOTH",
"345 511 OFFCURVE",
"334 486 QCURVE",
"322 490 OFFCURVE",
"322 499 QCURVE SMOOTH",
"322 508 OFFCURVE",
"320 516 QCURVE SMOOTH",
"310 557 OFFCURVE",
"285 582 QCURVE SMOOTH",
"261 608 OFFCURVE",
"218 614 QCURVE SMOOTH",
"214 615 OFFCURVE",
"211 616 QCURVE SMOOTH",
"208 617 OFFCURVE",
"204 618 QCURVE",
"191 619 OFFCURVE",
"185 626 QCURVE SMOOTH",
"178 633 OFFCURVE",
"178 646 QCURVE SMOOTH",
"177 653 OFFCURVE",
"177 661 QCURVE SMOOTH",
"176 668 OFFCURVE",
"174 675 QCURVE SMOOTH",
"167 703 OFFCURVE",
"143 718 QCURVE SMOOTH",
"119 734 OFFCURVE",
"89 729 QCURVE SMOOTH",
"63 726 OFFCURVE",
"47 705 QCURVE SMOOTH",
"31 684 OFFCURVE",
"31 654 QCURVE SMOOTH",
"31 627 OFFCURVE",
"46 611 QCURVE SMOOTH",
"61 595 OFFCURVE",
"84 585 QCURVE SMOOTH",
"104 576 OFFCURVE",
"108 569 QCURVE SMOOTH",
"112 562 OFFCURVE",
"110 541 QCURVE SMOOTH",
"110 531 OFFCURVE",
"108 522 QCURVE SMOOTH",
"106 512 OFFCURVE",
"107 502 QCURVE SMOOTH",
"112 472 OFFCURVE",
"127 449 QCURVE SMOOTH",
"142 426 OFFCURVE",
"172 414 QCURVE SMOOTH",
"196 405 OFFCURVE",
"207 389 QCURVE SMOOTH",
"219 373 OFFCURVE",
"222 347 QCURVE SMOOTH",
"224 324 OFFCURVE",
"236 306 QCURVE SMOOTH",
"248 289 OFFCURVE",
"265 278 QCURVE",
"255 278 OFFCURVE",
"250 278 QCURVE",
"250 93 OFFCURVE",
"250 0 QCURVE",
"336 0 OFFCURVE",
"380 0 QCURVE",
"380 185 OFFCURVE",
"380 278 QCURVE",
"375 278 OFFCURVE",
"373 278 QCURVE",
"389 288 OFFCURVE",
"400 306 QCURVE SMOOTH",
"412 323 OFFCURVE",
"416 346 QCURVE SMOOTH",
"418 357 OFFCURVE",
"417 369 QCURVE SMOOTH",
"417 380 OFFCURVE",
"416 392 QCURVE SMOOTH",
"415 407 OFFCURVE",
"419 417 QCURVE SMOOTH",
"424 428 OFFCURVE",
"441 432 QCURVE SMOOTH",
"463 439 OFFCURVE",
"479 453 QCURVE SMOOTH",
"494 467 OFFCURVE",
"505 487 QCURVE SMOOTH",
"511 499 OFFCURVE",
"520 506 QCURVE SMOOTH",
"530 514 OFFCURVE",
"543 518 QCURVE SMOOTH",
"551 521 OFFCURVE",
"559 525 QCURVE SMOOTH",
"567 528 OFFCURVE",
"576 532 QCURVE",
"576 532 LINE"
);
}
);
width = 627;
}
);
note = Y;
unicode = 0059;
},
{
glyphname = Z;
lastChange = "2020-04-27 17:05:45 +0000";
layers = (
{
layerId = "1B5A2E6A-EA81-427B-BCB4-5148866553EF";
paths = (
{
closed = 1;
nodes = (
"638 505 OFFCURVE",
"638 512 QCURVE SMOOTH",
"638 544 OFFCURVE",
"625 570 QCURVE SMOOTH",
"609 602 OFFCURVE",
"575 623 QCURVE SMOOTH",
"573 624 OFFCURVE",
"571 625 QCURVE SMOOTH",
"569 626 OFFCURVE",
"568 627 QCURVE",
"568 689 OFFCURVE",
"568 721 QCURVE",
"231 721 OFFCURVE",
"62 721 QCURVE",
"62 634 OFFCURVE",
"62 591 QCURVE",
"289 591 OFFCURVE",
"403 591 QCURVE",
"395 581 OFFCURVE",
"389 569 QCURVE SMOOTH",
"383 557 OFFCURVE",
"380 543 QCURVE SMOOTH",
"377 534 OFFCURVE",
"375 524 QCURVE SMOOTH",
"374 514 OFFCURVE",
"373 504 QCURVE SMOOTH",
"372 487 OFFCURVE",
"364 476 QCURVE SMOOTH",
"356 464 OFFCURVE",
"343 454 QCURVE SMOOTH",
"323 438 OFFCURVE",
"300 432 QCURVE SMOOTH",
"278 426 OFFCURVE",
"252 427 QCURVE SMOOTH",
"221 428 OFFCURVE",
"204 412 QCURVE SMOOTH",
"186 396 OFFCURVE",
"183 369 QCURVE SMOOTH",
"179 333 OFFCURVE",
"172 326 QCURVE SMOOTH",
"166 319 OFFCURVE",
"130 316 QCURVE SMOOTH",
"127 316 OFFCURVE",
"123 316 QCURVE SMOOTH",
"119 316 OFFCURVE",
"116 316 QCURVE",
"69 307 OFFCURVE",
"44 267 QCURVE SMOOTH",
"29 244 OFFCURVE",
"30 218 QCURVE SMOOTH",
"30 198 OFFCURVE",
"38 177 QCURVE SMOOTH",
"44 161 OFFCURVE",
"54 149 QCURVE SMOOTH",
"64 137 OFFCURVE",
"76 129 QCURVE",
"67 129 OFFCURVE",
"62 129 QCURVE",
"62 42 OFFCURVE",
"62 -1 QCURVE",
"399 -1 OFFCURVE",
"568 -1 QCURVE",
"568 85 OFFCURVE",
"568 129 QCURVE",
"314 129 OFFCURVE",
"187 129 QCURVE",
"209 143 OFFCURVE",
"222 168 QCURVE SMOOTH",
"235 193 OFFCURVE",
"233 222 QCURVE SMOOTH",
"232 236 OFFCURVE",
"229 251 QCURVE SMOOTH",
"226 265 OFFCURVE",
"223 281 QCURVE",
"244 295 OFFCURVE",
"269 297 QCURVE SMOOTH",
"294 299 OFFCURVE",
"315 289 QCURVE SMOOTH",
"323 285 OFFCURVE",
"331 280 QCURVE SMOOTH",
"339 275 OFFCURVE",
"347 272 QCURVE SMOOTH",
"388 254 OFFCURVE",
"427 267 QCURVE SMOOTH",
"466 281 OFFCURVE",
"483 321 QCURVE SMOOTH",
"494 348 OFFCURVE",
"512 364 QCURVE SMOOTH",
"529 379 OFFCURVE",
"556 389 QCURVE SMOOTH",
"592 403 OFFCURVE",
"613 431 QCURVE SMOOTH",
"633 459 OFFCURVE",
"637 498 QCURVE",
"637 498 LINE"
);
}
);
width = 627;
}
);
note = Z;
unicode = 005A;
},
{
glyphname = bracketleft;
layers = (
{
layerId = "1B5A2E6A-EA81-427B-BCB4-5148866553EF";
paths = (
{
closed = 1;
nodes = (
"242 221 OFFCURVE",
"242 -55 QCURVE SMOOTH",
"242 -101 OFFCURVE",
"271 -131 QCURVE SMOOTH",
"300 -160 OFFCURVE",
"346 -160 QCURVE SMOOTH",
"447 -160 OFFCURVE",
"481 -160 QCURVE",
"481 -68 OFFCURVE",
"481 -37 QCURVE",
"426 -37 OFFCURVE",
"398 -37 QCURVE SMOOTH",
"371 -37 OFFCURVE",
"371 -6 QCURVE SMOOTH",
"371 480 OFFCURVE",
"371 723 QCURVE SMOOTH",
"371 754 OFFCURVE",
"398 754 QCURVE SMOOTH",
"461 754 OFFCURVE",
"481 754 QCURVE",
"481 846 OFFCURVE",
"481 877 QCURVE",
"391 877 OFFCURVE",
"346 877 QCURVE SMOOTH",
"300 877 OFFCURVE",
"271 847 QCURVE SMOOTH",
"242 818 OFFCURVE",
"242 772 QCURVE",
"242 772 LINE"
);
}
);
width = 627;
}
);
note = bracketleft;
unicode = 005B;
},
{
glyphname = backslash;
layers = (
{
layerId = "1B5A2E6A-EA81-427B-BCB4-5148866553EF";
paths = (
{
closed = 1;
nodes = (
"295 611 OFFCURVE",
"218 845 QCURVE",
"131 817 OFFCURVE",
"101 808 QCURVE",
"331 106 OFFCURVE",
"408 -128 QCURVE",
"496 -100 OFFCURVE",
"525 -91 QCURVE",
"525 -91 LINE"
);
}
);
width = 627;
}
);
note = backslash;
unicode = 005C;
},
{
glyphname = bracketright;
layers = (
{
layerId = "1B5A2E6A-EA81-427B-BCB4-5148866553EF";
paths = (
{
closed = 1;
nodes = (
"385 496 OFFCURVE",
"385 772 QCURVE SMOOTH",
"385 818 OFFCURVE",
"356 847 QCURVE SMOOTH",
"327 877 OFFCURVE",
"281 877 QCURVE SMOOTH",
"179 877 OFFCURVE",
"145 877 QCURVE",
"145 784 OFFCURVE",
"145 754 QCURVE",
"201 754 OFFCURVE",
"228 754 QCURVE SMOOTH",
"256 754 OFFCURVE",
"256 723 QCURVE SMOOTH",
"256 237 OFFCURVE",
"256 -6 QCURVE SMOOTH",
"256 -37 OFFCURVE",
"228 -37 QCURVE SMOOTH",
"166 -37 OFFCURVE",
"145 -37 QCURVE",
"145 -129 OFFCURVE",
"145 -160 QCURVE",
"236 -160 OFFCURVE",
"281 -160 QCURVE SMOOTH",
"327 -160 OFFCURVE",
"356 -131 QCURVE SMOOTH",
"385 -101 OFFCURVE",
"385 -55 QCURVE",
"385 -55 LINE"
);
}
);
width = 627;
}
);
note = bracketright;
unicode = 005D;
},
{
glyphname = asciicircum;
layers = (
{
layerId = "1B5A2E6A-EA81-427B-BCB4-5148866553EF";
paths = (
{
closed = 1;
nodes = (
"456 646 OFFCURVE",
"422 717 QCURVE",
"259 717 OFFCURVE",
"205 717 QCURVE",
"102 505 OFFCURVE",
"68 434 QCURVE",
"175 434 OFFCURVE",
"211 434 QCURVE",
"281 595 OFFCURVE",
"304 649 QCURVE",
"318 649 OFFCURVE",
"323 649 QCURVE",
"392 488 OFFCURVE",
"416 434 QCURVE",
"523 434 OFFCURVE",
"559 434 QCURVE",
"559 434 LINE"
);
}
);
width = 627;
}
);
note = asciicircum;
unicode = 005E;
},
{
glyphname = underscore;
layers = (
{
layerId = "1B5A2E6A-EA81-427B-BCB4-5148866553EF";
paths = (
{
closed = 1;
nodes = (
"62 -137 OFFCURVE",
"62 -166 QCURVE",
"439 -166 OFFCURVE",
"564 -166 QCURVE",
"564 -78 OFFCURVE",
"564 -49 QCURVE",
"188 -49 OFFCURVE",
"62 -49 QCURVE",
"62 -49 LINE"
);
}
);
width = 627;
}
);
note = underscore;
unicode = 005F;
},
{
glyphname = grave;
layers = (
{
layerId = "1B5A2E6A-EA81-427B-BCB4-5148866553EF";
paths = (
{
closed = 1;
nodes = (
"367 688 OFFCURVE",
"353 723 QCURVE",
"250 723 OFFCURVE",
"216 723 QCURVE",
"281 618 OFFCURVE",
"302 584 QCURVE",
"380 584 OFFCURVE",
"407 584 QCURVE",
"407 584 LINE"
);
}
);
width = 627;
}
);
note = grave;
unicode = 0060;
},
{
glyphname = a;
layers = (
{
layerId = "1B5A2E6A-EA81-427B-BCB4-5148866553EF";
paths = (
{
closed = 1;
nodes = (
"421 74 OFFCURVE",
"427 74 QCURVE",
"427 41 OFFCURVE",
"449 20 QCURVE SMOOTH",
"471 0 OFFCURVE",
"506 0 QCURVE SMOOTH",
"572 0 OFFCURVE",
"594 0 QCURVE",
"594 92 OFFCURVE",
"594 123 QCURVE",
"581 123 OFFCURVE",
"574 123 QCURVE SMOOTH",
"547 123 OFFCURVE",
"547 154 QCURVE SMOOTH",
"547 419 OFFCURVE",
"547 508 QCURVE",
"450 508 OFFCURVE",
"418 508 QCURVE",
"418 462 OFFCURVE",
"418 446 QCURVE",
"406 446 OFFCURVE",
"399 446 QCURVE",
"380 485 OFFCURVE",
"347 504 QCURVE SMOOTH",
"313 522 OFFCURVE",
"259 522 QCURVE SMOOTH",
"214 522 OFFCURVE",
"175 504 QCURVE SMOOTH",
"135 486 OFFCURVE",
"105 453 QCURVE SMOOTH",
"76 419 OFFCURVE",
"58 371 QCURVE SMOOTH",
"41 323 OFFCURVE",
"41 262 QCURVE SMOOTH",
"41 251 OFFCURVE",
"41 246 QCURVE SMOOTH",
"41 184 OFFCURVE",
"59 136 QCURVE SMOOTH",
"77 88 OFFCURVE",
"108 54 QCURVE SMOOTH",
"138 20 OFFCURVE",
"179 3 QCURVE SMOOTH",
"219 -14 OFFCURVE",
"265 -14 QCURVE SMOOTH",
"314 -14 OFFCURVE",
"351 6 QCURVE SMOOTH",
"388 26 OFFCURVE",
"409 74 QCURVE",
"409 74 LINE"
);
},
{
closed = 1;
nodes = (
"238 109 OFFCURVE",
"204 146 QCURVE SMOOTH",
"170 183 OFFCURVE",
"170 248 QCURVE SMOOTH",
"170 256 OFFCURVE",
"170 260 QCURVE SMOOTH",
"170 325 OFFCURVE",
"204 362 QCURVE SMOOTH",
"238 399 OFFCURVE",
"294 399 QCURVE SMOOTH",
"350 399 OFFCURVE",
"384 362 QCURVE SMOOTH",
"418 325 OFFCURVE",
"418 260 QCURVE SMOOTH",
"418 252 OFFCURVE",
"418 248 QCURVE SMOOTH",
"418 183 OFFCURVE",
"384 146 QCURVE SMOOTH",
"350 109 OFFCURVE",
"294 109 QCURVE",
"294 109 LINE"
);
}
);
width = 627;
}
);
note = a;
unicode = 0061;
},
{
glyphname = b;
layers = (
{
layerId = "1B5A2E6A-EA81-427B-BCB4-5148866553EF";
paths = (
{
closed = 1;
nodes = (
"187 55 OFFCURVE",
"187 74 QCURVE",
"200 74 OFFCURVE",
"206 74 QCURVE",
"215 56 OFFCURVE",
"228 40 QCURVE SMOOTH",
"241 25 OFFCURVE",
"259 12 QCURVE SMOOTH",
"279 0 OFFCURVE",
"304 -7 QCURVE SMOOTH",
"330 -14 OFFCURVE",
"365 -14 QCURVE SMOOTH",
"412 -14 OFFCURVE",
"452 3 QCURVE SMOOTH",
"493 19 OFFCURVE",
"522 52 QCURVE SMOOTH",
"552 86 OFFCURVE",
"569 134 QCURVE SMOOTH",
"587 182 OFFCURVE",
"587 245 QCURVE SMOOTH",
"587 257 OFFCURVE",
"587 263 QCURVE SMOOTH",
"587 325 OFFCURVE",
"569 373 QCURVE SMOOTH",
"551 421 OFFCURVE",
"520 454 QCURVE SMOOTH",
"490 487 OFFCURVE",
"450 505 QCURVE SMOOTH",
"410 522 OFFCURVE",
"365 522 QCURVE SMOOTH",
"304 522 OFFCURVE",
"265 499 QCURVE SMOOTH",
"226 476 OFFCURVE",
"206 434 QCURVE",
"192 434 OFFCURVE",
"187 434 QCURVE",
"187 646 OFFCURVE",
"187 717 QCURVE",
"91 717 OFFCURVE",
"58 717 QCURVE",
"58 179 OFFCURVE",
"58 0 QCURVE",
"155 0 OFFCURVE",
"187 0 QCURVE",
"187 0 LINE"
);
},
{
closed = 1;
nodes = (
"262 109 OFFCURVE",
"225 147 QCURVE SMOOTH",
"187 185 OFFCURVE",
"187 248 QCURVE SMOOTH",
"187 256 OFFCURVE",
"187 260 QCURVE SMOOTH",
"187 323 OFFCURVE",
"225 361 QCURVE SMOOTH",
"262 399 OFFCURVE",
"323 399 QCURVE SMOOTH",
"383 399 OFFCURVE",
"420 362 QCURVE SMOOTH",
"458 325 OFFCURVE",
"458 260 QCURVE SMOOTH",
"458 252 OFFCURVE",
"458 248 QCURVE SMOOTH",
"458 183 OFFCURVE",
"420 146 QCURVE SMOOTH",
"383 109 OFFCURVE",
"323 109 QCURVE",
"323 109 LINE"
);
}
);
width = 627;
}
);
note = b;
unicode = 0062;
},
{
glyphname = c;
layers = (
{
layerId = "1B5A2E6A-EA81-427B-BCB4-5148866553EF";
paths = (
{
closed = 1;
nodes = (
"491 208 OFFCURVE",
"449 218 QCURVE",
"439 168 OFFCURVE",
"408 138 QCURVE SMOOTH",
"377 109 OFFCURVE",
"317 109 QCURVE SMOOTH",
"290 109 OFFCURVE",
"265 117 QCURVE SMOOTH",
"241 126 OFFCURVE",
"222 143 QCURVE SMOOTH",
"204 161 OFFCURVE",
"193 187 QCURVE SMOOTH",
"182 213 OFFCURVE",
"182 247 QCURVE SMOOTH",
"182 251 OFFCURVE",
"182 253 QCURVE SMOOTH",
"182 287 OFFCURVE",
"193 314 QCURVE SMOOTH",
"204 341 OFFCURVE",
"222 359 QCURVE SMOOTH",
"241 379 OFFCURVE",
"265 389 QCURVE SMOOTH",
"290 399 OFFCURVE",
"317 399 QCURVE SMOOTH",
"377 399 OFFCURVE",
"410 367 QCURVE SMOOTH",
"442 334 OFFCURVE",
"449 289 QCURVE",
"533 311 OFFCURVE",
"575 322 QCURVE",
"558 412 OFFCURVE",
"492 467 QCURVE SMOOTH",
"426 522 OFFCURVE",
"319 522 QCURVE SMOOTH",
"264 522 OFFCURVE",
"216 504 QCURVE SMOOTH",
"167 485 OFFCURVE",
"130 451 QCURVE SMOOTH",
"94 416 OFFCURVE",
"74 367 QCURVE SMOOTH",
"53 317 OFFCURVE",
"53 256 QCURVE SMOOTH",
"53 248 OFFCURVE",
"53 244 QCURVE SMOOTH",
"53 182 OFFCURVE",
"74 134 QCURVE SMOOTH",
"94 86 OFFCURVE",
"130 53 QCURVE SMOOTH",
"166 20 OFFCURVE",
"215 3 QCURVE SMOOTH",
"263 -14 OFFCURVE",
"319 -14 QCURVE SMOOTH",
"428 -14 OFFCURVE",
"493 41 QCURVE SMOOTH",
"558 96 OFFCURVE",
"575 186 QCURVE",
"575 186 LINE"
);
}
);
width = 627;
}
);
note = c;
unicode = 0063;
},
{
glyphname = d;
layers = (
{
layerId = "1B5A2E6A-EA81-427B-BCB4-5148866553EF";
paths = (
{
closed = 1;
nodes = (
"444 18 OFFCURVE",
"444 0 QCURVE",
"541 0 OFFCURVE",
"573 0 QCURVE",
"573 538 OFFCURVE",
"573 717 QCURVE",
"477 717 OFFCURVE",
"444 717 QCURVE",
"444 505 OFFCURVE",
"444 434 QCURVE",
"432 434 OFFCURVE",
"426 434 QCURVE",
"406 476 OFFCURVE",
"370 499 QCURVE SMOOTH",
"334 522 OFFCURVE",
"272 522 QCURVE SMOOTH",
"226 522 OFFCURVE",
"185 505 QCURVE SMOOTH",
"143 487 OFFCURVE",
"112 454 QCURVE SMOOTH",
"81 421 OFFCURVE",
"63 373 QCURVE SMOOTH",
"45 325 OFFCURVE",
"45 263 QCURVE SMOOTH",
"45 251 OFFCURVE",
"45 245 QCURVE SMOOTH",
"45 182 OFFCURVE",
"62 134 QCURVE SMOOTH",
"79 86 OFFCURVE",
"109 52 QCURVE SMOOTH",
"139 19 OFFCURVE",
"180 3 QCURVE SMOOTH",
"220 -14 OFFCURVE",
"267 -14 QCURVE SMOOTH",
"304 -14 OFFCURVE",
"330 -7 QCURVE SMOOTH",
"356 0 OFFCURVE",
"375 12 QCURVE SMOOTH",
"394 25 OFFCURVE",
"406 40 QCURVE SMOOTH",
"418 56 OFFCURVE",
"426 74 QCURVE",
"440 74 OFFCURVE",
"444 74 QCURVE",
"444 74 LINE"
);
},
{
closed = 1;
nodes = (
"249 109 OFFCURVE",
"211 146 QCURVE SMOOTH",
"174 183 OFFCURVE",
"174 248 QCURVE SMOOTH",
"174 256 OFFCURVE",
"174 260 QCURVE SMOOTH",
"174 325 OFFCURVE",
"211 362 QCURVE SMOOTH",
"249 399 OFFCURVE",
"309 399 QCURVE SMOOTH",
"370 399 OFFCURVE",
"407 361 QCURVE SMOOTH",
"444 323 OFFCURVE",
"444 260 QCURVE SMOOTH",
"444 252 OFFCURVE",
"444 248 QCURVE SMOOTH",
"444 185 OFFCURVE",
"407 147 QCURVE SMOOTH",
"370 109 OFFCURVE",
"309 109 QCURVE",
"309 109 LINE"
);
}
);
width = 627;
}
);
note = d;
unicode = 0064;
},
{
glyphname = e;
layers = (
{
layerId = "1B5A2E6A-EA81-427B-BCB4-5148866553EF";
paths = (
{
closed = 1;
nodes = (
"473 212 OFFCURVE",
"566 212 QCURVE",
"566 258 OFFCURVE",
"566 281 QCURVE SMOOTH",
"566 321 OFFCURVE",
"552 363 QCURVE SMOOTH",
"538 406 OFFCURVE",
"507 440 QCURVE SMOOTH",
"476 476 OFFCURVE",
"429 499 QCURVE SMOOTH",
"382 522 OFFCURVE",
"316 522 QCURVE SMOOTH",
"263 522 OFFCURVE",
"217 503 QCURVE SMOOTH",
"170 484 OFFCURVE",
"135 451 QCURVE SMOOTH",
"100 417 OFFCURVE",
"80 369 QCURVE SMOOTH",
"60 321 OFFCURVE",
"60 262 QCURVE SMOOTH",
"60 258 OFFCURVE",
"60 256 QCURVE SMOOTH",
"60 193 OFFCURVE",
"79 142 QCURVE SMOOTH",
"98 92 OFFCURVE",
"132 57 QCURVE SMOOTH",
"167 23 OFFCURVE",
"214 4 QCURVE SMOOTH",
"261 -14 OFFCURVE",
"318 -14 QCURVE SMOOTH",
"369 -14 OFFCURVE",
"406 -3 QCURVE SMOOTH",
"443 8 OFFCURVE",
"469 26 QCURVE SMOOTH",
"496 43 OFFCURVE",
"512 64 QCURVE SMOOTH",
"528 85 OFFCURVE",
"538 104 QCURVE",
"464 145 OFFCURVE",
"427 166 QCURVE",
"416 142 OFFCURVE",
"390 125 QCURVE SMOOTH",
"365 109 OFFCURVE",
"316 109 QCURVE SMOOTH",
"292 109 OFFCURVE",
"270 116 QCURVE SMOOTH",
"248 124 OFFCURVE",
"230 137 QCURVE",
"214 152 OFFCURVE",
"204 170 QCURVE SMOOTH",
"195 189 OFFCURVE",
"194 212 QCURVE",
"194 212 LINE"
);
},
{
closed = 1;
nodes = (
"365 406 OFFCURVE",
"397 382 QCURVE SMOOTH",
"429 358 OFFCURVE",
"435 323 QCURVE",
"275 323 OFFCURVE",
"196 323 QCURVE",
"205 355 OFFCURVE",
"236 380 QCURVE SMOOTH",
"266 406 OFFCURVE",
"315 406 QCURVE",
"315 406 LINE"
);
}
);
width = 627;
}
);
note = e;
unicode = 0065;
},
{
glyphname = f;
layers = (
{
layerId = "1B5A2E6A-EA81-427B-BCB4-5148866553EF";
paths = (
{
closed = 1;
nodes = (
"76 416 OFFCURVE",
"76 385 QCURVE",
"184 385 OFFCURVE",
"220 385 QCURVE",
"220 96 OFFCURVE",
"220 0 QCURVE",
"317 0 OFFCURVE",
"349 0 QCURVE",
"349 289 OFFCURVE",
"349 385 QCURVE",
"499 385 OFFCURVE",
"549 385 QCURVE",
"549 477 OFFCURVE",
"549 508 QCURVE",
"399 508 OFFCURVE",
"349 508 QCURVE",
"349 545 OFFCURVE",
"349 563 QCURVE SMOOTH",
"349 594 OFFCURVE",
"377 594 QCURVE SMOOTH",
"492 594 OFFCURVE",
"530 594 QCURVE",
"530 686 OFFCURVE",
"530 717 QCURVE",
"393 717 OFFCURVE",
"324 717 QCURVE SMOOTH",
"280 717 OFFCURVE",
"250 687 QCURVE SMOOTH",
"220 656 OFFCURVE",
"220 612 QCURVE SMOOTH",
"220 534 OFFCURVE",
"220 508 QCURVE",
"112 508 OFFCURVE",
"76 508 QCURVE",
"76 508 LINE"
);
}
);
width = 627;
}
);
note = f;
unicode = 0066;
},
{
glyphname = g;
layers = (
{
layerId = "1B5A2E6A-EA81-427B-BCB4-5148866553EF";
paths = (
{
closed = 1;
nodes = (
"442 -10 OFFCURVE",
"442 -51 QCURVE SMOOTH",
"442 -82 OFFCURVE",
"415 -82 QCURVE SMOOTH",
"217 -82 OFFCURVE",
"151 -82 QCURVE",
"151 -174 OFFCURVE",
"151 -205 QCURVE",
"379 -205 OFFCURVE",
"493 -205 QCURVE SMOOTH",
"527 -205 OFFCURVE",
"549 -182 QCURVE SMOOTH",
"571 -160 OFFCURVE",
"571 -125 QCURVE SMOOTH",
"571 350 OFFCURVE",
"571 508 QCURVE",
"475 508 OFFCURVE",
"442 508 QCURVE",
"442 453 OFFCURVE",
"442 434 QCURVE",
"430 434 OFFCURVE",
"424 434 QCURVE",
"403 476 OFFCURVE",
"368 499 QCURVE SMOOTH",
"332 522 OFFCURVE",
"270 522 QCURVE SMOOTH",
"224 522 OFFCURVE",
"183 505 QCURVE SMOOTH",
"141 487 OFFCURVE",
"110 454 QCURVE SMOOTH",
"79 421 OFFCURVE",
"61 373 QCURVE SMOOTH",
"43 325 OFFCURVE",
"43 263 QCURVE SMOOTH",
"43 251 OFFCURVE",
"43 245 QCURVE SMOOTH",
"43 182 OFFCURVE",
"60 134 QCURVE SMOOTH",
"77 86 OFFCURVE",
"106 52 QCURVE SMOOTH",
"137 19 OFFCURVE",
"178 3 QCURVE SMOOTH",
"218 -14 OFFCURVE",
"265 -14 QCURVE SMOOTH",
"302 -14 OFFCURVE",
"328 -7 QCURVE SMOOTH",
"354 0 OFFCURVE",
"373 12 QCURVE SMOOTH",
"392 25 OFFCURVE",
"404 40 QCURVE SMOOTH",
"416 56 OFFCURVE",
"424 74 QCURVE",
"438 74 OFFCURVE",
"442 74 QCURVE",
"442 74 LINE"
);
},
{
closed = 1;
nodes = (
"247 109 OFFCURVE",
"209 146 QCURVE SMOOTH",
"172 183 OFFCURVE",
"172 248 QCURVE SMOOTH",
"172 256 OFFCURVE",
"172 260 QCURVE SMOOTH",
"172 325 OFFCURVE",
"209 362 QCURVE SMOOTH",
"247 399 OFFCURVE",
"307 399 QCURVE SMOOTH",
"368 399 OFFCURVE",
"405 361 QCURVE SMOOTH",
"442 323 OFFCURVE",
"442 260 QCURVE SMOOTH",
"442 252 OFFCURVE",
"442 248 QCURVE SMOOTH",
"442 185 OFFCURVE",
"405 147 QCURVE SMOOTH",
"368 109 OFFCURVE",
"307 109 QCURVE",
"307 109 LINE"
);
}
);
width = 627;
}
);
note = g;
unicode = 0067;
},
{
glyphname = h;
layers = (
{
layerId = "1B5A2E6A-EA81-427B-BCB4-5148866553EF";
paths = (
{
closed = 1;
nodes = (
"211 176 OFFCURVE",
"211 264 QCURVE SMOOTH",
"211 329 OFFCURVE",
"239 367 QCURVE SMOOTH",
"267 406 OFFCURVE",
"325 406 QCURVE SMOOTH",
"374 406 OFFCURVE",
"400 374 QCURVE SMOOTH",
"426 343 OFFCURVE",
"426 289 QCURVE SMOOTH",
"426 72 OFFCURVE",
"426 0 QCURVE",
"523 0 OFFCURVE",
"555 0 QCURVE",
"555 213 OFFCURVE",
"555 319 QCURVE SMOOTH",
"555 372 OFFCURVE",
"542 410 QCURVE SMOOTH",
"528 449 OFFCURVE",
"505 473 QCURVE SMOOTH",
"481 498 OFFCURVE",
"450 510 QCURVE SMOOTH",
"418 522 OFFCURVE",
"380 522 QCURVE SMOOTH",
"325 522 OFFCURVE",
"287 497 QCURVE SMOOTH",
"249 472 OFFCURVE",
"229 426 QCURVE",
"216 426 OFFCURVE",
"211 426 QCURVE",
"211 644 OFFCURVE",
"211 717 QCURVE",
"114 717 OFFCURVE",
"82 717 QCURVE",
"82 179 OFFCURVE",
"82 0 QCURVE",
"179 0 OFFCURVE",
"211 0 QCURVE",
"211 0 LINE"
);
}
);
width = 627;
}
);
note = h;
unicode = 0068;
},
{
glyphname = i;
layers = (
{
layerId = "1B5A2E6A-EA81-427B-BCB4-5148866553EF";
paths = (
{
closed = 1;
nodes = (
"89 31 OFFCURVE",
"89 0 QCURVE",
"425 0 OFFCURVE",
"538 0 QCURVE",
"538 92 OFFCURVE",
"538 123 QCURVE",
"427 123 OFFCURVE",
"390 123 QCURVE",
"390 412 OFFCURVE",
"390 508 QCURVE",
"174 508 OFFCURVE",
"101 508 QCURVE",
"101 416 OFFCURVE",
"101 385 QCURVE",
"221 385 OFFCURVE",
"261 385 QCURVE",
"261 188 OFFCURVE",
"261 123 QCURVE",
"132 123 OFFCURVE",
"89 123 QCURVE",
"89 123 LINE"
);
},
{
closed = 1;
nodes = (
"422 679 OFFCURVE",
"414 697 QCURVE SMOOTH",
"407 715 OFFCURVE",
"393 727 QCURVE SMOOTH",
"380 740 OFFCURVE",
"362 748 QCURVE SMOOTH",
"344 756 OFFCURVE",
"325 756 QCURVE SMOOTH",
"304 756 OFFCURVE",
"287 748 QCURVE SMOOTH",
"269 740 OFFCURVE",
"256 727 QCURVE SMOOTH",
"243 715 OFFCURVE",
"235 697 QCURVE SMOOTH",
"227 679 OFFCURVE",
"227 658 QCURVE SMOOTH",
"227 638 OFFCURVE",
"235 620 QCURVE SMOOTH",
"243 602 OFFCURVE",
"256 589 QCURVE SMOOTH",
"269 577 OFFCURVE",
"287 569 QCURVE SMOOTH",
"304 561 OFFCURVE",
"325 561 QCURVE SMOOTH",
"344 561 OFFCURVE",
"362 569 QCURVE SMOOTH",
"380 577 OFFCURVE",
"393 589 QCURVE SMOOTH",
"407 602 OFFCURVE",
"414 620 QCURVE SMOOTH",
"422 638 OFFCURVE",
"422 658 QCURVE",
"422 658 LINE"
);
}
);
width = 627;
}
);
note = i;
unicode = 0069;
},
{
glyphname = j;
layers = (
{
layerId = "1B5A2E6A-EA81-427B-BCB4-5148866553EF";
paths = (
{
closed = 1;
nodes = (
"129 416 OFFCURVE",
"129 385 QCURVE",
"276 385 OFFCURVE",
"326 385 QCURVE",
"326 96 OFFCURVE",
"326 -48 QCURVE SMOOTH",
"326 -82 OFFCURVE",
"295 -82 QCURVE SMOOTH",
"157 -82 OFFCURVE",
"111 -82 QCURVE",
"111 -174 OFFCURVE",
"111 -205 QCURVE",
"271 -205 OFFCURVE",
"351 -205 QCURVE SMOOTH",
"397 -205 OFFCURVE",
"426 -179 QCURVE SMOOTH",
"455 -154 OFFCURVE",
"455 -100 QCURVE SMOOTH",
"455 356 OFFCURVE",
"455 508 QCURVE",
"210 508 OFFCURVE",
"129 508 QCURVE",
"129 508 LINE"
);
},
{
closed = 1;
nodes = (
"485 679 OFFCURVE",
"478 697 QCURVE SMOOTH",
"470 715 OFFCURVE",
"457 727 QCURVE SMOOTH",
"443 740 OFFCURVE",
"425 748 QCURVE SMOOTH",
"408 756 OFFCURVE",
"388 756 QCURVE SMOOTH",
"368 756 OFFCURVE",
"350 748 QCURVE SMOOTH",
"333 740 OFFCURVE",
"319 727 QCURVE SMOOTH",
"306 715 OFFCURVE",
"298 697 QCURVE SMOOTH",
"291 679 OFFCURVE",
"291 658 QCURVE SMOOTH",
"291 638 OFFCURVE",
"298 620 QCURVE SMOOTH",
"306 602 OFFCURVE",
"319 589 QCURVE SMOOTH",
"333 577 OFFCURVE",
"350 569 QCURVE SMOOTH",
"368 561 OFFCURVE",
"388 561 QCURVE SMOOTH",
"408 561 OFFCURVE",
"425 569 QCURVE SMOOTH",
"443 577 OFFCURVE",
"457 589 QCURVE SMOOTH",
"470 602 OFFCURVE",
"478 620 QCURVE SMOOTH",
"485 638 OFFCURVE",
"485 658 QCURVE",
"485 658 LINE"
);
}
);
width = 627;
}
);
note = j;
unicode = 006A;
},
{
glyphname = k;
layers = (
{
layerId = "1B5A2E6A-EA81-427B-BCB4-5148866553EF";
paths = (
{
closed = 1;
nodes = (
"250 618 OFFCURVE",
"250 717 QCURVE",
"153 717 OFFCURVE",
"121 717 QCURVE",
"121 179 OFFCURVE",
"121 0 QCURVE",
"218 0 OFFCURVE",
"250 0 QCURVE",
"250 149 OFFCURVE",
"250 199 QCURVE",
"268 199 OFFCURVE",
"274 199 QCURVE",
"383 50 OFFCURVE",
"420 0 QCURVE",
"530 0 OFFCURVE",
"567 0 QCURVE",
"567 5 OFFCURVE",
"567 6 QCURVE",
"432 190 OFFCURVE",
"387 251 QCURVE",
"387 265 OFFCURVE",
"387 269 QCURVE",
"510 444 OFFCURVE",
"551 502 QCURVE",
"551 506 OFFCURVE",
"551 508 QCURVE",
"445 508 OFFCURVE",
"410 508 QCURVE",
"308 368 OFFCURVE",
"274 322 QCURVE",
"256 322 OFFCURVE",
"250 322 QCURVE",
"250 322 LINE"
);
}
);
width = 627;
}
);
note = k;
unicode = 006B;
},
{
glyphname = l;
layers = (
{
layerId = "1B5A2E6A-EA81-427B-BCB4-5148866553EF";
paths = (
{
closed = 1;
nodes = (
"77 31 OFFCURVE",
"77 0 QCURVE",
"432 0 OFFCURVE",
"550 0 QCURVE",
"550 92 OFFCURVE",
"550 123 QCURVE",
"425 123 OFFCURVE",
"384 123 QCURVE",
"384 568 OFFCURVE",
"384 717 QCURVE",
"158 717 OFFCURVE",
"83 717 QCURVE",
"83 625 OFFCURVE",
"83 594 QCURVE",
"212 594 OFFCURVE",
"255 594 QCURVE",
"255 241 OFFCURVE",
"255 123 QCURVE",
"121 123 OFFCURVE",
"77 123 QCURVE",
"77 123 LINE"
);
}
);
width = 627;
}
);
note = l;
unicode = 006C;
},
{
glyphname = m;
layers = (
{
layerId = "1B5A2E6A-EA81-427B-BCB4-5148866553EF";
paths = (
{
closed = 1;
nodes = (
"590 262 OFFCURVE",
"590 393 QCURVE SMOOTH",
"590 454 OFFCURVE",
"559 488 QCURVE SMOOTH",
"528 522 OFFCURVE",
"477 522 QCURVE SMOOTH",
"438 522 OFFCURVE",
"412 504 QCURVE SMOOTH",
"386 486 OFFCURVE",
"378 459 QCURVE",
"366 459 OFFCURVE",
"359 459 QCURVE",
"351 486 OFFCURVE",
"328 504 QCURVE SMOOTH",
"304 522 OFFCURVE",
"270 522 QCURVE SMOOTH",
"234 522 OFFCURVE",
"212 504 QCURVE SMOOTH",
"190 486 OFFCURVE",
"184 459 QCURVE",
"170 459 OFFCURVE",
"166 459 QCURVE",
"166 496 OFFCURVE",
"166 508 QCURVE",
"69 508 OFFCURVE",
"37 508 QCURVE",
"37 127 OFFCURVE",
"37 0 QCURVE",
"134 0 OFFCURVE",
"166 0 QCURVE",
"166 233 OFFCURVE",
"166 350 QCURVE SMOOTH",
"166 375 OFFCURVE",
"178 387 QCURVE SMOOTH",
"190 399 OFFCURVE",
"209 399 QCURVE SMOOTH",
"225 399 OFFCURVE",
"237 389 QCURVE SMOOTH",
"249 378 OFFCURVE",
"249 356 QCURVE SMOOTH",
"249 89 OFFCURVE",
"249 0 QCURVE",
"346 0 OFFCURVE",
"378 0 QCURVE",
"378 233 OFFCURVE",
"378 350 QCURVE SMOOTH",
"378 375 OFFCURVE",
"390 387 QCURVE SMOOTH",
"401 399 OFFCURVE",
"422 399 QCURVE SMOOTH",
"439 399 OFFCURVE",
"450 389 QCURVE SMOOTH",
"461 378 OFFCURVE",
"461 356 QCURVE SMOOTH",
"461 89 OFFCURVE",
"461 0 QCURVE",
"558 0 OFFCURVE",
"590 0 QCURVE",
"590 0 LINE"
);
}
);
width = 627;
}
);
note = m;
unicode = 006D;
},
{
glyphname = n;
layers = (
{
layerId = "1B5A2E6A-EA81-427B-BCB4-5148866553EF";
paths = (
{
closed = 1;
nodes = (
"209 176 OFFCURVE",
"209 264 QCURVE SMOOTH",
"209 329 OFFCURVE",
"237 367 QCURVE SMOOTH",
"265 406 OFFCURVE",
"323 406 QCURVE SMOOTH",
"372 406 OFFCURVE",
"398 374 QCURVE SMOOTH",
"424 343 OFFCURVE",
"424 289 QCURVE SMOOTH",
"424 72 OFFCURVE",
"424 0 QCURVE",
"521 0 OFFCURVE",
"553 0 QCURVE",
"553 214 OFFCURVE",
"553 322 QCURVE SMOOTH",
"553 374 OFFCURVE",
"539 412 QCURVE SMOOTH",
"525 450 OFFCURVE",
"501 474 QCURVE SMOOTH",
"476 499 OFFCURVE",
"444 510 QCURVE SMOOTH",
"412 522 OFFCURVE",
"375 522 QCURVE SMOOTH",
"323 522 OFFCURVE",
"284 499 QCURVE SMOOTH",
"245 475 OFFCURVE",
"227 432 QCURVE",
"214 432 OFFCURVE",
"209 432 QCURVE",
"209 489 OFFCURVE",
"209 508 QCURVE",
"112 508 OFFCURVE",
"80 508 QCURVE",
"80 127 OFFCURVE",
"80 0 QCURVE",
"177 0 OFFCURVE",
"209 0 QCURVE",
"209 0 LINE"
);
}
);
width = 627;
}
);
note = n;
unicode = 006E;
},
{
glyphname = o;
layers = (
{
layerId = "1B5A2E6A-EA81-427B-BCB4-5148866553EF";
paths = (
{
closed = 1;
nodes = (
"578 256 OFFCURVE",
"578 260 QCURVE SMOOTH",
"578 323 OFFCURVE",
"556 371 QCURVE SMOOTH",
"535 420 OFFCURVE",
"498 454 QCURVE SMOOTH",
"461 487 OFFCURVE",
"413 505 QCURVE SMOOTH",
"366 522 OFFCURVE",
"313 522 QCURVE SMOOTH",
"261 522 OFFCURVE",
"214 505 QCURVE SMOOTH",
"166 487 OFFCURVE",
"129 454 QCURVE SMOOTH",
"92 420 OFFCURVE",
"71 371 QCURVE SMOOTH",
"49 323 OFFCURVE",
"49 260 QCURVE SMOOTH",
"49 252 OFFCURVE",
"49 248 QCURVE SMOOTH",
"49 184 OFFCURVE",
"71 136 QCURVE SMOOTH",
"92 87 OFFCURVE",
"129 53 QCURVE SMOOTH",
"166 20 OFFCURVE",
"214 3 QCURVE SMOOTH",
"261 -14 OFFCURVE",
"313 -14 QCURVE SMOOTH",
"366 -14 OFFCURVE",
"413 3 QCURVE SMOOTH",
"461 20 OFFCURVE",
"498 53 QCURVE SMOOTH",
"535 87 OFFCURVE",
"556 136 QCURVE SMOOTH",
"578 184 OFFCURVE",
"578 248 QCURVE",
"578 248 LINE"
);
},
{
closed = 1;
nodes = (
"286 109 OFFCURVE",
"261 118 QCURVE SMOOTH",
"237 127 OFFCURVE",
"218 144 QCURVE SMOOTH",
"200 162 OFFCURVE",
"189 187 QCURVE SMOOTH",
"178 212 OFFCURVE",
"178 244 QCURVE SMOOTH",
"178 257 OFFCURVE",
"178 264 QCURVE SMOOTH",
"178 296 OFFCURVE",
"189 321 QCURVE SMOOTH",
"200 346 OFFCURVE",
"218 364 QCURVE SMOOTH",
"237 381 OFFCURVE",
"261 390 QCURVE SMOOTH",
"286 399 OFFCURVE",
"313 399 QCURVE SMOOTH",
"341 399 OFFCURVE",
"366 390 QCURVE SMOOTH",
"390 381 OFFCURVE",
"409 364 QCURVE SMOOTH",
"427 346 OFFCURVE",
"438 321 QCURVE SMOOTH",
"449 296 OFFCURVE",
"449 264 QCURVE SMOOTH",
"449 251 OFFCURVE",
"449 244 QCURVE SMOOTH",
"449 212 OFFCURVE",
"438 187 QCURVE SMOOTH",
"427 162 OFFCURVE",
"409 144 QCURVE SMOOTH",
"390 127 OFFCURVE",
"366 118 QCURVE SMOOTH",
"341 109 OFFCURVE",
"313 109 QCURVE",
"313 109 LINE"
);
}
);
width = 627;
}
);
note = o;
unicode = 006F;
},
{
glyphname = p;
layers = (
{
layerId = "1B5A2E6A-EA81-427B-BCB4-5148866553EF";
paths = (
{
closed = 1;
nodes = (
"182 4 OFFCURVE",
"182 74 QCURVE",
"195 74 OFFCURVE",
"201 74 QCURVE",
"210 56 OFFCURVE",
"223 40 QCURVE SMOOTH",
"236 25 OFFCURVE",
"254 12 QCURVE SMOOTH",
"273 0 OFFCURVE",
"299 -7 QCURVE SMOOTH",
"325 -14 OFFCURVE",
"359 -14 QCURVE SMOOTH",
"407 -14 OFFCURVE",
"447 3 QCURVE SMOOTH",
"487 19 OFFCURVE",
"517 52 QCURVE SMOOTH",
"547 86 OFFCURVE",
"564 134 QCURVE SMOOTH",
"582 182 OFFCURVE",
"582 245 QCURVE SMOOTH",
"582 257 OFFCURVE",
"582 263 QCURVE SMOOTH",
"582 325 OFFCURVE",
"564 373 QCURVE SMOOTH",
"546 421 OFFCURVE",
"515 454 QCURVE SMOOTH",
"485 487 OFFCURVE",
"445 505 QCURVE SMOOTH",
"404 522 OFFCURVE",
"359 522 QCURVE SMOOTH",
"299 522 OFFCURVE",
"260 499 QCURVE SMOOTH",
"221 476 OFFCURVE",
"201 434 QCURVE",
"187 434 OFFCURVE",
"182 434 QCURVE",
"182 489 OFFCURVE",
"182 508 QCURVE",
"86 508 OFFCURVE",
"53 508 QCURVE",
"53 -27 OFFCURVE",
"53 -205 QCURVE",
"150 -205 OFFCURVE",
"182 -205 QCURVE",
"182 -205 LINE"
);
},
{
closed = 1;
nodes = (
"257 109 OFFCURVE",
"220 147 QCURVE SMOOTH",
"182 185 OFFCURVE",
"182 248 QCURVE SMOOTH",
"182 256 OFFCURVE",
"182 260 QCURVE SMOOTH",
"182 323 OFFCURVE",
"220 361 QCURVE SMOOTH",
"257 399 OFFCURVE",
"317 399 QCURVE SMOOTH",
"378 399 OFFCURVE",
"415 362 QCURVE SMOOTH",
"453 325 OFFCURVE",
"453 260 QCURVE SMOOTH",
"453 252 OFFCURVE",
"453 248 QCURVE SMOOTH",
"453 183 OFFCURVE",
"415 146 QCURVE SMOOTH",
"378 109 OFFCURVE",
"317 109 QCURVE",
"317 109 LINE"
);
}
);
width = 627;
}
);
note = p;
unicode = 0070;
},
{
glyphname = q;
layers = (
{
layerId = "1B5A2E6A-EA81-427B-BCB4-5148866553EF";
paths = (
{
closed = 1;
nodes = (
"444 -135 OFFCURVE",
"444 -205 QCURVE",
"541 -205 OFFCURVE",
"573 -205 QCURVE",
"573 330 OFFCURVE",
"573 508 QCURVE",
"477 508 OFFCURVE",
"444 508 QCURVE",
"444 453 OFFCURVE",
"444 434 QCURVE",
"432 434 OFFCURVE",
"426 434 QCURVE",
"406 476 OFFCURVE",
"370 499 QCURVE SMOOTH",
"334 522 OFFCURVE",
"272 522 QCURVE SMOOTH",
"226 522 OFFCURVE",
"185 505 QCURVE SMOOTH",
"143 487 OFFCURVE",
"112 454 QCURVE SMOOTH",
"81 421 OFFCURVE",
"63 373 QCURVE SMOOTH",
"45 325 OFFCURVE",
"45 263 QCURVE SMOOTH",
"45 251 OFFCURVE",
"45 245 QCURVE SMOOTH",
"45 182 OFFCURVE",
"62 134 QCURVE SMOOTH",
"79 86 OFFCURVE",
"109 52 QCURVE SMOOTH",
"139 19 OFFCURVE",
"180 3 QCURVE SMOOTH",
"220 -14 OFFCURVE",
"267 -14 QCURVE SMOOTH",
"304 -14 OFFCURVE",
"330 -7 QCURVE SMOOTH",
"356 0 OFFCURVE",
"375 12 QCURVE SMOOTH",
"394 25 OFFCURVE",
"406 40 QCURVE SMOOTH",
"418 56 OFFCURVE",
"426 74 QCURVE",
"440 74 OFFCURVE",
"444 74 QCURVE",
"444 74 LINE"
);
},
{
closed = 1;
nodes = (
"249 109 OFFCURVE",
"211 146 QCURVE SMOOTH",
"174 183 OFFCURVE",
"174 248 QCURVE SMOOTH",
"174 256 OFFCURVE",
"174 260 QCURVE SMOOTH",
"174 325 OFFCURVE",
"211 362 QCURVE SMOOTH",
"249 399 OFFCURVE",
"309 399 QCURVE SMOOTH",
"370 399 OFFCURVE",
"407 361 QCURVE SMOOTH",
"444 323 OFFCURVE",
"444 260 QCURVE SMOOTH",
"444 252 OFFCURVE",
"444 248 QCURVE SMOOTH",
"444 185 OFFCURVE",
"407 147 QCURVE SMOOTH",
"370 109 OFFCURVE",
"309 109 QCURVE",
"309 109 LINE"
);
}
);
width = 627;
}
);
note = q;
unicode = 0071;
},
{
glyphname = r;
layers = (
{
layerId = "1B5A2E6A-EA81-427B-BCB4-5148866553EF";
paths = (
{
closed = 1;
nodes = (
"55 416 OFFCURVE",
"55 385 QCURVE",
"124 385 OFFCURVE",
"147 385 QCURVE",
"147 188 OFFCURVE",
"147 123 QCURVE",
"69 123 OFFCURVE",
"43 123 QCURVE",
"43 31 OFFCURVE",
"43 0 QCURVE",
"306 0 OFFCURVE",
"393 0 QCURVE",
"393 92 OFFCURVE",
"393 123 QCURVE",
"306 123 OFFCURVE",
"276 123 QCURVE",
"276 232 OFFCURVE",
"276 287 QCURVE SMOOTH",
"276 342 OFFCURVE",
"301 372 QCURVE SMOOTH",
"326 401 OFFCURVE",
"369 401 QCURVE SMOOTH",
"412 401 OFFCURVE",
"433 376 QCURVE SMOOTH",
"455 351 OFFCURVE",
"455 309 QCURVE SMOOTH",
"455 298 OFFCURVE",
"455 295 QCURVE",
"554 304 OFFCURVE",
"588 307 QCURVE",
"588 322 OFFCURVE",
"588 330 QCURVE SMOOTH",
"588 427 OFFCURVE",
"542 475 QCURVE SMOOTH",
"496 522 OFFCURVE",
"420 522 QCURVE SMOOTH",
"372 522 OFFCURVE",
"337 499 QCURVE SMOOTH",
"303 476 OFFCURVE",
"289 434 QCURVE",
"275 434 OFFCURVE",
"270 434 QCURVE",
"270 489 OFFCURVE",
"270 508 QCURVE",
"109 508 OFFCURVE",
"55 508 QCURVE",
"55 508 LINE"
);
}
);
width = 627;
}
);
note = r;
unicode = 0072;
},
{
glyphname = s;
layers = (
{
layerId = "1B5A2E6A-EA81-427B-BCB4-5148866553EF";
paths = (
{
closed = 1;
nodes = (
"242 382 OFFCURVE",
"258 394 QCURVE SMOOTH",
"274 406 OFFCURVE",
"307 406 QCURVE SMOOTH",
"343 406 OFFCURVE",
"366 390 QCURVE SMOOTH",
"388 374 OFFCURVE",
"397 346 QCURVE",
"475 378 OFFCURVE",
"514 393 QCURVE",
"506 415 OFFCURVE",
"490 438 QCURVE SMOOTH",
"475 461 OFFCURVE",
"451 479 QCURVE SMOOTH",
"426 499 OFFCURVE",
"391 510 QCURVE SMOOTH",
"355 522 OFFCURVE",
"307 522 QCURVE SMOOTH",
"270 522 OFFCURVE",
"236 512 QCURVE SMOOTH",
"201 502 OFFCURVE",
"174 481 QCURVE SMOOTH",
"147 462 OFFCURVE",
"131 433 QCURVE SMOOTH",
"115 404 OFFCURVE",
"115 367 QCURVE SMOOTH",
"115 362 OFFCURVE",
"115 360 QCURVE SMOOTH",
"115 288 OFFCURVE",
"165 250 QCURVE SMOOTH",
"216 213 OFFCURVE",
"302 206 QCURVE SMOOTH",
"334 203 OFFCURVE",
"355 198 QCURVE SMOOTH",
"376 193 OFFCURVE",
"388 184 QCURVE SMOOTH",
"400 177 OFFCURVE",
"405 168 QCURVE SMOOTH",
"410 160 OFFCURVE",
"410 150 QCURVE SMOOTH",
"410 132 OFFCURVE",
"392 117 QCURVE SMOOTH",
"374 102 OFFCURVE",
"326 102 QCURVE SMOOTH",
"271 102 OFFCURVE",
"245 127 QCURVE SMOOTH",
"219 152 OFFCURVE",
"211 184 QCURVE",
"132 158 OFFCURVE",
"92 145 QCURVE",
"97 119 OFFCURVE",
"112 91 QCURVE SMOOTH",
"127 62 OFFCURVE",
"155 39 QCURVE SMOOTH",
"182 16 OFFCURVE",
"224 1 QCURVE SMOOTH",
"266 -14 OFFCURVE",
"326 -14 QCURVE SMOOTH",
"426 -14 OFFCURVE",
"481 31 QCURVE SMOOTH",
"537 76 OFFCURVE",
"537 152 QCURVE SMOOTH",
"537 156 OFFCURVE",
"537 158 QCURVE SMOOTH",
"537 226 OFFCURVE",
"487 265 QCURVE SMOOTH",
"438 303 OFFCURVE",
"360 311 QCURVE SMOOTH",
"293 318 OFFCURVE",
"267 329 QCURVE SMOOTH",
"242 340 OFFCURVE",
"242 365 QCURVE",
"242 365 LINE"
);
}
);
width = 627;
}
);
note = s;
unicode = 0073;
},
{
glyphname = t;
layers = (
{
layerId = "1B5A2E6A-EA81-427B-BCB4-5148866553EF";
paths = (
{
closed = 1;
nodes = (
"66 416 OFFCURVE",
"66 385 QCURVE",
"178 385 OFFCURVE",
"216 385 QCURVE",
"216 182 OFFCURVE",
"216 80 QCURVE SMOOTH",
"216 45 OFFCURVE",
"238 23 QCURVE SMOOTH",
"260 0 OFFCURVE",
"295 0 QCURVE SMOOTH",
"456 0 OFFCURVE",
"510 0 QCURVE",
"510 92 OFFCURVE",
"510 123 QCURVE",
"418 123 OFFCURVE",
"373 123 QCURVE SMOOTH",
"345 123 OFFCURVE",
"345 154 QCURVE SMOOTH",
"345 327 OFFCURVE",
"345 385 QCURVE",
"483 385 OFFCURVE",
"528 385 QCURVE",
"528 477 OFFCURVE",
"528 508 QCURVE",
"391 508 OFFCURVE",
"345 508 QCURVE",
"345 665 OFFCURVE",
"345 717 QCURVE",
"248 717 OFFCURVE",
"216 717 QCURVE",
"216 560 OFFCURVE",
"216 508 QCURVE",
"103 508 OFFCURVE",
"66 508 QCURVE",
"66 508 LINE"
);
}
);
width = 627;
}
);
note = t;
unicode = 0074;
},
{
glyphname = u;
layers = (
{
layerId = "1B5A2E6A-EA81-427B-BCB4-5148866553EF";
paths = (
{
closed = 1;
nodes = (
"424 330 OFFCURVE",
"424 242 QCURVE SMOOTH",
"424 177 OFFCURVE",
"397 140 QCURVE SMOOTH",
"370 102 OFFCURVE",
"311 102 QCURVE SMOOTH",
"260 102 OFFCURVE",
"234 133 QCURVE SMOOTH",
"209 163 OFFCURVE",
"209 217 QCURVE SMOOTH",
"209 435 OFFCURVE",
"209 508 QCURVE",
"112 508 OFFCURVE",
"80 508 QCURVE",
"80 296 OFFCURVE",
"80 190 QCURVE SMOOTH",
"80 138 OFFCURVE",
"94 100 QCURVE SMOOTH",
"108 61 OFFCURVE",
"132 36 QCURVE SMOOTH",
"157 10 OFFCURVE",
"189 -2 QCURVE SMOOTH",
"222 -14 OFFCURVE",
"260 -14 QCURVE SMOOTH",
"372 -14 OFFCURVE",
"406 74 QCURVE",
"419 74 OFFCURVE",
"424 74 QCURVE",
"424 18 OFFCURVE",
"424 0 QCURVE",
"521 0 OFFCURVE",
"553 0 QCURVE",
"553 381 OFFCURVE",
"553 508 QCURVE",
"456 508 OFFCURVE",
"424 508 QCURVE",
"424 508 LINE"
);
}
);
width = 627;
}
);
note = u;
unicode = 0075;
},
{
glyphname = v;
layers = (
{
layerId = "1B5A2E6A-EA81-427B-BCB4-5148866553EF";
paths = (
{
closed = 1;
nodes = (
"153 127 OFFCURVE",
"189 0 QCURVE",
"374 0 OFFCURVE",
"435 0 QCURVE",
"544 381 OFFCURVE",
"581 508 QCURVE",
"476 508 OFFCURVE",
"441 508 QCURVE",
"351 173 OFFCURVE",
"322 61 QCURVE",
"308 61 OFFCURVE",
"303 61 QCURVE",
"213 396 OFFCURVE",
"183 508 QCURVE",
"79 508 OFFCURVE",
"44 508 QCURVE",
"44 508 LINE"
);
}
);
width = 627;
}
);
note = v;
unicode = 0076;
},
{
glyphname = w;
layers = (
{
layerId = "1B5A2E6A-EA81-427B-BCB4-5148866553EF";
paths = (
{
closed = 1;
nodes = (
"603 381 OFFCURVE",
"611 508 QCURVE",
"522 508 OFFCURVE",
"493 508 QCURVE",
"476 219 OFFCURVE",
"470 123 QCURVE",
"470 77 OFFCURVE",
"470 61 QCURVE",
"452 61 OFFCURVE",
"445 61 QCURVE",
"445 108 OFFCURVE",
"445 123 QCURVE SMOOTH",
"426 412 OFFCURVE",
"420 508 QCURVE",
"260 508 OFFCURVE",
"207 508 QCURVE",
"188 219 OFFCURVE",
"181 123 QCURVE",
"181 77 OFFCURVE",
"181 61 QCURVE",
"163 61 OFFCURVE",
"157 61 QCURVE",
"157 108 OFFCURVE",
"157 123 QCURVE SMOOTH",
"140 412 OFFCURVE",
"134 508 QCURVE",
"45 508 OFFCURVE",
"15 508 QCURVE",
"41 127 OFFCURVE",
"49 0 QCURVE",
"217 0 OFFCURVE",
"272 0 QCURVE",
"294 289 OFFCURVE",
"301 385 QCURVE",
"301 431 OFFCURVE",
"301 446 QCURVE",
"319 446 OFFCURVE",
"326 446 QCURVE",
"326 400 OFFCURVE",
"326 385 QCURVE",
"347 96 OFFCURVE",
"354 0 QCURVE",
"522 0 OFFCURVE",
"578 0 QCURVE",
"578 0 LINE"
);
}
);
width = 627;
}
);
note = w;
unicode = 0077;
},
{
glyphname = x;
layers = (
{
layerId = "1B5A2E6A-EA81-427B-BCB4-5148866553EF";
paths = (
{
closed = 1;
nodes = (
"346 368 OFFCURVE",
"323 322 QCURVE",
"309 322 OFFCURVE",
"304 322 QCURVE",
"233 461 OFFCURVE",
"210 508 QCURVE",
"102 508 OFFCURVE",
"67 508 QCURVE",
"159 329 OFFCURVE",
"190 269 QCURVE",
"190 255 OFFCURVE",
"190 251 QCURVE",
"93 63 OFFCURVE",
"60 0 QCURVE",
"172 0 OFFCURVE",
"209 0 QCURVE",
"280 149 OFFCURVE",
"304 199 QCURVE",
"318 199 OFFCURVE",
"323 199 QCURVE",
"394 50 OFFCURVE",
"418 0 QCURVE",
"529 0 OFFCURVE",
"566 0 QCURVE",
"469 188 OFFCURVE",
"436 251 QCURVE",
"436 265 OFFCURVE",
"436 269 QCURVE",
"528 448 OFFCURVE",
"559 508 QCURVE",
"452 508 OFFCURVE",
"417 508 QCURVE",
"417 508 LINE"
);
}
);
width = 627;
}
);
note = x;
unicode = 0078;
},
{
glyphname = y;
layers = (
{
layerId = "1B5A2E6A-EA81-427B-BCB4-5148866553EF";
paths = (
{
closed = 1;
nodes = (
"424 330 OFFCURVE",
"424 242 QCURVE SMOOTH",
"424 177 OFFCURVE",
"397 140 QCURVE SMOOTH",
"370 102 OFFCURVE",
"311 102 QCURVE SMOOTH",
"260 102 OFFCURVE",
"234 133 QCURVE SMOOTH",
"209 163 OFFCURVE",
"209 217 QCURVE SMOOTH",
"209 435 OFFCURVE",
"209 508 QCURVE",
"112 508 OFFCURVE",
"80 508 QCURVE",
"80 296 OFFCURVE",
"80 190 QCURVE SMOOTH",
"80 138 OFFCURVE",
"94 100 QCURVE SMOOTH",
"108 61 OFFCURVE",
"132 36 QCURVE SMOOTH",
"157 10 OFFCURVE",
"189 -2 QCURVE SMOOTH",
"222 -14 OFFCURVE",
"260 -14 QCURVE SMOOTH",
"372 -14 OFFCURVE",
"406 74 QCURVE",
"419 74 OFFCURVE",
"424 74 QCURVE",
"424 -10 OFFCURVE",
"424 -51 QCURVE SMOOTH",
"424 -82 OFFCURVE",
"396 -82 QCURVE SMOOTH",
"228 -82 OFFCURVE",
"172 -82 QCURVE",
"172 -174 OFFCURVE",
"172 -205 QCURVE",
"373 -205 OFFCURVE",
"474 -205 QCURVE SMOOTH",
"509 -205 OFFCURVE",
"531 -182 QCURVE SMOOTH",
"553 -160 OFFCURVE",
"553 -125 QCURVE SMOOTH",
"553 350 OFFCURVE",
"553 508 QCURVE",
"456 508 OFFCURVE",
"424 508 QCURVE",
"424 508 LINE"
);
}
);
width = 627;
}
);
note = y;
unicode = 0079;
},
{
glyphname = z;
layers = (
{
layerId = "1B5A2E6A-EA81-427B-BCB4-5148866553EF";
paths = (
{
closed = 1;
nodes = (
"287 123 OFFCURVE",
"204 123 QCURVE",
"204 137 OFFCURVE",
"204 141 QCURVE",
"443 260 OFFCURVE",
"523 299 QCURVE",
"523 456 OFFCURVE",
"523 508 QCURVE",
"205 508 OFFCURVE",
"99 508 QCURVE",
"99 419 OFFCURVE",
"99 389 QCURVE",
"334 389 OFFCURVE",
"413 389 QCURVE",
"413 375 OFFCURVE",
"413 371 QCURVE",
"173 254 OFFCURVE",
"93 215 QCURVE",
"93 54 OFFCURVE",
"93 0 QCURVE",
"425 0 OFFCURVE",
"536 0 QCURVE",
"536 92 OFFCURVE",
"536 123 QCURVE",
"536 123 LINE"
);
}
);
width = 627;
}
);
note = z;
unicode = 007A;
},
{
glyphname = braceleft;
layers = (
{
layerId = "1B5A2E6A-EA81-427B-BCB4-5148866553EF";
paths = (
{
closed = 1;
nodes = (
"262 565 OFFCURVE",
"262 462 QCURVE SMOOTH",
"262 432 OFFCURVE",
"234 432 QCURVE SMOOTH",
"186 432 OFFCURVE",
"170 432 QCURVE",
"170 322 OFFCURVE",
"170 285 QCURVE",
"213 285 OFFCURVE",
"234 285 QCURVE SMOOTH",
"262 285 OFFCURVE",
"262 255 QCURVE SMOOTH",
"262 48 OFFCURVE",
"262 -55 QCURVE SMOOTH",
"262 -101 OFFCURVE",
"291 -131 QCURVE SMOOTH",
"321 -160 OFFCURVE",
"367 -160 QCURVE SMOOTH",
"468 -160 OFFCURVE",
"502 -160 QCURVE",
"502 -68 OFFCURVE",
"502 -37 QCURVE",
"446 -37 OFFCURVE",
"419 -37 QCURVE SMOOTH",
"391 -37 OFFCURVE",
"391 -6 QCURVE SMOOTH",
"391 177 OFFCURVE",
"391 269 QCURVE SMOOTH",
"391 304 OFFCURVE",
"369 327 QCURVE SMOOTH",
"347 349 OFFCURVE",
"311 349 QCURVE SMOOTH",
"307 349 OFFCURVE",
"305 349 QCURVE",
"305 363 OFFCURVE",
"305 368 QCURVE",
"309 368 OFFCURVE",
"311 368 QCURVE SMOOTH",
"347 368 OFFCURVE",
"369 390 QCURVE SMOOTH",
"391 413 OFFCURVE",
"391 447 QCURVE SMOOTH",
"391 631 OFFCURVE",
"391 723 QCURVE SMOOTH",
"391 754 OFFCURVE",
"419 754 QCURVE SMOOTH",
"481 754 OFFCURVE",
"502 754 QCURVE",
"502 846 OFFCURVE",
"502 877 QCURVE",
"412 877 OFFCURVE",
"367 877 QCURVE SMOOTH",
"321 877 OFFCURVE",
"291 847 QCURVE SMOOTH",
"262 818 OFFCURVE",
"262 772 QCURVE",
"262 772 LINE"
);
}
);
width = 627;
}
);
note = braceleft;
unicode = 007B;
},
{
glyphname = bar;
layers = (
{
layerId = "1B5A2E6A-EA81-427B-BCB4-5148866553EF";
paths = (
{
closed = 1;
nodes = (
"375 617 OFFCURVE",
"375 877 QCURVE",
"283 877 OFFCURVE",
"252 877 QCURVE",
"252 99 OFFCURVE",
"252 -160 QCURVE",
"344 -160 OFFCURVE",
"375 -160 QCURVE",
"375 -160 LINE"
);
}
);
width = 627;
}
);
note = bar;
unicode = 007C;
},
{
glyphname = braceright;
layers = (
{
layerId = "1B5A2E6A-EA81-427B-BCB4-5148866553EF";
paths = (
{
closed = 1;
nodes = (
"365 669 OFFCURVE",
"365 772 QCURVE SMOOTH",
"365 818 OFFCURVE",
"335 847 QCURVE SMOOTH",
"306 877 OFFCURVE",
"260 877 QCURVE SMOOTH",
"159 877 OFFCURVE",
"125 877 QCURVE",
"125 784 OFFCURVE",
"125 754 QCURVE",
"180 754 OFFCURVE",
"208 754 QCURVE SMOOTH",
"236 754 OFFCURVE",
"236 723 QCURVE SMOOTH",
"236 539 OFFCURVE",
"236 447 QCURVE SMOOTH",
"236 413 OFFCURVE",
"258 390 QCURVE SMOOTH",
"280 368 OFFCURVE",
"315 368 QCURVE SMOOTH",
"320 368 OFFCURVE",
"322 368 QCURVE",
"322 354 OFFCURVE",
"322 349 QCURVE",
"317 349 OFFCURVE",
"315 349 QCURVE SMOOTH",
"280 349 OFFCURVE",
"258 327 QCURVE SMOOTH",
"236 304 OFFCURVE",
"236 269 QCURVE SMOOTH",
"236 86 OFFCURVE",
"236 -6 QCURVE SMOOTH",
"236 -37 OFFCURVE",
"208 -37 QCURVE SMOOTH",
"146 -37 OFFCURVE",
"125 -37 QCURVE",
"125 -129 OFFCURVE",
"125 -160 QCURVE",
"215 -160 OFFCURVE",
"260 -160 QCURVE SMOOTH",
"306 -160 OFFCURVE",
"335 -131 QCURVE SMOOTH",
"365 -101 OFFCURVE",
"365 -55 QCURVE SMOOTH",
"365 152 OFFCURVE",
"365 255 QCURVE SMOOTH",
"365 285 OFFCURVE",
"392 285 QCURVE SMOOTH",
"441 285 OFFCURVE",
"457 285 QCURVE",
"457 395 OFFCURVE",
"457 432 QCURVE",
"414 432 OFFCURVE",
"392 432 QCURVE SMOOTH",
"365 432 OFFCURVE",
"365 462 QCURVE",
"365 462 LINE"
);
}
);
width = 627;
}
);
note = braceright;
unicode = 007D;
},
{
glyphname = asciitilde;
layers = (
{
layerId = "1B5A2E6A-EA81-427B-BCB4-5148866553EF";
paths = (
{
closed = 1;
nodes = (
"332 402 OFFCURVE",
"311 415 QCURVE SMOOTH",
"291 427 OFFCURVE",
"255 427 QCURVE SMOOTH",
"227 427 OFFCURVE",
"204 416 QCURVE SMOOTH",
"181 406 OFFCURVE",
"164 391 QCURVE",
"71 321 OFFCURVE",
"40 297 QCURVE",
"94 226 OFFCURVE",
"112 202 QCURVE",
"170 245 OFFCURVE",
"200 266 QCURVE SMOOTH",
"210 274 OFFCURVE",
"220 280 QCURVE SMOOTH",
"229 286 OFFCURVE",
"240 286 QCURVE SMOOTH",
"254 286 OFFCURVE",
"262 278 QCURVE SMOOTH",
"270 270 OFFCURVE",
"283 250 QCURVE SMOOTH",
"294 232 OFFCURVE",
"314 220 QCURVE SMOOTH",
"335 208 OFFCURVE",
"371 208 QCURVE SMOOTH",
"398 208 OFFCURVE",
"421 219 QCURVE SMOOTH",
"444 229 OFFCURVE",
"462 244 QCURVE SMOOTH",
"555 314 OFFCURVE",
"586 338 QCURVE",
"532 409 OFFCURVE",
"514 433 QCURVE",
"455 390 OFFCURVE",
"426 369 QCURVE",
"416 360 OFFCURVE",
"406 355 QCURVE SMOOTH",
"396 349 OFFCURVE",
"386 349 QCURVE SMOOTH",
"372 349 OFFCURVE",
"364 357 QCURVE SMOOTH",
"355 365 OFFCURVE",
"343 385 QCURVE",
"343 385 LINE"
);
}
);
width = 627;
}
);
note = asciitilde;
unicode = 007E;
},
{
glyphname = exclamdown;
layers = (
{
layerId = "1B5A2E6A-EA81-427B-BCB4-5148866553EF";
paths = (
{
closed = 1;
nodes = (
"280 -205 OFFCURVE",
"246 -205 QCURVE",
"246 170 OFFCURVE",
"246 295 QCURVE",
"347 295 OFFCURVE",
"381 295 QCURVE",
"381 -80 OFFCURVE",
"381 -205 QCURVE",
"381 -205 LINE"
);
},
{
closed = 1;
nodes = (
"411 409 OFFCURVE",
"403 391 QCURVE SMOOTH",
"395 373 OFFCURVE",
"382 359 QCURVE SMOOTH",
"369 347 OFFCURVE",
"351 339 QCURVE SMOOTH",
"333 332 OFFCURVE",
"313 332 QCURVE SMOOTH",
"293 332 OFFCURVE",
"275 339 QCURVE SMOOTH",
"258 347 OFFCURVE",
"245 359 QCURVE SMOOTH",
"231 373 OFFCURVE",
"224 391 QCURVE SMOOTH",
"216 409 OFFCURVE",
"216 429 QCURVE SMOOTH",
"216 450 OFFCURVE",
"224 467 QCURVE SMOOTH",
"231 485 OFFCURVE",
"245 498 QCURVE SMOOTH",
"258 511 OFFCURVE",
"275 519 QCURVE SMOOTH",
"293 526 OFFCURVE",
"313 526 QCURVE SMOOTH",
"333 526 OFFCURVE",
"351 519 QCURVE SMOOTH",
"369 511 OFFCURVE",
"382 498 QCURVE SMOOTH",
"395 485 OFFCURVE",
"403 467 QCURVE SMOOTH",
"411 450 OFFCURVE",
"411 429 QCURVE",
"411 429 LINE"
);
}
);
width = 627;
}
);
note = exclamdown;
unicode = 00A1;
},
{
glyphname = cent;
layers = (
{
layerId = "1B5A2E6A-EA81-427B-BCB4-5148866553EF";
paths = (
{
closed = 1;
nodes = (
"369 672 OFFCURVE",
"369 688 QCURVE",
"295 688 OFFCURVE",
"270 688 QCURVE",
"270 644 OFFCURVE",
"270 622 QCURVE",
"225 613 OFFCURVE",
"186 592 QCURVE SMOOTH",
"147 571 OFFCURVE",
"119 538 QCURVE SMOOTH",
"90 505 OFFCURVE",
"74 460 QCURVE SMOOTH",
"57 416 OFFCURVE",
"57 362 QCURVE SMOOTH",
"57 354 OFFCURVE",
"57 350 QCURVE SMOOTH",
"57 295 OFFCURVE",
"74 251 QCURVE SMOOTH",
"90 207 OFFCURVE",
"119 174 QCURVE SMOOTH",
"147 141 OFFCURVE",
"186 121 QCURVE SMOOTH",
"225 100 OFFCURVE",
"270 93 QCURVE",
"270 45 OFFCURVE",
"270 29 QCURVE",
"344 29 OFFCURVE",
"369 29 QCURVE",
"369 72 OFFCURVE",
"369 93 QCURVE",
"451 106 OFFCURVE",
"503 158 QCURVE SMOOTH",
"555 209 OFFCURVE",
"569 285 QCURVE",
"493 302 OFFCURVE",
"455 311 QCURVE",
"446 279 OFFCURVE",
"427 248 QCURVE SMOOTH",
"408 218 OFFCURVE",
"369 207 QCURVE",
"369 409 OFFCURVE",
"369 510 QCURVE",
"408 499 OFFCURVE",
"427 470 QCURVE SMOOTH",
"446 441 OFFCURVE",
"453 406 QCURVE",
"529 423 OFFCURVE",
"567 432 QCURVE",
"555 508 OFFCURVE",
"502 559 QCURVE SMOOTH",
"449 610 OFFCURVE",
"369 623 QCURVE",
"369 623 LINE"
);
},
{
closed = 1;
nodes = (
"174 357 OFFCURVE",
"174 359 QCURVE SMOOTH",
"174 415 OFFCURVE",
"201 453 QCURVE SMOOTH",
"227 492 OFFCURVE",
"270 507 QCURVE",
"270 308 OFFCURVE",
"270 209 QCURVE",
"227 223 OFFCURVE",
"201 260 QCURVE SMOOTH",
"174 296 OFFCURVE",
"174 353 QCURVE",
"174 353 LINE"
);
}
);
width = 627;
}
);
note = cent;
unicode = 00A2;
},
{
glyphname = sterling;
layers = (
{
layerId = "1B5A2E6A-EA81-427B-BCB4-5148866553EF";
paths = (
{
closed = 1;
nodes = (
"285 431 OFFCURVE",
"285 453 QCURVE SMOOTH",
"285 477 OFFCURVE",
"298 497 QCURVE SMOOTH",
"311 516 OFFCURVE",
"344 516 QCURVE SMOOTH",
"377 516 OFFCURVE",
"390 497 QCURVE SMOOTH",
"403 477 OFFCURVE",
"403 453 QCURVE SMOOTH",
"403 437 OFFCURVE",
"403 432 QCURVE",
"491 432 OFFCURVE",
"520 432 QCURVE",
"520 444 OFFCURVE",
"520 451 QCURVE SMOOTH",
"520 493 OFFCURVE",
"507 525 QCURVE SMOOTH",
"494 558 OFFCURVE",
"470 581 QCURVE SMOOTH",
"447 603 OFFCURVE",
"415 615 QCURVE SMOOTH",
"382 627 OFFCURVE",
"344 627 QCURVE SMOOTH",
"265 627 OFFCURVE",
"217 581 QCURVE SMOOTH",
"168 536 OFFCURVE",
"168 449 QCURVE SMOOTH",
"168 402 OFFCURVE",
"168 387 QCURVE",
"122 387 OFFCURVE",
"106 387 QCURVE",
"106 313 OFFCURVE",
"106 289 QCURVE",
"153 289 OFFCURVE",
"168 289 QCURVE",
"168 233 OFFCURVE",
"168 215 QCURVE",
"122 215 OFFCURVE",
"106 215 QCURVE",
"106 132 OFFCURVE",
"106 104 QCURVE",
"408 104 OFFCURVE",
"508 104 QCURVE",
"508 187 OFFCURVE",
"508 215 QCURVE",
"340 215 OFFCURVE",
"285 215 QCURVE",
"285 270 OFFCURVE",
"285 289 QCURVE",
"340 289 OFFCURVE",
"358 289 QCURVE",
"358 362 OFFCURVE",
"358 387 QCURVE",
"303 387 OFFCURVE",
"285 387 QCURVE",
"285 387 LINE"
);
}
);
width = 627;
}
);
note = sterling;
unicode = 00A3;
},
{
glyphname = currency;
layers = (
{
layerId = "1B5A2E6A-EA81-427B-BCB4-5148866553EF";
paths = (
{
closed = 1;
nodes = (
"57 319 OFFCURVE",
"68 285 QCURVE SMOOTH",
"78 251 OFFCURVE",
"97 221 QCURVE",
"50 174 OFFCURVE",
"35 159 QCURVE",
"94 100 OFFCURVE",
"114 80 QCURVE",
"155 122 OFFCURVE",
"176 142 QCURVE",
"206 123 OFFCURVE",
"240 113 QCURVE SMOOTH",
"274 102 OFFCURVE",
"313 102 QCURVE SMOOTH",
"351 102 OFFCURVE",
"386 113 QCURVE SMOOTH",
"421 123 OFFCURVE",
"451 142 QCURVE",
"497 95 OFFCURVE",
"513 80 QCURVE",
"572 139 OFFCURVE",
"592 159 QCURVE",
"550 200 OFFCURVE",
"529 221 QCURVE",
"548 251 OFFCURVE",
"559 285 QCURVE SMOOTH",
"569 319 OFFCURVE",
"569 358 QCURVE SMOOTH",
"569 396 OFFCURVE",
"559 431 QCURVE SMOOTH",
"548 466 OFFCURVE",
"529 496 QCURVE",
"576 542 OFFCURVE",
"592 558 QCURVE",
"533 617 OFFCURVE",
"513 637 QCURVE",
"471 595 OFFCURVE",
"451 574 QCURVE",
"421 593 OFFCURVE",
"386 604 QCURVE SMOOTH",
"351 614 OFFCURVE",
"313 614 QCURVE SMOOTH",
"274 614 OFFCURVE",
"240 604 QCURVE SMOOTH",
"206 593 OFFCURVE",
"176 574 QCURVE",
"129 621 OFFCURVE",
"114 637 QCURVE",
"55 578 OFFCURVE",
"35 558 QCURVE",
"76 516 OFFCURVE",
"97 496 QCURVE",
"78 466 OFFCURVE",
"68 431 QCURVE SMOOTH",
"57 396 OFFCURVE",
"57 358 QCURVE",
"57 358 LINE"
);
},
{
closed = 1;
nodes = (
"168 389 OFFCURVE",
"179 416 QCURVE SMOOTH",
"190 442 OFFCURVE",
"210 462 QCURVE SMOOTH",
"229 481 OFFCURVE",
"256 493 QCURVE SMOOTH",
"283 504 OFFCURVE",
"313 504 QCURVE SMOOTH",
"344 504 OFFCURVE",
"371 493 QCURVE SMOOTH",
"397 481 OFFCURVE",
"417 462 QCURVE SMOOTH",
"436 442 OFFCURVE",
"447 416 QCURVE SMOOTH",
"459 389 OFFCURVE",
"459 358 QCURVE SMOOTH",
"459 328 OFFCURVE",
"447 301 QCURVE SMOOTH",
"436 274 OFFCURVE",
"417 255 QCURVE SMOOTH",
"397 236 OFFCURVE",
"371 224 QCURVE SMOOTH",
"344 213 OFFCURVE",
"313 213 QCURVE SMOOTH",
"283 213 OFFCURVE",
"256 224 QCURVE SMOOTH",
"229 236 OFFCURVE",
"210 255 QCURVE SMOOTH",
"190 274 OFFCURVE",
"179 301 QCURVE SMOOTH",
"168 328 OFFCURVE",
"168 358 QCURVE",
"168 358 LINE"
);
}
);
width = 627;
}
);
note = currency;
unicode = 00A4;
},
{
glyphname = yen;
layers = (
{
layerId = "1B5A2E6A-EA81-427B-BCB4-5148866553EF";
paths = (
{
closed = 1;
nodes = (
"118 326 OFFCURVE",
"118 301 QCURVE",
"216 301 OFFCURVE",
"249 301 QCURVE",
"249 278 OFFCURVE",
"249 270 QCURVE",
"151 270 OFFCURVE",
"118 270 QCURVE",
"118 197 OFFCURVE",
"118 172 QCURVE",
"216 172 OFFCURVE",
"249 172 QCURVE",
"249 121 OFFCURVE",
"249 104 QCURVE",
"346 104 OFFCURVE",
"378 104 QCURVE",
"378 155 OFFCURVE",
"378 172 QCURVE",
"476 172 OFFCURVE",
"509 172 QCURVE",
"509 246 OFFCURVE",
"509 270 QCURVE",
"411 270 OFFCURVE",
"378 270 QCURVE",
"378 293 OFFCURVE",
"378 301 QCURVE",
"476 301 OFFCURVE",
"509 301 QCURVE",
"509 375 OFFCURVE",
"509 399 QCURVE",
"465 399 OFFCURVE",
"451 399 QCURVE",
"517 559 OFFCURVE",
"540 612 QCURVE",
"437 612 OFFCURVE",
"402 612 QCURVE",
"340 453 OFFCURVE",
"319 399 QCURVE",
"310 399 OFFCURVE",
"307 399 QCURVE",
"245 559 OFFCURVE",
"224 612 QCURVE",
"121 612 OFFCURVE",
"87 612 QCURVE",
"154 453 OFFCURVE",
"176 399 QCURVE",
"132 399 OFFCURVE",
"118 399 QCURVE",
"118 399 LINE"
);
}
);
width = 627;
}
);
note = yen;
unicode = 00A5;
},
{
glyphname = brokenbar;
layers = (
{
layerId = "1B5A2E6A-EA81-427B-BCB4-5148866553EF";
paths = (
{
closed = 1;
nodes = (
"283 297 OFFCURVE",
"252 297 QCURVE",
"252 -46 OFFCURVE",
"252 -160 QCURVE",
"344 -160 OFFCURVE",
"375 -160 QCURVE",
"375 183 OFFCURVE",
"375 297 QCURVE",
"375 297 LINE"
);
},
{
closed = 1;
nodes = (
"344 420 OFFCURVE",
"375 420 QCURVE",
"375 762 OFFCURVE",
"375 877 QCURVE",
"283 877 OFFCURVE",
"252 877 QCURVE",
"252 534 OFFCURVE",
"252 420 QCURVE",
"252 420 LINE"
);
}
);
width = 627;
}
);
note = brokenbar;
unicode = 00A6;
},
{
glyphname = section;
layers = (
{
layerId = "1B5A2E6A-EA81-427B-BCB4-5148866553EF";
paths = (
{
closed = 1;
nodes = (
"360 609 OFFCURVE",
"360 608 QCURVE",
"430 608 OFFCURVE",
"453 608 QCURVE",
"453 612 OFFCURVE",
"453 614 QCURVE SMOOTH",
"453 638 OFFCURVE",
"444 659 QCURVE SMOOTH",
"435 681 OFFCURVE",
"418 696 QCURVE SMOOTH",
"401 713 OFFCURVE",
"376 722 QCURVE SMOOTH",
"350 731 OFFCURVE",
"317 731 QCURVE SMOOTH",
"263 731 OFFCURVE",
"226 702 QCURVE SMOOTH",
"188 674 OFFCURVE",
"188 621 QCURVE SMOOTH",
"188 602 OFFCURVE",
"192 589 QCURVE SMOOTH",
"196 577 OFFCURVE",
"202 564 QCURVE",
"194 553 OFFCURVE",
"188 536 QCURVE SMOOTH",
"182 519 OFFCURVE",
"182 498 QCURVE SMOOTH",
"182 469 OFFCURVE",
"193 449 QCURVE SMOOTH",
"203 428 OFFCURVE",
"219 414 QCURVE SMOOTH",
"236 400 OFFCURVE",
"257 392 QCURVE SMOOTH",
"279 384 OFFCURVE",
"301 380 QCURVE SMOOTH",
"323 376 OFFCURVE",
"335 372 QCURVE SMOOTH",
"348 368 OFFCURVE",
"354 362 QCURVE SMOOTH",
"360 357 OFFCURVE",
"362 352 QCURVE SMOOTH",
"365 346 OFFCURVE",
"365 340 QCURVE SMOOTH",
"365 328 OFFCURVE",
"354 318 QCURVE SMOOTH",
"344 309 OFFCURVE",
"319 309 QCURVE SMOOTH",
"295 309 OFFCURVE",
"280 321 QCURVE SMOOTH",
"264 333 OFFCURVE",
"264 355 QCURVE SMOOTH",
"264 360 OFFCURVE",
"264 361 QCURVE",
"195 361 OFFCURVE",
"172 361 QCURVE",
"172 357 OFFCURVE",
"172 355 QCURVE SMOOTH",
"172 299 OFFCURVE",
"209 261 QCURVE SMOOTH",
"247 223 OFFCURVE",
"319 223 QCURVE SMOOTH",
"384 223 OFFCURVE",
"420 258 QCURVE SMOOTH",
"457 292 OFFCURVE",
"457 344 QCURVE SMOOTH",
"457 361 OFFCURVE",
"453 375 QCURVE SMOOTH",
"450 388 OFFCURVE",
"444 397 QCURVE",
"455 412 OFFCURVE",
"459 429 QCURVE SMOOTH",
"463 446 OFFCURVE",
"463 463 QCURVE SMOOTH",
"463 515 OFFCURVE",
"433 544 QCURVE SMOOTH",
"403 572 OFFCURVE",
"348 583 QCURVE SMOOTH",
"305 591 OFFCURVE",
"293 599 QCURVE SMOOTH",
"281 606 OFFCURVE",
"281 621 QCURVE SMOOTH",
"281 631 OFFCURVE",
"290 638 QCURVE SMOOTH",
"299 645 OFFCURVE",
"317 645 QCURVE SMOOTH",
"341 645 OFFCURVE",
"351 636 QCURVE SMOOTH",
"360 627 OFFCURVE",
"360 612 QCURVE",
"360 612 LINE"
);
},
{
closed = 1;
nodes = (
"340 458 OFFCURVE",
"328 461 QCURVE SMOOTH",
"295 469 OFFCURVE",
"287 479 QCURVE SMOOTH",
"279 488 OFFCURVE",
"279 499 QCURVE SMOOTH",
"279 506 OFFCURVE",
"282 511 QCURVE",
"306 506 OFFCURVE",
"318 503 QCURVE SMOOTH",
"348 496 OFFCURVE",
"357 486 QCURVE SMOOTH",
"367 476 OFFCURVE",
"367 462 QCURVE SMOOTH",
"367 456 OFFCURVE",
"365 452 QCURVE",
"365 452 LINE"
);
}
);
width = 627;
}
);
note = section;
unicode = 00A7;
},
{
glyphname = dieresis;
layers = (
{
layerId = "1B5A2E6A-EA81-427B-BCB4-5148866553EF";
paths = (
{
closed = 1;
nodes = (
"289 679 OFFCURVE",
"281 697 QCURVE SMOOTH",
"273 715 OFFCURVE",
"260 727 QCURVE SMOOTH",
"247 740 OFFCURVE",
"229 748 QCURVE SMOOTH",
"211 756 OFFCURVE",
"191 756 QCURVE SMOOTH",
"171 756 OFFCURVE",
"154 748 QCURVE SMOOTH",
"136 740 OFFCURVE",
"123 727 QCURVE SMOOTH",
"110 715 OFFCURVE",
"102 697 QCURVE SMOOTH",
"94 679 OFFCURVE",
"94 658 QCURVE SMOOTH",
"94 638 OFFCURVE",
"102 620 QCURVE SMOOTH",
"110 602 OFFCURVE",
"123 589 QCURVE SMOOTH",
"136 577 OFFCURVE",
"154 569 QCURVE SMOOTH",
"171 561 OFFCURVE",
"191 561 QCURVE SMOOTH",
"211 561 OFFCURVE",
"229 569 QCURVE SMOOTH",
"247 577 OFFCURVE",
"260 589 QCURVE SMOOTH",
"273 602 OFFCURVE",
"281 620 QCURVE SMOOTH",
"289 638 OFFCURVE",
"289 658 QCURVE",
"289 658 LINE"
);
},
{
closed = 1;
nodes = (
"532 679 OFFCURVE",
"525 697 QCURVE SMOOTH",
"517 715 OFFCURVE",
"504 727 QCURVE SMOOTH",
"490 740 OFFCURVE",
"473 748 QCURVE SMOOTH",
"455 756 OFFCURVE",
"435 756 QCURVE SMOOTH",
"415 756 OFFCURVE",
"397 748 QCURVE SMOOTH",
"380 740 OFFCURVE",
"367 727 QCURVE SMOOTH",
"353 715 OFFCURVE",
"346 697 QCURVE SMOOTH",
"338 679 OFFCURVE",
"338 658 QCURVE SMOOTH",
"338 638 OFFCURVE",
"346 620 QCURVE SMOOTH",
"353 602 OFFCURVE",
"367 589 QCURVE SMOOTH",
"380 577 OFFCURVE",
"397 569 QCURVE SMOOTH",
"415 561 OFFCURVE",
"435 561 QCURVE SMOOTH",
"455 561 OFFCURVE",
"473 569 QCURVE SMOOTH",
"490 577 OFFCURVE",
"504 589 QCURVE SMOOTH",
"517 602 OFFCURVE",
"525 620 QCURVE SMOOTH",
"532 638 OFFCURVE",
"532 658 QCURVE",
"532 658 LINE"
);
}
);
width = 627;
}
);
note = dieresis;
unicode = 00A8;
},
{
glyphname = copyright;
layers = (
{
layerId = "1B5A2E6A-EA81-427B-BCB4-5148866553EF";
paths = (
{
closed = 1;
nodes = (
"330 649 OFFCURVE",
"337 639 QCURVE SMOOTH",
"345 629 OFFCURVE",
"345 616 QCURVE SMOOTH",
"345 604 OFFCURVE",
"345 600 QCURVE",
"405 600 OFFCURVE",
"425 600 QCURVE",
"425 611 OFFCURVE",
"425 616 QCURVE SMOOTH",
"425 664 OFFCURVE",
"395 693 QCURVE SMOOTH",
"365 723 OFFCURVE",
"312 723 QCURVE SMOOTH",
"261 723 OFFCURVE",
"230 693 QCURVE SMOOTH",
"200 664 OFFCURVE",
"200 616 QCURVE SMOOTH",
"200 554 OFFCURVE",
"200 522 QCURVE SMOOTH",
"200 475 OFFCURVE",
"231 445 QCURVE SMOOTH",
"262 416 OFFCURVE",
"312 416 QCURVE SMOOTH",
"365 416 OFFCURVE",
"395 445 QCURVE SMOOTH",
"425 475 OFFCURVE",
"425 522 QCURVE SMOOTH",
"425 535 OFFCURVE",
"425 539 QCURVE",
"365 539 OFFCURVE",
"345 539 QCURVE",
"345 528 OFFCURVE",
"345 522 QCURVE SMOOTH",
"345 510 OFFCURVE",
"337 500 QCURVE SMOOTH",
"330 489 OFFCURVE",
"312 489 QCURVE SMOOTH",
"295 489 OFFCURVE",
"287 500 QCURVE SMOOTH",
"280 510 OFFCURVE",
"280 522 QCURVE SMOOTH",
"280 585 OFFCURVE",
"280 616 QCURVE SMOOTH",
"280 629 OFFCURVE",
"287 639 QCURVE SMOOTH",
"295 649 OFFCURVE",
"312 649 QCURVE",
"312 649 LINE"
);
},
{
closed = 1;
nodes = (
"29 511 OFFCURVE",
"51 459 QCURVE SMOOTH",
"74 407 OFFCURVE",
"112 368 QCURVE SMOOTH",
"151 330 OFFCURVE",
"203 307 QCURVE SMOOTH",
"255 285 OFFCURVE",
"313 285 QCURVE SMOOTH",
"372 285 OFFCURVE",
"424 307 QCURVE SMOOTH",
"476 330 OFFCURVE",
"514 368 QCURVE SMOOTH",
"553 407 OFFCURVE",
"575 459 QCURVE SMOOTH",
"598 511 OFFCURVE",
"598 569 QCURVE SMOOTH",
"598 628 OFFCURVE",
"575 680 QCURVE SMOOTH",
"553 732 OFFCURVE",
"514 770 QCURVE SMOOTH",
"476 809 OFFCURVE",
"424 831 QCURVE SMOOTH",
"372 854 OFFCURVE",
"313 854 QCURVE SMOOTH",
"255 854 OFFCURVE",
"203 831 QCURVE SMOOTH",
"151 809 OFFCURVE",
"112 770 QCURVE SMOOTH",
"74 732 OFFCURVE",
"51 680 QCURVE SMOOTH",
"29 628 OFFCURVE",
"29 569 QCURVE",
"29 569 LINE"
);
},
{
closed = 1;
nodes = (
"109 612 OFFCURVE",
"124 650 QCURVE SMOOTH",
"140 687 OFFCURVE",
"168 715 QCURVE SMOOTH",
"196 742 OFFCURVE",
"233 758 QCURVE SMOOTH",
"270 774 OFFCURVE",
"313 774 QCURVE SMOOTH",
"356 774 OFFCURVE",
"394 758 QCURVE SMOOTH",
"431 742 OFFCURVE",
"459 715 QCURVE SMOOTH",
"486 687 OFFCURVE",
"502 650 QCURVE SMOOTH",
"518 612 OFFCURVE",
"518 569 QCURVE SMOOTH",
"518 526 OFFCURVE",
"502 489 QCURVE SMOOTH",
"486 452 OFFCURVE",
"459 424 QCURVE SMOOTH",
"431 396 OFFCURVE",
"394 380 QCURVE SMOOTH",
"356 365 OFFCURVE",
"313 365 QCURVE SMOOTH",
"270 365 OFFCURVE",
"233 380 QCURVE SMOOTH",
"196 396 OFFCURVE",
"168 424 QCURVE SMOOTH",
"140 452 OFFCURVE",
"124 489 QCURVE SMOOTH",
"109 526 OFFCURVE",
"109 569 QCURVE",
"109 569 LINE"
);
}
);
width = 627;
}
);
note = copyright;
unicode = 00A9;
},
{
glyphname = ordfeminine;
layers = (
{
layerId = "1B5A2E6A-EA81-427B-BCB4-5148866553EF";
paths = (
{
closed = 1;
nodes = (
"361 457 OFFCURVE",
"365 457 QCURVE",
"367 441 OFFCURVE",
"377 432 QCURVE SMOOTH",
"387 422 OFFCURVE",
"406 422 QCURVE SMOOTH",
"464 422 OFFCURVE",
"483 422 QCURVE",
"483 482 OFFCURVE",
"483 502 QCURVE",
"470 502 OFFCURVE",
"463 502 QCURVE SMOOTH",
"446 502 OFFCURVE",
"446 519 QCURVE SMOOTH",
"446 667 OFFCURVE",
"446 717 QCURVE",
"385 717 OFFCURVE",
"365 717 QCURVE",
"365 695 OFFCURVE",
"365 688 QCURVE",
"358 688 OFFCURVE",
"355 688 QCURVE",
"344 703 OFFCURVE",
"327 713 QCURVE SMOOTH",
"309 723 OFFCURVE",
"279 723 QCURVE SMOOTH",
"250 723 OFFCURVE",
"225 713 QCURVE SMOOTH",
"200 702 OFFCURVE",
"181 682 QCURVE SMOOTH",
"163 663 OFFCURVE",
"152 634 QCURVE SMOOTH",
"141 606 OFFCURVE",
"141 569 QCURVE SMOOTH",
"141 532 OFFCURVE",
"152 504 QCURVE SMOOTH",
"163 475 OFFCURVE",
"181 456 QCURVE SMOOTH",
"200 436 OFFCURVE",
"224 426 QCURVE SMOOTH",
"249 416 OFFCURVE",
"276 416 QCURVE SMOOTH",
"306 416 OFFCURVE",
"326 427 QCURVE SMOOTH",
"345 438 OFFCURVE",
"355 457 QCURVE",
"355 457 LINE"
);
},
{
closed = 1;
nodes = (
"263 496 OFFCURVE",
"245 516 QCURVE SMOOTH",
"227 536 OFFCURVE",
"227 569 QCURVE SMOOTH",
"227 603 OFFCURVE",
"245 623 QCURVE SMOOTH",
"263 643 OFFCURVE",
"294 643 QCURVE SMOOTH",
"325 643 OFFCURVE",
"343 623 QCURVE SMOOTH",
"360 603 OFFCURVE",
"360 569 QCURVE SMOOTH",
"360 536 OFFCURVE",
"343 516 QCURVE SMOOTH",
"325 496 OFFCURVE",
"294 496 QCURVE",
"294 496 LINE"
);
}
);
width = 627;
}
);
note = ordfeminine;
unicode = 00AA;
},
{
glyphname = guillemotleft;
layers = (
{
layerId = "1B5A2E6A-EA81-427B-BCB4-5148866553EF";
paths = (
{
closed = 1;
nodes = (
"296 0 OFFCURVE",
"295 0 QCURVE",
"106 117 OFFCURVE",
"43 156 QCURVE",
"43 303 OFFCURVE",
"43 352 QCURVE",
"232 469 OFFCURVE",
"295 508 QCURVE",
"300 508 OFFCURVE",
"301 508 QCURVE",
"301 399 OFFCURVE",
"301 362 QCURVE",
"167 288 OFFCURVE",
"123 263 QCURVE",
"123 249 OFFCURVE",
"123 245 QCURVE",
"257 170 OFFCURVE",
"301 145 QCURVE",
"301 36 OFFCURVE",
"301 0 QCURVE",
"301 0 LINE"
);
},
{
closed = 1;
nodes = (
"579 0 OFFCURVE",
"578 0 QCURVE",
"389 117 OFFCURVE",
"326 156 QCURVE",
"326 303 OFFCURVE",
"326 352 QCURVE",
"515 469 OFFCURVE",
"578 508 QCURVE",
"582 508 OFFCURVE",
"584 508 QCURVE",
"584 399 OFFCURVE",
"584 362 QCURVE",
"450 288 OFFCURVE",
"406 263 QCURVE",
"406 249 OFFCURVE",
"406 245 QCURVE",
"539 170 OFFCURVE",
"584 145 QCURVE",
"584 36 OFFCURVE",
"584 0 QCURVE",
"584 0 LINE"
);
}
);
width = 627;
}
);
note = guillemotleft;
unicode = 00AB;
},
{
glyphname = logicalnot;
layers = (
{
layerId = "1B5A2E6A-EA81-427B-BCB4-5148866553EF";
paths = (
{
closed = 1;
nodes = (
"99 329 OFFCURVE",
"99 300 QCURVE",
"333 300 OFFCURVE",
"411 300 QCURVE",
"411 199 OFFCURVE",
"411 166 QCURVE",
"498 166 OFFCURVE",
"527 166 QCURVE",
"527 354 OFFCURVE",
"527 417 QCURVE",
"206 417 OFFCURVE",
"99 417 QCURVE",
"99 417 LINE"
);
}
);
width = 627;
}
);
note = logicalnot;
unicode = 00AC;
},
{
glyphname = registered;
layers = (
{
layerId = "1B5A2E6A-EA81-427B-BCB4-5148866553EF";
paths = (
{
closed = 1;
nodes = (
"29 511 OFFCURVE",
"51 459 QCURVE SMOOTH",
"74 407 OFFCURVE",
"112 368 QCURVE SMOOTH",
"151 330 OFFCURVE",
"203 307 QCURVE SMOOTH",
"255 285 OFFCURVE",
"313 285 QCURVE SMOOTH",
"372 285 OFFCURVE",
"424 307 QCURVE SMOOTH",
"476 330 OFFCURVE",
"514 368 QCURVE SMOOTH",
"553 407 OFFCURVE",
"575 459 QCURVE SMOOTH",
"598 511 OFFCURVE",
"598 569 QCURVE SMOOTH",
"598 628 OFFCURVE",
"575 680 QCURVE SMOOTH",
"553 732 OFFCURVE",
"514 770 QCURVE SMOOTH",
"476 809 OFFCURVE",
"424 831 QCURVE SMOOTH",
"372 854 OFFCURVE",
"313 854 QCURVE SMOOTH",
"255 854 OFFCURVE",
"203 831 QCURVE SMOOTH",
"151 809 OFFCURVE",
"112 770 QCURVE SMOOTH",
"74 732 OFFCURVE",
"51 680 QCURVE SMOOTH",
"29 628 OFFCURVE",
"29 569 QCURVE",
"29 569 LINE"
);
},
{
closed = 1;
nodes = (
"109 612 OFFCURVE",
"124 650 QCURVE SMOOTH",
"140 687 OFFCURVE",
"168 715 QCURVE SMOOTH",
"196 742 OFFCURVE",
"233 758 QCURVE SMOOTH",
"270 774 OFFCURVE",
"313 774 QCURVE SMOOTH",
"356 774 OFFCURVE",
"394 758 QCURVE SMOOTH",
"431 742 OFFCURVE",
"459 715 QCURVE SMOOTH",
"486 687 OFFCURVE",
"502 650 QCURVE SMOOTH",
"518 612 OFFCURVE",
"518 569 QCURVE SMOOTH",
"518 526 OFFCURVE",
"502 489 QCURVE SMOOTH",
"486 452 OFFCURVE",
"459 424 QCURVE SMOOTH",
"431 396 OFFCURVE",
"394 380 QCURVE SMOOTH",
"356 365 OFFCURVE",
"313 365 QCURVE SMOOTH",
"270 365 OFFCURVE",
"233 380 QCURVE SMOOTH",
"196 396 OFFCURVE",
"168 424 QCURVE SMOOTH",
"140 452 OFFCURVE",
"124 489 QCURVE SMOOTH",
"109 526 OFFCURVE",
"109 569 QCURVE",
"109 569 LINE"
);
},
{
closed = 1;
nodes = (
"418 483 OFFCURVE",
"418 514 QCURVE SMOOTH",
"418 528 OFFCURVE",
"410 541 QCURVE SMOOTH",
"401 553 OFFCURVE",
"383 555 QCURVE",
"383 561 OFFCURVE",
"383 564 QCURVE",
"424 581 OFFCURVE",
"424 635 QCURVE SMOOTH",
"424 668 OFFCURVE",
"400 692 QCURVE SMOOTH",
"376 717 OFFCURVE",
"330 717 QCURVE SMOOTH",
"248 717 OFFCURVE",
"221 717 QCURVE",
"221 496 OFFCURVE",
"221 422 QCURVE",
"281 422 OFFCURVE",
"301 422 QCURVE",
"301 496 OFFCURVE",
"301 520 QCURVE",
"309 520 OFFCURVE",
"312 520 QCURVE SMOOTH",
"325 520 OFFCURVE",
"331 513 QCURVE SMOOTH",
"338 506 OFFCURVE",
"338 495 QCURVE SMOOTH",
"338 440 OFFCURVE",
"338 422 QCURVE",
"398 422 OFFCURVE",
"418 422 QCURVE",
"418 422 LINE"
);
},
{
closed = 1;
nodes = (
"301 631 OFFCURVE",
"301 643 QCURVE",
"312 643 OFFCURVE",
"317 643 QCURVE SMOOTH",
"344 643 OFFCURVE",
"344 618 QCURVE SMOOTH",
"344 594 OFFCURVE",
"317 594 QCURVE SMOOTH",
"305 594 OFFCURVE",
"301 594 QCURVE",
"301 594 LINE"
);
}
);
width = 627;
}
);
note = registered;
unicode = 00AE;
},
{
glyphname = macron;
layers = (
{
layerId = "1B5A2E6A-EA81-427B-BCB4-5148866553EF";
paths = (
{
closed = 1;
nodes = (
"464 662 OFFCURVE",
"464 688 QCURVE",
"238 688 OFFCURVE",
"163 688 QCURVE",
"163 610 OFFCURVE",
"163 584 QCURVE",
"389 584 OFFCURVE",
"464 584 QCURVE",
"464 584 LINE"
);
}
);
width = 627;
}
);
note = macron;
unicode = 00AF;
},
{
glyphname = degree;
layers = (
{
layerId = "1B5A2E6A-EA81-427B-BCB4-5148866553EF";
paths = (
{
closed = 1;
nodes = (
"153 549 OFFCURVE",
"165 520 QCURVE SMOOTH",
"178 490 OFFCURVE",
"200 469 QCURVE SMOOTH",
"221 447 OFFCURVE",
"250 435 QCURVE SMOOTH",
"280 422 OFFCURVE",
"313 422 QCURVE SMOOTH",
"347 422 OFFCURVE",
"376 435 QCURVE SMOOTH",
"406 447 OFFCURVE",
"427 469 QCURVE SMOOTH",
"449 490 OFFCURVE",
"461 520 QCURVE SMOOTH",
"474 549 OFFCURVE",
"474 583 QCURVE SMOOTH",
"474 616 OFFCURVE",
"461 646 QCURVE SMOOTH",
"449 675 OFFCURVE",
"427 696 QCURVE SMOOTH",
"406 718 OFFCURVE",
"376 731 QCURVE SMOOTH",
"347 743 OFFCURVE",
"313 743 QCURVE SMOOTH",
"280 743 OFFCURVE",
"250 731 QCURVE SMOOTH",
"221 718 OFFCURVE",
"200 696 QCURVE SMOOTH",
"178 675 OFFCURVE",
"165 646 QCURVE SMOOTH",
"153 616 OFFCURVE",
"153 583 QCURVE",
"153 583 LINE"
);
},
{
closed = 1;
nodes = (
"263 603 OFFCURVE",
"278 618 QCURVE SMOOTH",
"293 633 OFFCURVE",
"313 633 QCURVE SMOOTH",
"334 633 OFFCURVE",
"349 618 QCURVE SMOOTH",
"364 603 OFFCURVE",
"364 583 QCURVE SMOOTH",
"364 562 OFFCURVE",
"349 547 QCURVE SMOOTH",
"334 532 OFFCURVE",
"313 532 QCURVE SMOOTH",
"293 532 OFFCURVE",
"278 547 QCURVE SMOOTH",
"263 562 OFFCURVE",
"263 583 QCURVE",
"263 583 LINE"
);
}
);
width = 627;
}
);
note = degree;
unicode = 00B0;
},
{
glyphname = plusminus;
layers = (
{
layerId = "1B5A2E6A-EA81-427B-BCB4-5148866553EF";
paths = (
{
closed = 1;
nodes = (
"99 329 OFFCURVE",
"99 300 QCURVE",
"216 300 OFFCURVE",
"255 300 QCURVE",
"255 199 OFFCURVE",
"255 166 QCURVE",
"343 166 OFFCURVE",
"372 166 QCURVE",
"372 266 OFFCURVE",
"372 300 QCURVE",
"488 300 OFFCURVE",
"527 300 QCURVE",
"527 388 OFFCURVE",
"527 417 QCURVE",
"411 417 OFFCURVE",
"372 417 QCURVE",
"372 534 OFFCURVE",
"372 572 QCURVE",
"284 572 OFFCURVE",
"255 572 QCURVE",
"255 456 OFFCURVE",
"255 417 QCURVE",
"138 417 OFFCURVE",
"99 417 QCURVE",
"99 417 LINE"
);
},
{
closed = 1;
nodes = (
"99 29 OFFCURVE",
"99 0 QCURVE",
"420 0 OFFCURVE",
"527 0 QCURVE",
"527 88 OFFCURVE",
"527 117 QCURVE",
"206 117 OFFCURVE",
"99 117 QCURVE",
"99 117 LINE"
);
}
);
width = 627;
}
);
note = plusminus;
unicode = 00B1;
},
{
glyphname = twosuperior;
layers = (
{
layerId = "1B5A2E6A-EA81-427B-BCB4-5148866553EF";
paths = (
{
closed = 1;
nodes = (
"331 496 OFFCURVE",
"285 496 QCURVE",
"285 511 OFFCURVE",
"298 518 QCURVE SMOOTH",
"312 525 OFFCURVE",
"352 537 QCURVE SMOOTH",
"385 545 OFFCURVE",
"406 567 QCURVE SMOOTH",
"426 589 OFFCURVE",
"426 631 QCURVE SMOOTH",
"426 668 OFFCURVE",
"397 695 QCURVE SMOOTH",
"369 723 OFFCURVE",
"321 723 QCURVE SMOOTH",
"266 723 OFFCURVE",
"236 695 QCURVE SMOOTH",
"205 667 OFFCURVE",
"205 618 QCURVE SMOOTH",
"205 614 OFFCURVE",
"205 612 QCURVE",
"258 612 OFFCURVE",
"285 612 QCURVE",
"285 649 OFFCURVE",
"316 649 QCURVE SMOOTH",
"331 649 OFFCURVE",
"338 642 QCURVE SMOOTH",
"346 634 OFFCURVE",
"346 623 QCURVE SMOOTH",
"346 611 OFFCURVE",
"337 604 QCURVE SMOOTH",
"329 596 OFFCURVE",
"295 588 QCURVE SMOOTH",
"278 584 OFFCURVE",
"262 577 QCURVE SMOOTH",
"246 569 OFFCURVE",
"232 557 QCURVE SMOOTH",
"220 546 OFFCURVE",
"212 529 QCURVE SMOOTH",
"205 512 OFFCURVE",
"205 489 QCURVE SMOOTH",
"205 439 OFFCURVE",
"205 422 QCURVE",
"368 422 OFFCURVE",
"423 422 QCURVE",
"423 477 OFFCURVE",
"423 496 QCURVE",
"423 496 LINE"
);
}
);
width = 627;
}
);
note = twosuperior;
unicode = 00B2;
},
{
glyphname = threesuperior;
layers = (
{
layerId = "1B5A2E6A-EA81-427B-BCB4-5148866553EF";
paths = (
{
closed = 1;
nodes = (
"205 516 OFFCURVE",
"205 512 QCURVE SMOOTH",
"205 475 OFFCURVE",
"233 445 QCURVE SMOOTH",
"261 416 OFFCURVE",
"319 416 QCURVE SMOOTH",
"369 416 OFFCURVE",
"397 443 QCURVE SMOOTH",
"426 470 OFFCURVE",
"426 514 QCURVE SMOOTH",
"426 548 OFFCURVE",
"407 566 QCURVE SMOOTH",
"388 585 OFFCURVE",
"365 590 QCURVE",
"365 597 OFFCURVE",
"365 599 QCURVE",
"400 612 OFFCURVE",
"412 616 QCURVE",
"412 692 OFFCURVE",
"412 717 QCURVE",
"263 717 OFFCURVE",
"214 717 QCURVE",
"214 663 OFFCURVE",
"214 645 QCURVE",
"302 645 OFFCURVE",
"332 645 QCURVE",
"332 638 OFFCURVE",
"332 636 QCURVE",
"296 624 OFFCURVE",
"285 621 QCURVE",
"285 567 OFFCURVE",
"285 549 QCURVE",
"302 549 OFFCURVE",
"311 549 QCURVE SMOOTH",
"346 549 OFFCURVE",
"346 518 QCURVE SMOOTH",
"346 504 OFFCURVE",
"338 497 QCURVE SMOOTH",
"330 489 OFFCURVE",
"315 489 QCURVE SMOOTH",
"301 489 OFFCURVE",
"293 497 QCURVE SMOOTH",
"285 504 OFFCURVE",
"285 518 QCURVE SMOOTH",
"285 523 OFFCURVE",
"285 524 QCURVE",
"225 524 OFFCURVE",
"205 524 QCURVE",
"205 524 LINE"
);
}
);
width = 627;
}
);
note = threesuperior;
unicode = 00B3;
},
{
glyphname = acute;
layers = (
{
layerId = "1B5A2E6A-EA81-427B-BCB4-5148866553EF";
paths = (
{
closed = 1;
nodes = (
"233 618 OFFCURVE",
"220 584 QCURVE",
"298 584 OFFCURVE",
"325 584 QCURVE",
"389 688 OFFCURVE",
"411 723 QCURVE",
"308 723 OFFCURVE",
"273 723 QCURVE",
"273 723 LINE"
);
}
);
width = 627;
}
);
note = acute;
unicode = 00B4;
},
{
glyphname = mu;
layers = (
{
layerId = "1B5A2E6A-EA81-427B-BCB4-5148866553EF";
paths = (
{
closed = 1;
nodes = (
"421 8 OFFCURVE",
"421 0 QCURVE",
"518 0 OFFCURVE",
"550 0 QCURVE",
"550 381 OFFCURVE",
"550 508 QCURVE",
"453 508 OFFCURVE",
"421 508 QCURVE",
"421 319 OFFCURVE",
"421 225 QCURVE SMOOTH",
"421 200 OFFCURVE",
"416 178 QCURVE SMOOTH",
"411 156 OFFCURVE",
"397 138 QCURVE SMOOTH",
"385 122 OFFCURVE",
"365 112 QCURVE SMOOTH",
"344 102 OFFCURVE",
"313 102 QCURVE SMOOTH",
"283 102 OFFCURVE",
"262 112 QCURVE SMOOTH",
"242 122 OFFCURVE",
"228 138 QCURVE",
"216 156 OFFCURVE",
"211 178 QCURVE SMOOTH",
"206 200 OFFCURVE",
"206 225 QCURVE SMOOTH",
"206 437 OFFCURVE",
"206 508 QCURVE",
"109 508 OFFCURVE",
"77 508 QCURVE",
"77 -27 OFFCURVE",
"77 -205 QCURVE",
"174 -205 OFFCURVE",
"206 -205 QCURVE",
"206 -28 OFFCURVE",
"206 31 QCURVE",
"218 31 OFFCURVE",
"224 31 QCURVE",
"234 10 OFFCURVE",
"256 -2 QCURVE SMOOTH",
"278 -14 OFFCURVE",
"313 -14 QCURVE SMOOTH",
"349 -14 OFFCURVE",
"371 -2 QCURVE SMOOTH",
"392 10 OFFCURVE",
"402 31 QCURVE",
"416 31 OFFCURVE",
"421 31 QCURVE",
"421 31 LINE"
);
}
);
width = 627;
}
);
note = mu;
unicode = 00B5;
},
{
glyphname = paragraph;
layers = (
{
layerId = "1B5A2E6A-EA81-427B-BCB4-5148866553EF";
paths = (
{
closed = 1;
nodes = (
"267 276 OFFCURVE",
"267 223 QCURVE",
"350 223 OFFCURVE",
"378 223 QCURVE",
"378 526 OFFCURVE",
"378 627 QCURVE",
"401 627 OFFCURVE",
"409 627 QCURVE",
"409 324 OFFCURVE",
"409 223 QCURVE",
"492 223 OFFCURVE",
"519 223 QCURVE",
"519 604 OFFCURVE",
"519 731 QCURVE",
"343 731 OFFCURVE",
"255 731 QCURVE SMOOTH",
"224 731 OFFCURVE",
"197 719 QCURVE SMOOTH",
"170 708 OFFCURVE",
"150 687 QCURVE SMOOTH",
"130 668 OFFCURVE",
"119 641 QCURVE SMOOTH",
"108 613 OFFCURVE",
"108 583 QCURVE SMOOTH",
"108 552 OFFCURVE",
"119 525 QCURVE SMOOTH",
"130 498 OFFCURVE",
"150 477 QCURVE SMOOTH",
"170 458 OFFCURVE",
"197 446 QCURVE SMOOTH",
"224 434 OFFCURVE",
"255 434 QCURVE SMOOTH",
"264 434 OFFCURVE",
"267 434 QCURVE",
"267 434 LINE"
);
},
{
closed = 1;
nodes = (
"259 539 OFFCURVE",
"255 539 QCURVE SMOOTH",
"238 539 OFFCURVE",
"225 549 QCURVE SMOOTH",
"212 560 OFFCURVE",
"212 583 QCURVE SMOOTH",
"212 605 OFFCURVE",
"225 616 QCURVE SMOOTH",
"238 627 OFFCURVE",
"255 627 QCURVE SMOOTH",
"264 627 OFFCURVE",
"267 627 QCURVE",
"267 561 OFFCURVE",
"267 539 QCURVE",
"267 539 LINE"
);
}
);
width = 627;
}
);
note = paragraph;
unicode = 00B6;
},
{
glyphname = periodcentered;
layers = (
{
layerId = "1B5A2E6A-EA81-427B-BCB4-5148866553EF";
paths = (
{
closed = 1;
nodes = (
"411 379 OFFCURVE",
"403 397 QCURVE SMOOTH",
"395 415 OFFCURVE",
"382 427 QCURVE SMOOTH",
"369 440 OFFCURVE",
"351 448 QCURVE SMOOTH",
"333 456 OFFCURVE",
"313 456 QCURVE SMOOTH",
"293 456 OFFCURVE",
"275 448 QCURVE SMOOTH",
"258 440 OFFCURVE",
"245 427 QCURVE SMOOTH",
"231 415 OFFCURVE",
"224 397 QCURVE SMOOTH",
"216 379 OFFCURVE",
"216 358 QCURVE SMOOTH",
"216 338 OFFCURVE",
"224 320 QCURVE SMOOTH",
"231 302 OFFCURVE",
"245 289 QCURVE SMOOTH",
"258 276 OFFCURVE",
"275 269 QCURVE SMOOTH",
"293 261 OFFCURVE",
"313 261 QCURVE SMOOTH",
"333 261 OFFCURVE",
"351 269 QCURVE SMOOTH",
"369 276 OFFCURVE",
"382 289 QCURVE SMOOTH",
"395 302 OFFCURVE",
"403 320 QCURVE SMOOTH",
"411 338 OFFCURVE",
"411 358 QCURVE",
"411 358 LINE"
);
}
);
width = 627;
}
);
note = periodcentered;
unicode = 00B7;
},
{
glyphname = cedilla;
layers = (
{
layerId = "1B5A2E6A-EA81-427B-BCB4-5148866553EF";
paths = (
{
closed = 1;
nodes = (
"253 0 OFFCURVE",
"236 0 QCURVE",
"220 -71 OFFCURVE",
"215 -94 QCURVE",
"215 -103 OFFCURVE",
"215 -106 QCURVE",
"281 -106 OFFCURVE",
"314 -106 QCURVE",
"317 -92 OFFCURVE",
"335 -92 QCURVE SMOOTH",
"345 -92 OFFCURVE",
"350 -99 QCURVE SMOOTH",
"355 -105 OFFCURVE",
"355 -115 QCURVE SMOOTH",
"355 -127 OFFCURVE",
"346 -134 QCURVE SMOOTH",
"336 -141 OFFCURVE",
"321 -141 QCURVE SMOOTH",
"293 -141 OFFCURVE",
"269 -127 QCURVE",
"252 -173 OFFCURVE",
"243 -197 QCURVE",
"260 -206 OFFCURVE",
"280 -211 QCURVE SMOOTH",
"299 -217 OFFCURVE",
"329 -217 QCURVE SMOOTH",
"377 -217 OFFCURVE",
"409 -190 QCURVE SMOOTH",
"441 -163 OFFCURVE",
"441 -115 QCURVE SMOOTH",
"441 -78 OFFCURVE",
"420 -51 QCURVE SMOOTH",
"399 -25 OFFCURVE",
"356 -25 QCURVE SMOOTH",
"337 -25 OFFCURVE",
"326 -31 QCURVE SMOOTH",
"314 -38 OFFCURVE",
"309 -47 QCURVE",
"300 -47 OFFCURVE",
"297 -47 QCURVE",
"305 -12 OFFCURVE",
"307 0 QCURVE",
"307 0 LINE"
);
}
);
width = 627;
}
);
note = cedilla;
unicode = 00B8;
},
{
glyphname = onesuperior;
layers = (
{
layerId = "1B5A2E6A-EA81-427B-BCB4-5148866553EF";
paths = (
{
closed = 1;
nodes = (
"229 496 OFFCURVE",
"209 496 QCURVE",
"209 440 OFFCURVE",
"209 422 QCURVE",
"384 422 OFFCURVE",
"442 422 QCURVE",
"442 477 OFFCURVE",
"442 496 QCURVE",
"387 496 OFFCURVE",
"369 496 QCURVE",
"369 662 OFFCURVE",
"369 717 QCURVE",
"300 717 OFFCURVE",
"276 717 QCURVE",
"221 675 OFFCURVE",
"203 662 QCURVE",
"203 592 OFFCURVE",
"203 569 QCURVE",
"207 569 OFFCURVE",
"209 569 QCURVE",
"264 615 OFFCURVE",
"283 631 QCURVE",
"287 631 OFFCURVE",
"289 631 QCURVE",
"289 529 OFFCURVE",
"289 496 QCURVE",
"289 496 LINE"
);
}
);
width = 627;
}
);
note = onesuperior;
unicode = 00B9;
},
{
glyphname = ordmasculine;
layers = (
{
layerId = "1B5A2E6A-EA81-427B-BCB4-5148866553EF";
paths = (
{
closed = 1;
nodes = (
"161 531 OFFCURVE",
"173 503 QCURVE SMOOTH",
"185 474 OFFCURVE",
"206 455 QCURVE SMOOTH",
"227 435 OFFCURVE",
"255 425 QCURVE SMOOTH",
"283 416 OFFCURVE",
"313 416 QCURVE SMOOTH",
"344 416 OFFCURVE",
"372 425 QCURVE SMOOTH",
"399 435 OFFCURVE",
"420 455 QCURVE SMOOTH",
"441 474 OFFCURVE",
"454 503 QCURVE SMOOTH",
"466 531 OFFCURVE",
"466 569 QCURVE SMOOTH",
"466 607 OFFCURVE",
"454 636 QCURVE SMOOTH",
"441 665 OFFCURVE",
"420 684 QCURVE SMOOTH",
"399 703 OFFCURVE",
"372 713 QCURVE SMOOTH",
"344 723 OFFCURVE",
"313 723 QCURVE SMOOTH",
"283 723 OFFCURVE",
"255 713 QCURVE SMOOTH",
"227 703 OFFCURVE",
"206 684 QCURVE SMOOTH",
"185 665 OFFCURVE",
"173 636 QCURVE SMOOTH",
"161 607 OFFCURVE",
"161 569 QCURVE",
"161 569 LINE"
);
},
{
closed = 1;
nodes = (
"282 496 OFFCURVE",
"264 516 QCURVE SMOOTH",
"247 536 OFFCURVE",
"247 569 QCURVE SMOOTH",
"247 603 OFFCURVE",
"264 623 QCURVE SMOOTH",
"282 643 OFFCURVE",
"313 643 QCURVE SMOOTH",
"345 643 OFFCURVE",
"362 623 QCURVE SMOOTH",
"380 603 OFFCURVE",
"380 569 QCURVE SMOOTH",
"380 536 OFFCURVE",
"362 516 QCURVE SMOOTH",
"345 496 OFFCURVE",
"313 496 QCURVE",
"313 496 LINE"
);
}
);
width = 627;
}
);
note = ordmasculine;
unicode = 00BA;
},
{
glyphname = guillemotright;
layers = (
{
layerId = "1B5A2E6A-EA81-427B-BCB4-5148866553EF";
paths = (
{
closed = 1;
nodes = (
"49 0 OFFCURVE",
"50 0 QCURVE",
"239 117 OFFCURVE",
"302 156 QCURVE",
"302 303 OFFCURVE",
"302 352 QCURVE",
"113 469 OFFCURVE",
"50 508 QCURVE",
"46 508 OFFCURVE",
"44 508 QCURVE",
"44 399 OFFCURVE",
"44 362 QCURVE",
"178 288 OFFCURVE",
"222 263 QCURVE",
"222 249 OFFCURVE",
"222 245 QCURVE",
"89 170 OFFCURVE",
"44 145 QCURVE",
"44 36 OFFCURVE",
"44 0 QCURVE",
"44 0 LINE"
);
},
{
closed = 1;
nodes = (
"330 0 OFFCURVE",
"332 0 QCURVE",
"521 117 OFFCURVE",
"584 156 QCURVE",
"584 303 OFFCURVE",
"584 352 QCURVE",
"395 469 OFFCURVE",
"332 508 QCURVE",
"327 508 OFFCURVE",
"326 508 QCURVE",
"326 399 OFFCURVE",
"326 362 QCURVE",
"459 288 OFFCURVE",
"504 263 QCURVE",
"504 249 OFFCURVE",
"504 245 QCURVE",
"370 170 OFFCURVE",
"326 145 QCURVE",
"326 36 OFFCURVE",
"326 0 QCURVE",
"326 0 LINE"
);
}
);
width = 627;
}
);
note = guillemotright;
unicode = 00BB;
},
{
glyphname = onequarter;
layers = (
{
layerId = "1B5A2E6A-EA81-427B-BCB4-5148866553EF";
paths = (
{
closed = 1;
nodes = (
"182 336 OFFCURVE",
"61 274 QCURVE",
"93 215 OFFCURVE",
"103 195 QCURVE",
"466 380 OFFCURVE",
"587 442 QCURVE",
"555 502 OFFCURVE",
"545 522 QCURVE",
"545 522 LINE"
);
},
{
closed = 1;
nodes = (
"80 496 OFFCURVE",
"60 496 QCURVE",
"60 440 OFFCURVE",
"60 422 QCURVE",
"236 422 OFFCURVE",
"294 422 QCURVE",
"294 477 OFFCURVE",
"294 496 QCURVE",
"239 496 OFFCURVE",
"220 496 QCURVE",
"220 662 OFFCURVE",
"220 717 QCURVE",
"151 717 OFFCURVE",
"128 717 QCURVE",
"73 675 OFFCURVE",
"54 662 QCURVE",
"54 592 OFFCURVE",
"54 569 QCURVE",
"59 569 OFFCURVE",
"60 569 QCURVE",
"116 615 OFFCURVE",
"134 631 QCURVE",
"139 631 OFFCURVE",
"140 631 QCURVE",
"140 529 OFFCURVE",
"140 496 QCURVE",
"140 496 LINE"
);
},
{
closed = 1;
nodes = (
"361 186 OFFCURVE",
"343 150 QCURVE",
"343 75 OFFCURVE",
"343 50 QCURVE",
"443 50 OFFCURVE",
"476 50 QCURVE",
"476 13 OFFCURVE",
"476 1 QCURVE",
"536 1 OFFCURVE",
"556 1 QCURVE",
"556 38 OFFCURVE",
"556 50 QCURVE",
"588 50 OFFCURVE",
"599 50 QCURVE",
"599 104 OFFCURVE",
"599 122 QCURVE",
"567 122 OFFCURVE",
"556 122 QCURVE",
"556 252 OFFCURVE",
"556 296 QCURVE",
"450 296 OFFCURVE",
"415 296 QCURVE",
"415 296 LINE"
);
},
{
closed = 1;
nodes = (
"454 215 OFFCURVE",
"467 243 QCURVE",
"474 243 OFFCURVE",
"476 243 QCURVE",
"476 152 OFFCURVE",
"476 122 QCURVE",
"430 122 OFFCURVE",
"415 122 QCURVE",
"415 129 OFFCURVE",
"415 131 QCURVE",
"415 131 LINE"
);
}
);
width = 627;
}
);
note = onequarter;
unicode = 00BC;
},
{
glyphname = onehalf;
layers = (
{
layerId = "1B5A2E6A-EA81-427B-BCB4-5148866553EF";
paths = (
{
closed = 1;
nodes = (
"78 496 OFFCURVE",
"58 496 QCURVE",
"58 440 OFFCURVE",
"58 422 QCURVE",
"233 422 OFFCURVE",
"292 422 QCURVE",
"292 477 OFFCURVE",
"292 496 QCURVE",
"237 496 OFFCURVE",
"218 496 QCURVE",
"218 662 OFFCURVE",
"218 717 QCURVE",
"149 717 OFFCURVE",
"126 717 QCURVE",
"71 675 OFFCURVE",
"52 662 QCURVE",
"52 592 OFFCURVE",
"52 569 QCURVE",
"57 569 OFFCURVE",
"58 569 QCURVE",
"114 615 OFFCURVE",
"132 631 QCURVE",
"137 631 OFFCURVE",
"138 631 QCURVE",
"138 529 OFFCURVE",
"138 496 QCURVE",
"138 496 LINE"
);
},
{
closed = 1;
nodes = (
"489 75 OFFCURVE",
"443 75 QCURVE",
"443 90 OFFCURVE",
"457 97 QCURVE SMOOTH",
"471 104 OFFCURVE",
"511 116 QCURVE SMOOTH",
"544 124 OFFCURVE",
"564 146 QCURVE SMOOTH",
"585 168 OFFCURVE",
"585 210 QCURVE SMOOTH",
"585 247 OFFCURVE",
"556 274 QCURVE SMOOTH",
"527 302 OFFCURVE",
"479 302 QCURVE SMOOTH",
"425 302 OFFCURVE",
"394 274 QCURVE SMOOTH",
"364 246 OFFCURVE",
"364 198 QCURVE SMOOTH",
"364 193 OFFCURVE",
"364 191 QCURVE",
"417 191 OFFCURVE",
"443 191 QCURVE",
"443 228 OFFCURVE",
"475 228 QCURVE SMOOTH",
"489 228 OFFCURVE",
"497 221 QCURVE SMOOTH",
"505 213 OFFCURVE",
"505 202 QCURVE SMOOTH",
"505 190 OFFCURVE",
"496 183 QCURVE SMOOTH",
"487 175 OFFCURVE",
"454 167 QCURVE SMOOTH",
"436 163 OFFCURVE",
"420 156 QCURVE SMOOTH",
"404 148 OFFCURVE",
"391 136 QCURVE SMOOTH",
"379 125 OFFCURVE",
"371 108 QCURVE SMOOTH",
"364 91 OFFCURVE",
"364 69 QCURVE SMOOTH",
"364 18 OFFCURVE",
"364 1 QCURVE",
"527 1 OFFCURVE",
"582 1 QCURVE",
"582 56 OFFCURVE",
"582 75 QCURVE",
"582 75 LINE"
);
},
{
closed = 1;
nodes = (
"180 336 OFFCURVE",
"59 274 QCURVE",
"91 215 OFFCURVE",
"101 195 QCURVE",
"464 380 OFFCURVE",
"585 442 QCURVE",
"553 502 OFFCURVE",
"543 522 QCURVE",
"543 522 LINE"
);
}
);
width = 627;
}
);
note = onehalf;
unicode = 00BD;
},
{
glyphname = threequarters;
layers = (
{
layerId = "1B5A2E6A-EA81-427B-BCB4-5148866553EF";
paths = (
{
closed = 1;
nodes = (
"175 336 OFFCURVE",
"54 274 QCURVE",
"86 215 OFFCURVE",
"96 195 QCURVE",
"459 380 OFFCURVE",
"580 442 QCURVE",
"548 502 OFFCURVE",
"538 522 QCURVE",
"538 522 LINE"
);
},
{
closed = 1;
nodes = (
"48 516 OFFCURVE",
"48 512 QCURVE SMOOTH",
"48 475 OFFCURVE",
"76 445 QCURVE SMOOTH",
"104 416 OFFCURVE",
"163 416 QCURVE SMOOTH",
"212 416 OFFCURVE",
"241 443 QCURVE SMOOTH",
"269 470 OFFCURVE",
"269 514 QCURVE SMOOTH",
"269 548 OFFCURVE",
"250 566 QCURVE SMOOTH",
"231 585 OFFCURVE",
"208 590 QCURVE",
"208 597 OFFCURVE",
"208 599 QCURVE",
"243 612 OFFCURVE",
"255 616 QCURVE",
"255 692 OFFCURVE",
"255 717 QCURVE",
"107 717 OFFCURVE",
"57 717 QCURVE",
"57 663 OFFCURVE",
"57 645 QCURVE",
"146 645 OFFCURVE",
"175 645 QCURVE",
"175 638 OFFCURVE",
"175 636 QCURVE",
"140 624 OFFCURVE",
"128 621 QCURVE",
"128 567 OFFCURVE",
"128 549 QCURVE",
"146 549 OFFCURVE",
"155 549 QCURVE SMOOTH",
"189 549 OFFCURVE",
"189 518 QCURVE SMOOTH",
"189 504 OFFCURVE",
"181 497 QCURVE SMOOTH",
"173 489 OFFCURVE",
"159 489 QCURVE SMOOTH",
"144 489 OFFCURVE",
"136 497 QCURVE SMOOTH",
"128 504 OFFCURVE",
"128 518 QCURVE SMOOTH",
"128 523 OFFCURVE",
"128 524 QCURVE",
"68 524 OFFCURVE",
"48 524 QCURVE",
"48 524 LINE"
);
},
{
closed = 1;
nodes = (
"354 186 OFFCURVE",
"336 150 QCURVE",
"336 75 OFFCURVE",
"336 50 QCURVE",
"436 50 OFFCURVE",
"469 50 QCURVE",
"469 13 OFFCURVE",
"469 1 QCURVE",
"529 1 OFFCURVE",
"549 1 QCURVE",
"549 38 OFFCURVE",
"549 50 QCURVE",
"581 50 OFFCURVE",
"592 50 QCURVE",
"592 104 OFFCURVE",
"592 122 QCURVE",
"560 122 OFFCURVE",
"549 122 QCURVE",
"549 252 OFFCURVE",
"549 296 QCURVE",
"443 296 OFFCURVE",
"408 296 QCURVE",
"408 296 LINE"
);
},
{
closed = 1;
nodes = (
"447 215 OFFCURVE",
"460 243 QCURVE",
"467 243 OFFCURVE",
"469 243 QCURVE",
"469 152 OFFCURVE",
"469 122 QCURVE",
"423 122 OFFCURVE",
"408 122 QCURVE",
"408 129 OFFCURVE",
"408 131 QCURVE",
"408 131 LINE"
);
}
);
width = 627;
}
);
note = threequarters;
unicode = 00BE;
},
{
glyphname = questiondown;
layers = (
{
layerId = "1B5A2E6A-EA81-427B-BCB4-5148866553EF";
paths = (
{
closed = 1;
nodes = (
"307 113 OFFCURVE",
"313 113 QCURVE SMOOTH",
"353 113 OFFCURVE",
"380 140 QCURVE SMOOTH",
"408 167 OFFCURVE",
"408 207 QCURVE SMOOTH",
"408 273 OFFCURVE",
"408 295 QCURVE",
"311 295 OFFCURVE",
"279 295 QCURVE",
"279 272 OFFCURVE",
"279 261 QCURVE SMOOTH",
"279 247 OFFCURVE",
"271 239 QCURVE SMOOTH",
"264 230 OFFCURVE",
"250 230 QCURVE SMOOTH",
"207 230 OFFCURVE",
"172 213 QCURVE SMOOTH",
"137 196 OFFCURVE",
"114 167 QCURVE SMOOTH",
"90 138 OFFCURVE",
"77 100 QCURVE SMOOTH",
"65 62 OFFCURVE",
"65 20 QCURVE SMOOTH",
"65 16 OFFCURVE",
"65 14 QCURVE SMOOTH",
"65 -35 OFFCURVE",
"82 -77 QCURVE SMOOTH",
"99 -120 OFFCURVE",
"131 -152 QCURVE SMOOTH",
"164 -183 OFFCURVE",
"209 -201 QCURVE SMOOTH",
"254 -219 OFFCURVE",
"308 -219 QCURVE SMOOTH",
"369 -219 OFFCURVE",
"416 -199 QCURVE SMOOTH",
"464 -179 OFFCURVE",
"496 -146 QCURVE SMOOTH",
"528 -114 OFFCURVE",
"545 -71 QCURVE SMOOTH",
"562 -28 OFFCURVE",
"562 18 QCURVE SMOOTH",
"562 60 OFFCURVE",
"562 74 QCURVE",
"461 74 OFFCURVE",
"427 74 QCURVE",
"427 45 OFFCURVE",
"427 31 QCURVE SMOOTH",
"427 7 OFFCURVE",
"419 -15 QCURVE SMOOTH",
"412 -37 OFFCURVE",
"396 -53 QCURVE SMOOTH",
"381 -71 OFFCURVE",
"359 -80 QCURVE SMOOTH",
"338 -90 OFFCURVE",
"310 -90 QCURVE SMOOTH",
"259 -90 OFFCURVE",
"229 -60 QCURVE SMOOTH",
"200 -31 OFFCURVE",
"200 12 QCURVE SMOOTH",
"200 57 OFFCURVE",
"225 85 QCURVE SMOOTH",
"250 113 OFFCURVE",
"294 113 QCURVE",
"294 113 LINE"
);
},
{
closed = 1;
nodes = (
"245 409 OFFCURVE",
"252 391 QCURVE SMOOTH",
"260 373 OFFCURVE",
"273 359 QCURVE SMOOTH",
"287 347 OFFCURVE",
"305 339 QCURVE SMOOTH",
"323 332 OFFCURVE",
"342 332 QCURVE SMOOTH",
"362 332 OFFCURVE",
"380 339 QCURVE SMOOTH",
"397 347 OFFCURVE",
"411 359 QCURVE SMOOTH",
"424 373 OFFCURVE",
"432 391 QCURVE SMOOTH",
"439 409 OFFCURVE",
"439 429 QCURVE SMOOTH",
"439 450 OFFCURVE",
"432 467 QCURVE SMOOTH",
"424 485 OFFCURVE",
"411 498 QCURVE SMOOTH",
"397 511 OFFCURVE",
"380 519 QCURVE SMOOTH",
"362 526 OFFCURVE",
"342 526 QCURVE SMOOTH",
"323 526 OFFCURVE",
"305 519 QCURVE SMOOTH",
"287 511 OFFCURVE",
"273 498 QCURVE SMOOTH",
"260 485 OFFCURVE",
"252 467 QCURVE SMOOTH",
"245 450 OFFCURVE",
"245 429 QCURVE",
"245 429 LINE"
);
}
);
width = 627;
}
);
note = questiondown;
unicode = 00BF;
},
{
glyphname = Agrave;
layers = (
{
layerId = "1B5A2E6A-EA81-427B-BCB4-5148866553EF";
paths = (
{
closed = 1;
nodes = (
"461 38 OFFCURVE",
"470 0 QCURVE",
"576 0 OFFCURVE",
"611 0 QCURVE",
"483 538 OFFCURVE",
"440 717 QCURVE",
"250 717 OFFCURVE",
"186 717 QCURVE",
"58 179 OFFCURVE",
"15 0 QCURVE",
"121 0 OFFCURVE",
"157 0 QCURVE",
"183 115 OFFCURVE",
"191 154 QCURVE",
"374 154 OFFCURVE",
"435 154 QCURVE",
"435 154 LINE"
);
},
{
closed = 1;
nodes = (
"283 558 OFFCURVE",
"304 649 QCURVE",
"318 649 OFFCURVE",
"323 649 QCURVE",
"385 374 OFFCURVE",
"406 283 QCURVE",
"266 283 OFFCURVE",
"220 283 QCURVE",
"220 283 LINE"
);
},
{
closed = 1;
nodes = (
"327 897 OFFCURVE",
"313 932 QCURVE",
"210 932 OFFCURVE",
"176 932 QCURVE",
"241 827 OFFCURVE",
"262 793 QCURVE",
"340 793 OFFCURVE",
"367 793 QCURVE",
"367 793 LINE"
);
}
);
width = 627;
}
);
note = Agrave;
unicode = 00C0;
},
{
glyphname = Aacute;
layers = (
{
layerId = "1B5A2E6A-EA81-427B-BCB4-5148866553EF";
paths = (
{
closed = 1;
nodes = (
"461 38 OFFCURVE",
"470 0 QCURVE",
"576 0 OFFCURVE",
"611 0 QCURVE",
"483 538 OFFCURVE",
"440 717 QCURVE",
"250 717 OFFCURVE",
"186 717 QCURVE",
"58 179 OFFCURVE",
"15 0 QCURVE",
"121 0 OFFCURVE",
"157 0 QCURVE",
"183 115 OFFCURVE",
"191 154 QCURVE",
"374 154 OFFCURVE",
"435 154 QCURVE",
"435 154 LINE"
);
},
{
closed = 1;
nodes = (
"283 558 OFFCURVE",
"304 649 QCURVE",
"318 649 OFFCURVE",
"323 649 QCURVE",
"385 374 OFFCURVE",
"406 283 QCURVE",
"266 283 OFFCURVE",
"220 283 QCURVE",
"220 283 LINE"
);
},
{
closed = 1;
nodes = (
"274 827 OFFCURVE",
"261 793 QCURVE",
"339 793 OFFCURVE",
"366 793 QCURVE",
"430 897 OFFCURVE",
"452 932 QCURVE",
"349 932 OFFCURVE",
"314 932 QCURVE",
"314 932 LINE"
);
}
);
width = 627;
}
);
note = Aacute;
unicode = 00C1;
},
{
glyphname = Acircumflex;
layers = (
{
layerId = "1B5A2E6A-EA81-427B-BCB4-5148866553EF";
paths = (
{
closed = 1;
nodes = (
"461 38 OFFCURVE",
"470 0 QCURVE",
"576 0 OFFCURVE",
"611 0 QCURVE",
"483 538 OFFCURVE",
"440 717 QCURVE",
"250 717 OFFCURVE",
"186 717 QCURVE",
"58 179 OFFCURVE",
"15 0 QCURVE",
"121 0 OFFCURVE",
"157 0 QCURVE",
"183 115 OFFCURVE",
"191 154 QCURVE",
"374 154 OFFCURVE",
"435 154 QCURVE",
"435 154 LINE"
);
},
{
closed = 1;
nodes = (
"283 558 OFFCURVE",
"304 649 QCURVE",
"318 649 OFFCURVE",
"323 649 QCURVE",
"385 374 OFFCURVE",
"406 283 QCURVE",
"266 283 OFFCURVE",
"220 283 QCURVE",
"220 283 LINE"
);
},
{
closed = 1;
nodes = (
"456 793 OFFCURVE",
"487 793 QCURVE",
"423 897 OFFCURVE",
"401 932 QCURVE",
"269 932 OFFCURVE",
"225 932 QCURVE",
"161 827 OFFCURVE",
"139 793 QCURVE",
"232 793 OFFCURVE",
"263 793 QCURVE",
"296 860 OFFCURVE",
"307 883 QCURVE",
"316 883 OFFCURVE",
"319 883 QCURVE",
"353 815 OFFCURVE",
"364 793 QCURVE",
"364 793 LINE"
);
}
);
width = 627;
}
);
note = Acircumflex;
unicode = 00C2;
},
{
glyphname = Atilde;
layers = (
{
layerId = "1B5A2E6A-EA81-427B-BCB4-5148866553EF";
paths = (
{
closed = 1;
nodes = (
"461 38 OFFCURVE",
"470 0 QCURVE",
"576 0 OFFCURVE",
"611 0 QCURVE",
"483 538 OFFCURVE",
"440 717 QCURVE",
"250 717 OFFCURVE",
"186 717 QCURVE",
"58 179 OFFCURVE",
"15 0 QCURVE",
"121 0 OFFCURVE",
"157 0 QCURVE",
"183 115 OFFCURVE",
"191 154 QCURVE",
"374 154 OFFCURVE",
"435 154 QCURVE",
"435 154 LINE"
);
},
{
closed = 1;
nodes = (
"283 558 OFFCURVE",
"304 649 QCURVE",
"318 649 OFFCURVE",
"323 649 QCURVE",
"385 374 OFFCURVE",
"406 283 QCURVE",
"266 283 OFFCURVE",
"220 283 QCURVE",
"220 283 LINE"
);
},
{
closed = 1;
nodes = (
"312 935 OFFCURVE",
"293 944 QCURVE SMOOTH",
"274 953 OFFCURVE",
"254 953 QCURVE SMOOTH",
"228 953 OFFCURVE",
"207 943 QCURVE SMOOTH",
"185 933 OFFCURVE",
"166 908 QCURVE SMOOTH",
"123 853 OFFCURVE",
"109 835 QCURVE",
"168 788 OFFCURVE",
"187 772 QCURVE",
"208 798 OFFCURVE",
"218 811 QCURVE SMOOTH",
"226 822 OFFCURVE",
"235 829 QCURVE SMOOTH",
"244 836 OFFCURVE",
"258 836 QCURVE SMOOTH",
"272 836 OFFCURVE",
"281 828 QCURVE SMOOTH",
"289 820 OFFCURVE",
"297 811 QCURVE SMOOTH",
"314 791 OFFCURVE",
"333 781 QCURVE SMOOTH",
"352 772 OFFCURVE",
"373 772 QCURVE SMOOTH",
"399 772 OFFCURVE",
"421 783 QCURVE SMOOTH",
"442 794 OFFCURVE",
"461 817 QCURVE SMOOTH",
"504 872 OFFCURVE",
"518 891 QCURVE",
"459 938 OFFCURVE",
"439 953 QCURVE",
"419 927 OFFCURVE",
"409 914 QCURVE SMOOTH",
"400 903 OFFCURVE",
"392 897 QCURVE SMOOTH",
"383 890 OFFCURVE",
"369 890 QCURVE SMOOTH",
"354 890 OFFCURVE",
"346 898 QCURVE SMOOTH",
"338 905 OFFCURVE",
"330 914 QCURVE",
"330 914 LINE"
);
}
);
width = 627;
}
);
note = Atilde;
unicode = 00C3;
},
{
glyphname = Adieresis;
layers = (
{
layerId = "1B5A2E6A-EA81-427B-BCB4-5148866553EF";
paths = (
{
closed = 1;
nodes = (
"461 38 OFFCURVE",
"470 0 QCURVE",
"576 0 OFFCURVE",
"611 0 QCURVE",
"483 538 OFFCURVE",
"440 717 QCURVE",
"250 717 OFFCURVE",
"186 717 QCURVE",
"58 179 OFFCURVE",
"15 0 QCURVE",
"121 0 OFFCURVE",
"157 0 QCURVE",
"183 115 OFFCURVE",
"191 154 QCURVE",
"374 154 OFFCURVE",
"435 154 QCURVE",
"435 154 LINE"
);
},
{
closed = 1;
nodes = (
"283 558 OFFCURVE",
"304 649 QCURVE",
"318 649 OFFCURVE",
"323 649 QCURVE",
"385 374 OFFCURVE",
"406 283 QCURVE",
"266 283 OFFCURVE",
"220 283 QCURVE",
"220 283 LINE"
);
},
{
closed = 1;
nodes = (
"289 884 OFFCURVE",
"281 902 QCURVE SMOOTH",
"273 920 OFFCURVE",
"260 932 QCURVE SMOOTH",
"247 945 OFFCURVE",
"229 953 QCURVE SMOOTH",
"211 961 OFFCURVE",
"191 961 QCURVE SMOOTH",
"171 961 OFFCURVE",
"154 953 QCURVE SMOOTH",
"136 945 OFFCURVE",
"123 932 QCURVE SMOOTH",
"110 920 OFFCURVE",
"102 902 QCURVE SMOOTH",
"94 884 OFFCURVE",
"94 863 QCURVE SMOOTH",
"94 843 OFFCURVE",
"102 825 QCURVE SMOOTH",
"110 807 OFFCURVE",
"123 794 QCURVE SMOOTH",
"136 781 OFFCURVE",
"154 774 QCURVE SMOOTH",
"171 766 OFFCURVE",
"191 766 QCURVE SMOOTH",
"211 766 OFFCURVE",
"229 774 QCURVE SMOOTH",
"247 781 OFFCURVE",
"260 794 QCURVE SMOOTH",
"273 807 OFFCURVE",
"281 825 QCURVE SMOOTH",
"289 843 OFFCURVE",
"289 863 QCURVE",
"289 863 LINE"
);
},
{
closed = 1;
nodes = (
"532 884 OFFCURVE",
"525 902 QCURVE SMOOTH",
"517 920 OFFCURVE",
"504 932 QCURVE SMOOTH",
"490 945 OFFCURVE",
"473 953 QCURVE SMOOTH",
"455 961 OFFCURVE",
"435 961 QCURVE SMOOTH",
"415 961 OFFCURVE",
"397 953 QCURVE SMOOTH",
"380 945 OFFCURVE",
"367 932 QCURVE SMOOTH",
"353 920 OFFCURVE",
"346 902 QCURVE SMOOTH",
"338 884 OFFCURVE",
"338 863 QCURVE SMOOTH",
"338 843 OFFCURVE",
"346 825 QCURVE SMOOTH",
"353 807 OFFCURVE",
"367 794 QCURVE SMOOTH",
"380 781 OFFCURVE",
"397 774 QCURVE SMOOTH",
"415 766 OFFCURVE",
"435 766 QCURVE SMOOTH",
"455 766 OFFCURVE",
"473 774 QCURVE SMOOTH",
"490 781 OFFCURVE",
"504 794 QCURVE SMOOTH",
"517 807 OFFCURVE",
"525 825 QCURVE SMOOTH",
"532 843 OFFCURVE",
"532 863 QCURVE",
"532 863 LINE"
);
}
);
width = 627;
}
);
note = Adieresis;
unicode = 00C4;
},
{
glyphname = Aring;
layers = (
{
layerId = "1B5A2E6A-EA81-427B-BCB4-5148866553EF";
paths = (
{
closed = 1;
nodes = (
"461 38 OFFCURVE",
"470 0 QCURVE",
"576 0 OFFCURVE",
"611 0 QCURVE",
"483 538 OFFCURVE",
"440 717 QCURVE",
"250 717 OFFCURVE",
"186 717 QCURVE",
"58 179 OFFCURVE",
"15 0 QCURVE",
"121 0 OFFCURVE",
"157 0 QCURVE",
"183 115 OFFCURVE",
"191 154 QCURVE",
"374 154 OFFCURVE",
"435 154 QCURVE",
"435 154 LINE"
);
},
{
closed = 1;
nodes = (
"283 558 OFFCURVE",
"304 649 QCURVE",
"318 649 OFFCURVE",
"323 649 QCURVE",
"385 374 OFFCURVE",
"406 283 QCURVE",
"266 283 OFFCURVE",
"220 283 QCURVE",
"220 283 LINE"
);
},
{
closed = 1;
nodes = (
"203 873 OFFCURVE",
"211 854 QCURVE SMOOTH",
"220 834 OFFCURVE",
"234 818 QCURVE",
"250 804 OFFCURVE",
"270 795 QCURVE SMOOTH",
"290 786 OFFCURVE",
"313 786 QCURVE SMOOTH",
"336 786 OFFCURVE",
"356 795 QCURVE SMOOTH",
"377 804 OFFCURVE",
"391 818 QCURVE SMOOTH",
"407 834 OFFCURVE",
"415 854 QCURVE SMOOTH",
"424 873 OFFCURVE",
"424 897 QCURVE SMOOTH",
"424 920 OFFCURVE",
"415 940 QCURVE SMOOTH",
"407 961 OFFCURVE",
"391 975 QCURVE SMOOTH",
"377 990 OFFCURVE",
"356 999 QCURVE SMOOTH",
"336 1008 OFFCURVE",
"313 1008 QCURVE SMOOTH",
"290 1008 OFFCURVE",
"270 999 QCURVE SMOOTH",
"250 990 OFFCURVE",
"234 975 QCURVE SMOOTH",
"220 961 OFFCURVE",
"211 940 QCURVE SMOOTH",
"203 920 OFFCURVE",
"203 897 QCURVE",
"203 897 LINE"
);
},
{
closed = 1;
nodes = (
"283 910 OFFCURVE",
"291 919 QCURVE SMOOTH",
"300 928 OFFCURVE",
"313 928 QCURVE SMOOTH",
"327 928 OFFCURVE",
"335 919 QCURVE SMOOTH",
"344 910 OFFCURVE",
"344 897 QCURVE SMOOTH",
"344 884 OFFCURVE",
"335 875 QCURVE SMOOTH",
"327 866 OFFCURVE",
"313 866 QCURVE SMOOTH",
"300 866 OFFCURVE",
"291 875 QCURVE SMOOTH",
"283 884 OFFCURVE",
"283 897 QCURVE",
"283 897 LINE"
);
}
);
width = 627;
}
);
note = Aring;
unicode = 00C5;
},
